{"glyphs":{"0":{"ha":938,"x_min":72,"x_max":865,"o":"m 468 -14 q 374 -14 468 -14 q 176 132 281 -14 q 72 508 72 278 q 176 881 72 738 q 468 1025 279 1025 q 761 881 657 1025 q 865 508 865 738 q 760 133 865 279 q 468 -14 656 -14 m 613 797 q 451 904 553 904 q 300 790 349 904 q 257 547 257 693 q 325 214 257 338 q 487 108 385 108 q 639 222 589 108 q 681 464 681 318 q 613 797 681 678 z "},"1":{"ha":525,"x_min":38,"x_max":414,"o":"m 372 885 l 372 121 q 414 40 372 60 q 307 -14 371 -14 q 193 125 193 -14 l 193 839 q 151 885 193 885 q 64 853 110 885 q 38 893 38 864 q 99 981 38 938 q 232 1025 160 1025 q 338 988 304 1025 q 372 885 372 950 z "},"2":{"ha":807,"x_min":49,"x_max":764,"o":"m 764 121 q 568 0 764 0 l 174 0 q 71 39 104 0 q 49 95 49 67 q 54 146 49 124 q 231 281 158 221 q 375 417 304 342 q 521 724 521 569 q 481 864 521 815 q 382 913 440 913 q 290 881 324 913 q 257 806 257 850 q 322 715 257 742 q 199 653 283 653 q 101 689 143 653 q 60 786 60 725 q 158 956 60 888 q 397 1025 256 1025 q 627 939 538 1025 q 717 713 717 853 q 592 424 717 574 q 229 144 467 274 l 564 163 q 729 206 681 168 q 764 121 764 168 z "},"3":{"ha":790,"x_min":56,"x_max":718,"o":"m 675 808 q 623 678 675 736 q 490 594 571 619 q 653 499 588 576 q 718 313 718 422 q 606 78 718 171 q 344 -14 493 -14 q 146 40 236 -14 q 56 185 56 94 q 91 268 56 239 q 158 300 126 297 q 258 162 189 211 q 406 113 328 113 q 528 154 483 113 q 574 257 574 196 q 497 409 574 344 q 301 474 421 474 q 233 467 265 474 q 215 508 215 481 q 260 566 215 536 q 358 619 304 596 q 457 685 413 642 q 501 779 501 728 q 460 861 501 831 q 358 892 419 892 q 160 819 253 892 q 124 877 124 829 q 211 975 124 925 q 411 1025 299 1025 q 599 966 524 1025 q 675 808 675 907 z "},"4":{"ha":874,"x_min":69,"x_max":843,"o":"m 256 369 l 494 369 l 494 799 q 478 824 494 824 q 386 742 451 824 q 265 556 321 660 q 208 401 208 453 q 219 376 208 383 q 256 369 229 369 m 707 240 l 674 240 l 674 121 q 714 40 674 61 q 608 -14 674 -14 q 494 125 494 -14 l 494 240 l 181 240 q 69 331 69 240 q 159 597 69 431 q 373 894 249 764 q 581 1025 497 1025 q 674 889 674 1025 l 674 369 l 724 369 q 822 394 793 369 q 843 332 843 371 q 806 267 843 293 q 707 240 768 240 z "},"5":{"ha":793,"x_min":79,"x_max":724,"o":"m 424 651 q 635 565 547 651 q 724 340 724 478 q 617 94 724 201 q 354 -14 511 -14 q 163 40 246 -14 q 79 179 79 93 q 117 264 79 233 q 194 294 156 294 q 282 174 222 217 q 416 132 342 132 q 538 176 490 132 q 585 289 585 219 q 508 444 585 388 q 338 501 431 501 q 175 474 244 501 q 131 492 149 474 q 113 542 113 511 q 179 894 113 574 q 374 1013 204 1013 l 532 1013 q 639 1040 604 1013 q 665 969 665 1011 q 476 850 665 850 l 290 850 l 238 606 q 424 651 326 651 z "},"6":{"ha":868,"x_min":85,"x_max":797,"o":"m 85 438 q 149 722 85 588 q 331 941 214 857 q 585 1025 447 1025 q 644 1009 618 1025 q 669 964 669 993 q 668 951 669 954 q 382 800 493 933 q 271 460 271 667 q 334 194 271 290 q 493 99 397 99 q 596 141 554 99 q 638 254 638 183 q 564 423 638 351 q 364 496 490 494 q 407 587 365 551 q 510 622 449 622 q 718 531 639 622 q 797 326 797 440 q 700 78 797 171 q 458 -14 603 -14 q 184 115 283 -14 q 85 438 85 244 z "},"7":{"ha":707,"x_min":28,"x_max":665,"o":"m 210 1013 l 653 1013 q 665 963 665 997 q 632 865 665 928 q 552 724 599 801 q 458 563 506 647 q 378 378 411 478 q 344 190 344 279 q 417 72 344 100 q 378 13 413 39 q 304 -14 343 -14 q 200 33 239 -14 q 161 151 161 81 q 203 323 161 222 q 292 502 244 424 q 413 695 340 581 q 514 857 486 810 q 417 849 478 849 l 164 849 q 57 815 94 849 q 28 888 28 842 q 210 1013 28 1013 z "},"8":{"ha":865,"x_min":83,"x_max":782,"o":"m 315 479 q 247 312 247 404 q 307 153 247 219 q 468 88 367 88 q 573 123 526 88 q 619 218 619 158 q 550 344 619 293 q 414 428 485 392 q 315 479 343 464 m 540 556 q 592 713 592 628 q 538 863 592 797 q 400 929 483 929 q 303 894 344 929 q 263 799 263 858 q 407 625 263 701 q 540 556 490 581 m 756 746 q 619 511 756 597 q 782 272 782 404 q 678 63 782 139 q 442 -14 574 -14 q 197 66 311 -14 q 83 279 83 146 q 127 426 83 363 q 236 529 171 490 q 108 754 108 625 q 197 944 108 863 q 426 1025 286 1025 q 576 994 503 1025 q 703 897 650 963 q 756 746 756 831 z "},"9":{"ha":844,"x_min":58,"x_max":771,"o":"m 771 572 q 710 292 771 426 q 535 72 649 158 q 285 -14 421 -14 q 224 2 250 -14 q 199 47 199 18 q 200 61 199 57 q 480 212 372 79 q 588 543 588 344 q 523 812 588 711 q 360 913 458 913 q 258 872 300 913 q 217 764 217 832 q 294 590 217 663 q 497 517 372 517 q 455 425 496 460 q 353 390 414 390 q 139 484 219 390 q 58 690 58 578 q 153 934 58 843 q 392 1025 249 1025 q 669 896 568 1025 q 771 572 771 767 z "},"\u0000":{"ha":0,"x_min":0,"x_max":0,"o":""},"\r":{"ha":0,"x_min":0,"x_max":0,"o":""}," ":{"ha":385,"x_min":0,"x_max":0,"o":""},"!":{"ha":538,"x_min":111,"x_max":340,"o":"m 286 475 q 278 380 278 421 q 285 310 278 339 q 238 289 261 289 q 156 403 171 289 l 114 888 q 111 925 111 907 q 140 1032 111 986 q 226 1078 169 1078 q 317 1025 282 1078 q 340 951 340 989 q 336 888 340 913 l 286 475 m 249 197 q 270 197 249 197 q 316 172 292 197 q 340 104 340 147 q 303 23 340 61 q 222 -15 265 -15 q 153 10 178 -15 q 129 78 129 35 q 167 160 129 122 q 249 197 206 197 z "},"\"":{"ha":610,"x_min":83,"x_max":526,"o":"m 260 1140 q 231 933 260 1042 q 172 825 201 825 q 113 934 143 825 q 83 1124 83 1043 q 172 1278 83 1278 q 260 1140 260 1278 m 526 1140 q 498 933 526 1040 q 439 825 469 825 q 381 935 411 825 q 350 1125 350 1044 q 438 1278 350 1278 q 526 1140 526 1278 z "},"#":{"ha":1189,"x_min":85,"x_max":1106,"o":"m 665 367 l 749 643 l 515 643 l 432 367 l 665 367 m 947 643 l 915 643 l 832 367 l 975 367 q 985 325 985 344 q 945 268 985 290 q 828 246 906 246 l 794 246 l 758 125 q 603 -14 717 -14 q 556 -1 571 -14 q 525 40 540 11 q 592 121 569 60 l 629 246 l 394 246 l 358 125 q 203 -14 317 -14 q 156 -1 171 -14 q 125 40 140 11 q 190 121 172 60 l 228 246 l 96 246 q 85 289 85 268 q 124 345 85 324 q 242 367 164 367 l 265 367 l 349 643 l 215 643 q 206 685 206 668 q 363 765 206 765 l 386 765 l 424 888 q 478 992 444 960 q 572 1025 511 1025 q 658 971 632 1025 q 590 892 611 953 l 551 765 l 786 765 l 822 888 q 878 992 846 960 q 972 1025 911 1025 q 1058 971 1032 1025 q 990 892 1011 953 l 951 765 l 1094 765 q 1106 724 1106 743 q 1066 665 1106 688 q 947 643 1026 643 z "},"$":{"ha":929,"x_min":103,"x_max":875,"o":"m 588 1083 l 588 1022 q 777 951 707 1006 q 847 825 847 897 q 819 751 847 779 q 744 724 792 724 q 656 750 696 724 q 665 800 665 774 q 619 877 665 843 q 491 911 574 911 q 356 878 408 911 q 304 792 304 846 q 363 694 304 738 q 506 614 422 650 q 673 537 589 578 q 816 431 757 496 q 875 285 875 367 q 781 86 875 167 q 544 -11 686 6 l 544 -74 q 585 -154 544 -135 q 478 -208 544 -208 q 365 -69 365 -208 l 365 -3 q 175 77 247 18 q 103 217 103 136 q 138 301 103 269 q 225 333 172 333 q 319 294 278 333 q 286 215 286 261 q 340 136 286 169 q 485 103 393 103 q 637 144 578 103 q 696 247 696 186 q 637 353 696 308 q 494 434 578 399 q 327 508 411 469 q 184 609 243 547 q 125 751 125 671 q 205 930 125 858 q 408 1021 285 1001 l 408 1088 q 365 1168 408 1147 q 472 1222 410 1222 q 588 1083 588 1222 z "},"%":{"ha":1264,"x_min":94,"x_max":1169,"o":"m 558 756 q 558 698 558 756 q 486 549 558 640 q 310 457 414 457 q 151 533 207 457 q 94 725 94 610 q 163 933 94 840 q 335 1025 231 1025 q 499 948 440 1025 q 558 756 558 871 m 411 733 q 411 769 411 733 q 388 856 411 804 q 324 907 364 907 q 260 861 285 907 q 235 746 235 815 q 259 625 235 676 q 322 574 283 574 q 385 618 360 574 q 411 733 411 663 m 881 954 q 980 1025 933 1025 q 1053 982 1026 1025 q 990 914 1035 975 l 383 60 q 285 -15 331 -15 q 214 31 239 -15 q 276 99 240 46 l 881 954 m 1169 285 q 1169 228 1169 285 q 1097 78 1169 171 q 922 -14 1025 -14 q 762 63 818 -14 q 706 254 706 139 q 774 463 706 369 q 947 556 842 556 q 1110 478 1051 556 q 1169 285 1169 400 m 1022 263 q 1022 298 1022 263 q 999 384 1022 333 q 935 435 975 435 q 871 390 896 435 q 846 275 846 344 q 870 155 846 206 q 933 104 894 104 q 997 148 971 104 q 1022 263 1022 192 z "},"&":{"ha":1056,"x_min":90,"x_max":1065,"o":"m 454 643 q 472 595 472 621 q 462 549 472 569 q 421 513 451 529 q 347 497 390 497 l 331 497 q 253 344 253 436 q 324 201 253 253 q 503 149 394 149 q 688 203 613 149 q 764 344 764 257 q 729 448 764 411 q 628 485 694 485 q 613 526 613 507 q 621 561 613 546 q 710 599 640 599 q 847 638 815 599 q 871 697 871 665 q 867 751 871 729 q 947 769 911 769 q 1010 753 982 769 q 1065 648 1065 718 q 1009 537 1065 578 q 839 496 953 496 l 833 496 q 871 344 871 424 q 758 90 871 194 q 474 -14 644 -14 q 197 68 303 -14 q 90 282 90 150 q 243 517 90 431 q 151 599 183 543 q 119 729 119 656 q 209 942 119 857 q 401 1026 299 1026 q 566 985 503 1026 q 629 887 629 943 q 581 801 629 831 q 523 785 553 785 q 465 793 493 785 q 365 925 461 925 q 291 891 321 925 q 261 793 261 857 q 313 686 261 729 q 454 643 365 643 z "},"'":{"ha":343,"x_min":82,"x_max":261,"o":"m 261 1118 q 231 925 261 1025 q 172 825 201 825 q 113 926 143 825 q 82 1104 82 1028 q 106 1218 82 1181 q 171 1256 129 1256 q 261 1118 261 1256 z "},"(":{"ha":694,"x_min":142,"x_max":649,"o":"m 649 1239 q 331 435 331 897 q 649 -369 331 -28 q 581 -404 632 -404 q 456 -337 529 -404 q 312 -161 382 -269 q 192 108 242 -53 q 142 433 142 269 q 191 756 142 596 q 311 1026 240 917 q 456 1204 382 1136 q 581 1272 529 1272 q 649 1239 633 1272 z "},")":{"ha":694,"x_min":68,"x_max":575,"o":"m 406 1026 q 441 972 406 1026 q 526 756 476 917 q 575 433 575 596 q 525 108 575 269 q 405 -161 475 -53 q 262 -337 335 -269 q 137 -404 189 -404 q 68 -369 85 -404 q 281 -61 192 -235 q 388 435 388 149 q 281 931 388 721 q 68 1239 192 1104 q 136 1272 83 1272 q 263 1204 189 1272 q 406 1026 336 1136 z "},"*":{"ha":853,"x_min":117,"x_max":736,"o":"m 426 1303 q 447 1303 426 1303 q 492 1274 468 1303 q 515 1190 515 1244 q 467 1038 515 1135 q 650 1140 579 1140 q 711 1117 686 1140 q 736 1049 736 1093 q 686 978 736 1004 q 497 958 603 932 q 605 880 558 926 q 651 795 651 833 q 623 731 651 757 q 561 704 594 704 q 472 767 507 704 q 425 911 438 831 q 378 766 413 829 q 288 703 343 703 q 227 732 253 703 q 201 798 201 761 q 248 881 201 835 q 354 958 294 926 q 167 981 244 938 q 117 1051 117 1007 q 144 1117 117 1094 q 206 1140 171 1140 q 292 1111 242 1140 q 382 1043 342 1082 q 339 1191 339 1138 q 361 1274 339 1244 q 426 1303 383 1303 z "},"+":{"ha":985,"x_min":82,"x_max":901,"o":"m 561 501 q 567 313 567 376 q 451 160 567 160 q 418 167 428 160 l 424 501 l 90 496 q 82 538 82 513 q 232 646 82 646 q 421 642 293 646 q 414 829 414 783 q 525 975 414 975 q 567 967 538 975 l 561 642 l 894 646 q 901 611 901 628 q 749 496 901 496 q 561 501 732 496 z "},",":{"ha":449,"x_min":110,"x_max":368,"o":"m 113 -246 q 206 -62 206 -175 q 110 99 206 50 q 153 169 121 140 q 238 199 186 199 q 329 147 290 199 q 368 13 368 94 q 299 -194 368 -103 q 160 -285 231 -285 q 113 -246 122 -285 z "},"-":{"ha":772,"x_min":83,"x_max":689,"o":"m 249 558 l 682 558 q 689 522 689 544 q 524 406 689 406 l 93 406 q 83 447 83 425 q 249 558 83 558 z "},".":{"ha":529,"x_min":149,"x_max":382,"o":"m 280 222 q 304 222 280 222 q 355 194 328 222 q 382 119 382 167 q 340 31 382 72 q 251 -11 299 -11 q 176 17 203 -11 q 149 92 149 44 q 190 181 149 140 q 280 222 232 222 z "},"/":{"ha":840,"x_min":31,"x_max":735,"o":"m 664 1410 q 735 1385 704 1410 q 689 1299 713 1368 l 206 -92 q 100 -200 169 -200 q 31 -174 61 -200 q 76 -85 53 -154 l 560 1303 q 664 1410 597 1410 z "},":":{"ha":510,"x_min":140,"x_max":374,"o":"m 272 742 q 295 742 272 742 q 347 714 319 742 q 374 638 374 686 q 333 549 374 590 q 244 508 292 508 q 168 536 196 508 q 140 611 140 564 q 182 700 140 658 q 272 742 224 742 m 272 225 q 295 225 272 225 q 347 197 319 225 q 374 122 374 169 q 333 33 374 75 q 244 -8 292 -8 q 168 20 196 -8 q 140 95 140 49 q 182 183 140 142 q 272 225 224 225 z "},";":{"ha":510,"x_min":125,"x_max":379,"o":"m 272 742 q 295 742 272 742 q 347 714 319 742 q 374 638 374 686 q 333 549 374 590 q 244 508 292 508 q 168 536 196 508 q 140 611 140 564 q 182 700 140 658 q 272 742 224 742 m 221 -47 q 197 53 221 8 q 125 119 172 97 q 169 191 136 161 q 246 221 201 221 q 345 169 311 221 q 379 44 379 118 q 313 -175 379 -65 q 175 -285 247 -285 q 128 -246 138 -285 q 221 -47 221 -175 z "},"<":{"ha":1011,"x_min":78,"x_max":854,"o":"m 292 608 q 500 481 292 578 q 854 339 708 385 q 821 236 854 274 q 731 199 788 199 q 516 265 674 199 q 218 423 358 332 q 78 568 78 514 q 232 723 78 626 q 553 890 386 819 q 760 961 721 961 q 826 943 800 961 q 851 889 851 925 q 503 742 714 839 q 292 608 292 644 z "},"=":{"ha":1035,"x_min":101,"x_max":932,"o":"m 265 831 l 926 831 q 932 794 932 819 q 768 676 932 676 l 110 676 q 101 718 101 706 q 265 831 101 831 m 265 461 l 926 461 q 932 426 932 450 q 768 308 932 308 l 110 308 q 101 350 101 338 q 265 461 101 461 z "},">":{"ha":981,"x_min":124,"x_max":899,"o":"m 758 423 q 688 377 758 423 q 460 265 618 332 q 247 199 303 199 q 157 236 190 199 q 124 339 124 274 q 478 481 269 385 q 686 608 686 578 q 474 742 686 644 q 125 889 263 839 q 151 943 125 925 q 217 961 178 961 q 424 890 257 961 q 744 723 590 819 q 899 568 899 626 q 758 423 899 514 z "},"?":{"ha":786,"x_min":86,"x_max":697,"o":"m 542 587 q 525 570 542 587 q 482 517 507 554 q 457 449 457 481 q 476 394 457 417 q 529 365 496 372 q 499 310 526 332 q 424 288 471 288 q 338 325 376 288 q 299 417 299 363 q 321 514 299 471 q 374 591 343 557 q 438 661 406 625 q 514 847 514 744 q 476 944 514 904 q 382 983 439 983 q 295 958 325 983 q 265 893 265 933 q 288 824 265 853 q 344 782 310 794 q 308 736 343 763 q 218 710 272 710 q 125 751 164 710 q 86 857 86 793 q 179 1015 86 953 q 399 1076 272 1076 q 612 1013 526 1076 q 697 853 697 950 q 613 656 697 746 q 542 587 578 619 m 425 196 q 449 196 425 196 q 499 172 472 196 q 526 104 526 147 q 485 24 526 61 q 397 -14 444 -14 q 322 12 349 -14 q 294 80 294 38 q 336 159 294 122 q 425 196 378 196 z "},"@":{"ha":1285,"x_min":83,"x_max":1185,"o":"m 729 390 q 521 271 521 379 q 594 211 521 211 q 722 269 667 211 l 729 390 m 886 247 q 928 200 886 200 q 1044 274 990 200 q 1101 493 1101 353 q 994 767 1101 664 q 703 871 886 871 q 310 720 454 871 q 167 335 167 569 q 273 49 167 144 q 558 -47 379 -47 q 842 10 708 -47 q 851 -12 851 -1 q 801 -65 851 -37 q 535 -122 700 -122 q 213 -4 342 -122 q 83 335 83 114 q 260 772 83 597 q 708 946 438 946 q 1055 817 925 946 q 1185 506 1185 689 q 1088 217 1185 324 q 858 111 990 111 q 724 196 746 111 q 519 113 644 113 q 388 149 435 113 q 342 247 342 186 q 446 399 342 344 q 733 457 550 453 l 739 551 q 739 563 739 557 q 657 651 739 651 q 594 633 618 651 q 569 589 571 615 q 585 540 567 563 q 492 508 543 508 q 416 530 440 508 q 392 585 392 551 q 476 692 392 651 q 670 732 560 732 q 841 685 781 732 q 901 550 901 639 q 901 533 901 542 l 886 256 q 886 247 886 251 z "},"A":{"ha":976,"x_min":43,"x_max":950,"o":"m 354 325 l 615 325 l 493 732 l 354 325 m 831 -14 q 753 10 782 -14 q 700 94 724 33 l 658 210 l 313 210 l 268 92 q 151 -14 231 -14 q 85 3 115 -14 q 43 47 54 21 q 108 138 79 63 l 408 906 q 363 974 389 953 q 463 1025 400 1025 q 553 994 526 1025 q 608 885 581 963 l 869 156 q 950 49 900 74 q 831 -14 918 -14 z "},"B":{"ha":1044,"x_min":110,"x_max":953,"o":"m 886 746 q 837 613 886 667 q 700 538 788 558 q 879 450 806 515 q 953 278 953 385 q 833 67 953 149 q 516 -14 714 -14 q 229 40 318 -14 q 140 213 140 94 l 142 838 q 110 963 142 914 q 487 1025 289 1025 q 785 947 685 1025 q 886 746 886 868 m 322 576 l 497 576 q 503 576 500 576 q 647 621 594 576 q 700 738 700 665 q 645 854 700 810 q 492 899 590 899 q 322 879 394 899 l 322 576 m 514 113 q 699 159 633 113 q 765 283 765 206 q 699 408 765 361 q 514 456 633 456 l 322 456 l 321 201 q 514 113 321 113 z "},"C":{"ha":993,"x_min":88,"x_max":899,"o":"m 896 835 q 860 758 896 783 q 774 732 825 732 q 686 753 722 732 q 689 788 689 771 q 658 877 689 839 q 549 915 626 915 q 358 810 439 915 q 278 515 278 704 q 359 237 278 326 q 582 147 440 147 q 740 185 665 147 q 858 274 814 222 q 888 247 876 269 q 899 203 899 225 q 791 58 899 131 q 535 -14 683 -14 q 208 121 329 -14 q 88 494 88 256 q 221 879 88 733 q 571 1025 354 1025 q 801 969 706 1025 q 896 835 896 914 z "},"D":{"ha":1072,"x_min":110,"x_max":1000,"o":"m 467 1025 q 849 890 699 1025 q 1000 504 1000 754 q 928 218 1000 338 q 467 -14 786 -14 q 215 39 290 -14 q 140 207 140 92 l 142 838 q 110 963 142 914 q 467 1025 289 1025 m 467 111 q 717 216 621 111 q 813 505 813 321 q 717 794 813 689 q 467 900 621 900 q 322 876 397 900 l 321 197 q 350 132 321 153 q 467 111 379 111 z "},"E":{"ha":954,"x_min":117,"x_max":871,"o":"m 429 146 l 675 146 q 828 203 767 146 q 871 119 871 174 q 829 32 871 64 q 703 0 788 0 l 406 0 q 219 53 279 0 q 160 224 160 106 l 160 875 q 117 956 160 935 q 238 1013 163 1013 l 692 1013 q 871 914 871 1013 q 828 836 871 864 q 675 865 771 865 l 339 865 l 339 607 l 569 607 q 708 588 668 607 q 749 520 749 569 q 708 443 749 471 q 556 461 664 461 l 339 461 l 339 243 q 360 169 339 192 q 429 146 382 146 z "},"F":{"ha":897,"x_min":117,"x_max":871,"o":"m 238 1013 l 703 1013 q 871 925 871 1013 q 828 847 871 875 q 675 876 771 876 l 339 876 l 339 593 l 569 593 q 708 576 668 593 q 749 518 749 560 q 708 450 749 476 q 556 465 663 465 l 339 465 l 339 121 q 379 40 339 60 q 274 -14 339 -14 q 160 125 160 -14 l 160 875 q 117 956 160 935 q 238 1013 163 1013 z "},"G":{"ha":1058,"x_min":88,"x_max":994,"o":"m 888 -144 q 774 -6 774 -144 l 774 100 q 519 -14 686 -14 q 225 104 354 -14 q 126 255 164 161 q 88 464 88 349 q 232 869 88 713 q 628 1025 376 1025 q 866 967 771 1025 q 961 829 961 910 q 924 758 961 786 q 838 729 886 729 q 751 751 789 729 q 753 774 753 763 q 713 874 753 832 q 590 915 672 915 q 365 802 449 915 q 281 507 281 689 q 356 226 281 325 q 567 128 432 128 q 775 283 738 128 l 775 403 l 717 403 q 571 399 646 403 q 550 469 550 429 q 599 525 550 508 q 763 542 647 542 q 917 511 879 542 q 954 406 954 481 l 953 -10 q 994 -90 953 -69 q 888 -144 951 -144 z "},"H":{"ha":1128,"x_min":104,"x_max":1022,"o":"m 982 888 l 982 121 q 1022 40 982 61 q 917 -14 982 -14 q 803 125 803 -14 l 803 451 l 325 451 l 325 121 q 367 40 325 60 q 260 -14 324 -14 q 146 125 146 -14 l 146 892 q 104 971 146 953 q 210 1025 144 1025 q 325 888 325 1025 l 325 572 l 803 572 l 803 892 q 761 971 803 953 q 867 1025 801 1025 q 982 888 982 1025 z "},"I":{"ha":472,"x_min":104,"x_max":367,"o":"m 325 888 l 325 121 q 367 40 325 60 q 260 -14 324 -14 q 146 125 146 -14 l 146 892 q 104 971 146 953 q 210 1025 144 1025 q 325 888 325 1025 z "},"J":{"ha":613,"x_min":31,"x_max":513,"o":"m 513 888 l 513 247 q 440 53 513 119 q 259 -14 368 -14 q 90 25 150 -14 q 31 113 31 64 q 58 190 31 163 q 217 131 131 131 q 302 158 271 131 q 333 240 333 186 l 333 892 q 292 971 333 953 q 399 1025 335 1025 q 513 888 513 1025 z "},"K":{"ha":1001,"x_min":104,"x_max":940,"o":"m 940 111 q 900 22 936 57 q 817 -14 864 -14 q 728 16 769 -14 q 618 122 688 46 l 325 436 l 325 121 q 367 40 325 60 q 260 -14 324 -14 q 146 125 146 -14 l 146 892 q 104 971 146 953 q 210 1025 144 1025 q 325 888 325 1025 l 325 576 l 629 915 q 722 1001 685 978 q 808 1025 760 1025 q 890 991 857 1025 q 929 907 924 957 q 822 857 876 907 l 478 529 l 814 178 q 940 111 875 113 z "},"L":{"ha":811,"x_min":107,"x_max":767,"o":"m 149 213 l 149 892 q 107 971 149 953 q 214 1025 147 1025 q 329 888 329 1025 l 329 232 q 351 158 329 181 q 419 135 372 135 l 596 135 q 731 190 686 135 q 767 122 767 172 q 725 35 767 71 q 603 0 683 0 l 385 0 q 203 47 257 0 q 149 213 149 94 z "},"M":{"ha":1340,"x_min":67,"x_max":1249,"o":"m 1249 13 q 1154 -10 1204 -10 q 1076 17 1104 -10 q 1042 114 1047 44 l 997 839 l 728 58 q 653 6 710 6 q 607 19 621 6 q 585 60 593 32 l 311 840 l 267 118 q 240 18 263 50 q 165 -14 218 -14 q 67 31 111 -14 q 104 128 100 61 l 161 876 q 161 893 161 885 q 136 981 161 947 q 302 1025 214 1025 q 431 981 390 1025 q 501 835 472 936 l 674 325 l 847 829 q 932 984 881 943 q 1061 1025 983 1025 q 1197 997 1139 1025 q 1175 906 1175 963 q 1175 888 1175 897 l 1224 132 q 1249 13 1226 47 z "},"N":{"ha":1143,"x_min":110,"x_max":1032,"o":"m 151 125 l 151 892 q 110 971 151 953 q 232 1025 153 1025 q 406 914 336 1025 l 824 233 l 824 892 q 782 971 824 953 q 889 1025 822 1025 q 1004 888 1004 1025 l 1004 121 q 1032 26 1004 58 q 928 -14 996 -14 q 809 27 861 -14 q 697 164 757 68 l 332 754 l 332 121 q 372 40 332 61 q 267 -14 329 -14 q 151 125 151 -14 z "},"O":{"ha":1089,"x_min":94,"x_max":994,"o":"m 367 211 q 571 104 443 104 q 761 218 699 104 q 813 454 813 313 q 722 801 813 676 q 519 908 647 908 q 329 794 390 908 q 278 557 278 700 q 367 211 278 335 m 881 883 q 938 813 881 883 q 994 507 994 742 q 881 129 994 272 q 547 -14 767 -14 q 210 130 326 -14 q 94 506 94 274 q 211 882 94 739 q 548 1025 328 1025 q 881 883 768 1025 z "},"P":{"ha":871,"x_min":79,"x_max":838,"o":"m 419 899 l 301 899 l 301 482 l 419 482 q 578 539 522 482 q 633 690 633 596 q 578 842 633 785 q 419 899 522 899 m 201 1013 l 447 1013 q 453 1013 450 1013 q 726 928 614 1013 q 838 691 838 844 q 726 453 838 538 q 447 369 614 369 l 301 369 l 301 121 q 343 40 301 60 q 236 -14 300 -14 q 122 125 122 -14 l 122 875 q 79 956 122 935 q 201 1013 125 1013 z "},"Q":{"ha":1136,"x_min":106,"x_max":1043,"o":"m 1014 -64 q 1043 -140 1043 -96 q 1014 -225 1043 -190 q 846 -294 956 -294 q 633 -242 736 -294 q 472 -121 531 -189 q 413 -1 413 -53 q 431 34 413 19 q 508 72 450 49 q 751 254 665 135 q 836 537 836 374 q 753 802 836 700 q 548 904 669 904 q 358 813 426 904 q 289 574 289 721 q 353 351 289 428 q 525 267 418 274 q 475 184 511 218 q 388 150 439 150 q 192 254 278 150 q 106 514 106 358 q 240 878 106 732 q 576 1025 375 1025 q 901 902 778 1025 q 1025 567 1025 779 q 900 200 1025 354 q 554 -12 775 46 q 857 -114 676 -114 q 1014 -64 947 -114 z "},"R":{"ha":915,"x_min":79,"x_max":886,"o":"m 301 881 l 301 525 l 419 525 q 578 572 524 525 q 633 703 633 618 q 578 834 633 788 q 419 881 524 881 l 301 881 m 765 -14 q 672 11 710 -14 q 588 108 635 36 l 400 394 l 301 394 l 301 121 q 343 40 301 60 q 236 -14 300 -14 q 122 125 122 -14 l 122 875 q 79 956 122 935 q 201 1013 125 1013 l 428 1013 q 706 931 593 1013 q 818 703 818 849 q 757 525 818 597 q 593 419 696 453 l 779 156 q 886 71 825 92 q 765 -14 844 -14 z "},"S":{"ha":944,"x_min":103,"x_max":875,"o":"m 847 825 q 819 751 847 779 q 744 724 792 724 q 656 750 696 724 q 665 800 665 774 q 619 877 665 843 q 491 911 574 911 q 356 878 408 911 q 304 792 304 846 q 363 694 304 738 q 506 614 422 650 q 673 537 589 578 q 816 431 757 496 q 875 285 875 367 q 760 70 875 154 q 484 -14 646 -14 q 213 51 322 -14 q 103 217 103 115 q 138 301 103 269 q 225 333 172 333 q 319 294 278 333 q 286 215 286 261 q 340 136 286 169 q 485 103 393 103 q 637 144 578 103 q 696 247 696 186 q 637 353 696 308 q 494 434 578 399 q 327 508 411 469 q 184 609 243 547 q 125 751 125 671 q 233 952 125 876 q 496 1028 340 1028 q 749 970 651 1028 q 847 825 847 913 z "},"T":{"ha":849,"x_min":28,"x_max":821,"o":"m 194 1013 l 708 1013 q 821 922 821 1013 q 792 853 821 888 q 654 876 743 876 l 514 876 l 514 121 q 556 40 514 60 q 449 -14 513 -14 q 335 125 335 -14 l 335 876 l 140 876 q 28 965 28 876 q 58 1035 28 1001 q 194 1013 106 1013 z "},"U":{"ha":1024,"x_min":92,"x_max":932,"o":"m 135 363 l 135 892 q 92 971 135 953 q 197 1025 135 1025 q 314 888 314 1025 l 314 338 q 372 179 314 233 q 533 125 429 125 q 695 178 638 125 q 753 338 753 232 l 753 892 q 710 971 753 953 q 817 1025 753 1025 q 932 888 932 1025 l 932 363 q 834 86 932 186 q 534 -14 736 -14 q 233 86 332 -14 q 135 363 135 186 z "},"V":{"ha":968,"x_min":8,"x_max":949,"o":"m 743 999 q 841 1026 790 1026 q 920 999 892 1026 q 949 928 949 972 q 929 839 949 883 l 642 126 q 578 14 607 42 q 489 -14 550 -14 q 403 14 428 -14 q 347 126 378 42 l 74 878 q 8 967 50 946 q 129 1025 63 1025 q 206 997 175 1025 q 263 896 238 968 l 506 172 l 746 840 q 767 940 767 904 q 743 999 767 975 z "},"W":{"ha":1417,"x_min":17,"x_max":1389,"o":"m 1217 914 q 1186 992 1217 967 q 1283 1025 1229 1025 q 1389 918 1389 1025 q 1381 854 1389 888 l 1192 131 q 1044 -14 1160 -14 q 897 131 928 -14 l 731 764 l 560 131 q 506 19 542 51 q 408 -14 469 -14 q 313 18 347 -14 q 263 131 279 50 l 79 865 q 17 969 57 947 q 124 1025 63 1025 q 217 994 185 1025 q 265 883 250 963 l 417 175 l 614 917 q 661 1001 631 976 q 743 1025 692 1025 q 874 917 847 1025 l 1054 169 l 1211 865 q 1217 914 1217 892 z "},"X":{"ha":913,"x_min":21,"x_max":893,"o":"m 893 92 q 848 15 881 43 q 770 -14 815 -14 q 694 6 725 -14 q 628 79 663 26 l 453 349 l 260 74 q 122 -14 197 -14 q 50 17 79 -14 q 22 101 21 47 q 110 150 75 101 l 361 493 l 138 838 q 21 918 85 918 q 65 997 32 968 q 144 1025 99 1025 q 221 1004 189 1025 q 286 932 253 983 l 485 625 l 661 872 q 690 942 690 911 q 660 997 690 974 q 765 1026 711 1026 q 849 999 819 1026 q 879 922 879 972 q 829 808 879 871 l 578 482 l 776 174 q 893 92 829 94 z "},"Y":{"ha":879,"x_min":14,"x_max":858,"o":"m 556 13 q 460 -10 511 -10 q 381 26 410 -10 q 353 132 353 61 l 354 442 l 99 874 q 14 931 64 926 q 133 1025 43 1025 q 211 997 178 1025 q 276 914 244 968 l 457 607 l 639 863 q 671 935 671 901 q 643 999 671 969 q 748 1025 699 1025 q 828 1000 797 1025 q 858 931 858 975 q 818 831 858 886 l 532 444 l 531 114 q 556 13 531 51 z "},"Z":{"ha":906,"x_min":53,"x_max":844,"o":"m 844 117 q 638 0 844 0 l 231 0 q 103 40 153 0 q 53 149 53 81 q 133 297 53 218 l 671 871 q 271 839 472 839 q 69 954 69 839 q 100 1032 69 997 q 269 1013 158 1013 l 664 1013 q 791 972 740 1013 q 842 864 842 932 q 760 714 842 796 l 224 139 l 653 164 q 813 203 756 171 q 844 117 844 167 z "},"[":{"ha":596,"x_min":75,"x_max":528,"o":"m 254 -139 l 399 -139 q 528 -228 528 -139 q 521 -260 528 -249 l 246 -260 q 93 -183 128 -260 q 75 -83 75 -144 l 75 1351 l 399 1351 q 528 1261 528 1351 q 521 1231 528 1240 l 254 1231 l 254 -139 z "},"\\":{"ha":840,"x_min":97,"x_max":801,"o":"m 168 1417 q 272 1308 236 1417 q 528 578 364 1053 q 756 -78 692 103 q 801 -167 779 -147 q 732 -193 771 -193 q 626 -85 663 -193 q 438 457 572 67 q 143 1306 304 847 q 97 1392 119 1375 q 168 1417 128 1417 z "},"]":{"ha":596,"x_min":78,"x_max":531,"o":"m 351 1231 l 207 1231 q 78 1319 78 1231 q 83 1351 78 1324 l 360 1351 q 486 1314 446 1351 q 517 1261 503 1297 q 531 1175 531 1225 l 531 -260 l 207 -260 q 78 -171 78 -260 q 83 -139 78 -167 l 351 -139 l 351 1231 z "},"^":{"ha":933,"x_min":106,"x_max":828,"o":"m 754 313 q 633 429 689 313 l 458 793 l 215 328 q 139 354 172 328 q 106 429 106 381 q 140 538 106 478 l 354 919 q 457 999 400 999 q 506 979 486 999 q 547 915 526 960 l 828 343 q 754 313 792 313 z "},"_":{"ha":838,"x_min":-1,"x_max":838,"o":"m 164 -101 l 832 -101 q 838 -137 838 -118 q 674 -254 838 -254 l 8 -254 q -1 -214 -1 -235 q 164 -101 -1 -101 z "},"`":{"ha":361,"x_min":17,"x_max":344,"o":"m 333 940 q 296 944 319 944 q 238 917 272 944 l 118 814 q 65 790 93 790 q 17 821 32 790 l 110 969 q 178 1055 146 1029 q 260 1081 211 1081 q 333 1038 308 1081 q 344 991 344 1015 q 333 940 344 967 z "},"a":{"ha":768,"x_min":63,"x_max":731,"o":"m 257 185 q 347 106 257 106 q 479 175 422 106 l 479 322 q 310 278 363 315 q 257 185 257 240 m 658 493 l 658 157 q 731 57 658 75 q 600 -14 685 -14 q 483 85 501 -14 q 268 -14 400 -14 q 119 33 176 -14 q 63 165 63 81 q 171 333 63 269 q 479 400 279 397 l 479 514 q 383 635 479 635 q 315 613 340 635 q 290 558 290 590 q 311 503 290 525 q 211 463 268 463 q 125 490 154 463 q 96 563 96 518 q 183 683 96 635 q 391 732 271 732 q 585 673 511 732 q 658 493 658 614 z "},"b":{"ha":828,"x_min":71,"x_max":788,"o":"m 292 219 q 414 94 292 94 q 554 168 501 94 q 607 359 607 242 q 558 540 607 476 q 442 604 510 604 q 292 500 342 604 l 292 219 m 293 938 l 293 635 q 492 732 367 732 q 702 640 617 732 q 788 374 788 547 q 680 93 788 200 q 406 -14 572 -14 q 113 219 113 -14 l 114 942 q 71 1024 114 1001 q 179 1076 114 1076 q 293 938 293 1076 z "},"c":{"ha":710,"x_min":68,"x_max":654,"o":"m 654 579 q 626 510 654 535 q 556 485 599 485 q 481 508 514 485 q 485 553 485 525 q 465 603 485 581 q 408 625 446 625 q 292 550 342 625 q 242 357 242 475 q 295 178 242 239 q 431 117 349 117 q 624 199 547 117 q 650 147 650 186 q 576 36 650 86 q 400 -14 501 -14 q 158 78 249 -14 q 68 333 68 169 q 173 615 68 497 q 436 732 278 732 q 591 690 528 732 q 654 579 654 647 z "},"d":{"ha":819,"x_min":51,"x_max":753,"o":"m 532 581 q 416 626 489 626 q 290 554 343 626 q 238 356 238 482 q 282 168 238 231 q 403 106 326 106 q 532 193 496 106 l 532 581 m 711 938 l 711 121 q 753 40 711 61 q 646 -14 710 -14 q 538 71 556 -14 q 351 -14 472 -14 q 140 81 229 -14 q 51 342 51 175 q 150 620 51 508 q 406 732 249 732 q 532 711 475 732 l 532 942 q 489 1024 532 1001 q 596 1076 532 1076 q 711 938 711 1076 z "},"e":{"ha":718,"x_min":68,"x_max":674,"o":"m 440 447 q 481 464 468 450 q 493 519 493 478 q 467 596 493 561 q 392 631 440 631 q 305 578 344 631 q 253 429 265 526 l 440 447 m 440 115 q 632 197 554 115 q 658 147 658 183 q 584 38 658 89 q 408 -14 510 -14 q 160 76 251 -14 q 68 333 68 167 q 169 616 68 500 q 415 732 269 732 q 601 658 528 732 q 674 488 674 583 q 638 383 674 415 q 517 349 601 350 l 249 340 q 440 115 254 115 z "},"f":{"ha":536,"x_min":26,"x_max":572,"o":"m 161 664 l 161 842 q 226 1015 161 953 q 383 1076 290 1076 q 524 1039 475 1076 q 572 955 572 1001 q 538 900 572 908 q 431 954 489 954 q 340 842 340 954 l 340 664 l 529 664 q 538 636 538 654 q 496 574 538 600 q 363 547 454 547 l 340 547 l 340 -144 q 293 -308 340 -254 q 171 -362 246 -362 q 26 -257 63 -362 q 133 -224 104 -257 q 161 -112 161 -190 l 161 549 q 40 614 40 556 q 65 667 40 649 q 158 664 118 664 l 161 664 z "},"g":{"ha":781,"x_min":32,"x_max":789,"o":"m 265 453 q 304 304 271 353 q 387 256 338 256 q 463 301 436 256 q 489 422 489 346 q 453 597 489 543 q 367 650 417 650 q 290 606 317 650 q 264 489 264 561 q 265 453 264 472 m 542 -85 l 338 -85 q 162 -43 233 -85 q 90 87 90 -1 q 196 226 90 175 q 82 444 82 308 q 169 656 82 579 q 378 732 256 732 q 543 688 469 732 q 589 813 549 767 q 681 858 629 858 q 760 829 732 858 q 789 750 789 800 q 750 678 789 700 q 686 701 719 701 q 604 636 622 701 q 672 443 672 561 q 585 249 672 325 q 378 172 499 172 q 275 189 322 172 q 232 140 232 174 q 260 94 232 106 q 351 82 288 82 l 529 82 q 683 35 632 82 q 735 -97 735 -12 q 627 -287 735 -212 q 353 -361 519 -361 q 110 -309 188 -361 q 32 -186 32 -257 q 65 -110 32 -137 q 146 -79 99 -82 q 203 -191 149 -154 q 373 -228 257 -228 q 548 -201 489 -228 q 607 -129 607 -174 q 542 -85 607 -85 z "},"h":{"ha":861,"x_min":74,"x_max":794,"o":"m 753 486 l 753 121 q 794 40 753 61 q 688 -14 751 -14 q 574 125 574 -14 l 574 464 q 468 586 574 586 q 364 539 414 586 q 294 407 314 492 l 294 121 q 336 40 294 61 q 229 -14 293 -14 q 115 125 115 -14 l 115 942 q 74 1024 115 1000 q 179 1076 114 1076 q 294 938 294 1076 l 294 578 q 397 691 331 650 q 552 732 464 732 q 697 669 640 732 q 753 486 753 607 z "},"i":{"ha":404,"x_min":74,"x_max":336,"o":"m 213 1061 q 236 1061 213 1061 q 290 1033 260 1061 q 321 958 321 1004 q 281 873 321 911 q 192 835 242 835 q 110 864 142 835 q 79 942 79 893 q 122 1026 79 990 q 213 1061 165 1061 m 294 593 l 294 121 q 336 40 294 61 q 229 -14 293 -14 q 115 125 115 -14 l 115 597 q 74 679 115 658 q 179 732 114 732 q 294 593 294 732 z "},"j":{"ha":401,"x_min":-19,"x_max":321,"o":"m 294 593 l 294 -144 q 247 -308 294 -254 q 126 -362 200 -362 q -19 -257 17 -362 q 87 -224 58 -257 q 115 -112 115 -190 l 115 597 q 74 679 115 658 q 179 732 114 732 q 294 593 294 732 m 213 1061 q 236 1061 213 1061 q 290 1033 260 1061 q 321 958 321 1004 q 281 873 321 911 q 192 835 242 835 q 110 864 142 835 q 79 942 79 893 q 122 1026 79 990 q 213 1061 165 1061 z "},"k":{"ha":832,"x_min":74,"x_max":776,"o":"m 294 938 l 294 439 q 571 732 571 565 q 692 700 646 732 q 738 615 738 668 q 658 485 738 542 q 425 381 578 429 q 686 153 606 183 q 776 140 724 140 q 742 28 776 69 q 642 -14 708 -14 q 501 60 576 -14 q 294 332 426 133 l 294 121 q 336 40 294 61 q 229 -14 293 -14 q 115 125 115 -14 l 115 942 q 74 1024 115 1000 q 179 1076 114 1076 q 294 938 294 1076 z "},"l":{"ha":410,"x_min":74,"x_max":336,"o":"m 294 938 l 294 121 q 336 40 294 61 q 229 -14 293 -14 q 115 125 115 -14 l 115 942 q 74 1024 115 1000 q 179 1076 114 1076 q 294 938 294 1076 z "},"m":{"ha":1321,"x_min":74,"x_max":1253,"o":"m 1211 486 l 1211 121 q 1253 40 1211 60 q 1146 -14 1213 -14 q 1032 125 1032 -14 l 1032 464 q 926 586 1032 586 q 822 539 872 586 q 753 407 772 492 l 753 121 q 794 40 753 61 q 688 -14 751 -14 q 574 125 574 -14 l 574 464 q 468 586 574 586 q 364 539 414 586 q 294 407 314 492 l 294 121 q 336 40 294 61 q 229 -14 293 -14 q 115 125 115 -14 l 115 597 q 74 679 115 658 q 179 732 114 732 q 294 593 294 732 l 294 578 q 397 691 331 650 q 544 732 464 732 q 746 563 713 732 q 849 687 781 642 q 1008 732 918 732 q 1155 669 1099 732 q 1211 486 1211 607 z "},"n":{"ha":861,"x_min":74,"x_max":794,"o":"m 753 486 l 753 121 q 794 40 753 61 q 688 -14 751 -14 q 574 125 574 -14 l 574 464 q 468 586 574 586 q 364 539 414 586 q 294 407 314 492 l 294 121 q 336 40 294 61 q 229 -14 293 -14 q 115 125 115 -14 l 115 597 q 74 679 115 658 q 179 732 114 732 q 294 593 294 732 l 294 578 q 397 691 331 650 q 552 732 464 732 q 697 669 640 732 q 753 486 753 607 z "},"o":{"ha":829,"x_min":68,"x_max":761,"o":"m 400 638 q 249 404 249 638 q 250 360 249 383 q 431 81 265 81 q 579 311 579 81 q 578 360 579 333 q 400 638 563 638 m 68 360 q 68 449 68 360 q 165 635 68 539 q 415 732 263 732 q 664 635 567 732 q 761 359 761 538 q 664 83 761 181 q 415 -14 567 -14 q 166 83 264 -14 q 68 360 68 181 z "},"p":{"ha":835,"x_min":74,"x_max":788,"o":"m 442 100 q 558 172 508 100 q 607 359 607 243 q 558 540 607 475 q 442 604 510 604 q 294 504 344 604 l 294 176 q 442 100 350 100 m 115 -222 l 115 597 q 74 679 115 658 q 179 732 114 732 q 292 633 278 732 q 492 732 367 732 q 702 635 617 732 q 788 361 788 538 q 690 85 788 185 q 464 -14 592 -14 q 294 47 368 -14 l 294 -226 q 336 -307 294 -286 q 229 -362 293 -362 q 115 -222 115 -362 z "},"q":{"ha":799,"x_min":51,"x_max":753,"o":"m 532 497 q 497 592 532 558 q 413 626 461 626 q 288 554 338 626 q 238 357 238 482 q 283 168 238 232 q 406 104 328 104 q 532 179 483 104 l 532 497 m 711 732 l 711 -226 q 753 -307 711 -286 q 646 -362 710 -362 q 532 -222 532 -362 l 532 56 q 348 -14 460 -14 q 144 82 236 -14 q 51 340 51 178 q 147 617 51 503 q 399 732 243 732 q 551 674 486 732 q 667 732 582 732 l 711 732 z "},"r":{"ha":647,"x_min":74,"x_max":628,"o":"m 115 125 l 115 597 q 74 679 115 658 q 179 732 114 732 q 294 594 294 732 q 482 732 351 732 q 588 696 547 732 q 628 602 628 660 q 599 513 628 544 q 515 481 569 481 q 481 483 506 481 q 485 528 485 504 q 465 571 485 551 q 412 590 446 590 q 344 556 378 590 q 294 450 310 522 l 294 121 q 336 40 294 61 q 229 -14 293 -14 q 115 125 115 -14 z "},"s":{"ha":718,"x_min":60,"x_max":665,"o":"m 640 581 q 615 519 640 542 q 547 496 589 496 q 469 524 506 496 q 476 567 476 544 q 449 611 475 590 q 376 632 424 632 q 299 611 328 632 q 271 556 271 590 q 312 492 271 522 q 410 438 353 463 q 526 384 468 413 q 624 310 583 356 q 665 207 665 264 q 576 49 665 113 q 359 -14 488 -14 q 146 33 231 -14 q 60 160 60 83 q 90 230 60 203 q 173 257 121 257 q 253 219 225 257 q 231 163 231 197 q 263 108 231 129 q 355 88 296 88 q 449 112 414 88 q 485 173 485 136 q 444 240 485 210 q 347 294 404 269 q 231 348 289 319 q 132 421 172 376 q 92 521 92 465 q 174 670 92 608 q 370 732 256 732 q 563 690 485 732 q 640 581 640 647 z "},"t":{"ha":583,"x_min":15,"x_max":560,"o":"m 300 601 l 300 203 q 317 134 300 156 q 375 113 335 113 q 522 182 457 113 q 549 167 538 181 q 560 131 560 153 q 494 31 560 76 q 331 -14 428 -14 q 177 35 233 -14 q 121 185 121 85 l 121 601 q 41 624 67 603 q 15 675 15 644 q 40 724 15 706 q 113 718 82 718 l 121 718 l 121 786 q 78 868 121 847 q 183 921 121 921 q 300 782 300 921 l 300 718 l 518 718 q 526 692 526 706 q 478 628 526 654 q 314 601 431 601 l 300 601 z "},"u":{"ha":861,"x_min":74,"x_max":794,"o":"m 753 593 l 753 121 q 794 40 753 61 q 688 -14 751 -14 q 575 103 581 -14 q 365 -14 501 -14 q 181 48 247 -14 q 115 232 115 110 l 115 597 q 74 679 115 658 q 179 732 114 732 q 294 593 294 732 l 294 249 q 417 126 294 126 q 574 247 528 126 l 574 597 q 532 679 574 658 q 638 732 575 732 q 753 593 753 732 z "},"v":{"ha":769,"x_min":28,"x_max":738,"o":"m 547 571 q 561 646 561 611 q 543 708 561 681 q 632 732 583 732 q 709 707 681 732 q 738 644 738 682 q 717 553 738 606 l 550 131 q 487 22 521 53 q 388 -10 453 -10 q 288 20 322 -10 q 228 131 253 50 l 86 579 q 28 658 65 642 q 71 712 39 692 q 140 732 103 732 q 269 613 244 732 l 390 107 l 547 571 z "},"w":{"ha":1186,"x_min":28,"x_max":1156,"o":"m 983 593 q 990 661 990 629 q 976 713 990 693 q 1067 732 1015 732 q 1143 686 1119 732 q 1156 633 1156 661 q 1147 574 1156 604 l 1022 132 q 965 19 999 51 q 865 -14 932 -14 q 763 21 799 -14 q 711 132 728 56 l 622 500 l 532 132 q 475 19 511 53 q 369 -14 439 -14 q 263 18 299 -14 q 207 132 228 50 l 90 567 q 28 658 72 642 q 147 732 64 732 q 272 599 247 732 l 369 124 l 489 610 q 539 705 506 678 q 632 732 572 732 q 726 705 692 732 q 775 610 761 678 l 882 125 l 983 593 z "},"x":{"ha":744,"x_min":29,"x_max":719,"o":"m 596 -14 q 460 74 522 -14 l 358 218 l 261 64 q 132 -14 211 -14 q 65 9 94 -14 q 29 68 36 32 q 104 128 69 78 l 263 354 l 96 590 q 29 650 57 644 q 64 710 35 688 q 133 732 93 732 q 268 649 210 732 l 381 489 l 490 658 q 615 732 536 732 q 683 709 653 732 q 719 651 713 686 q 642 590 675 639 l 475 353 l 638 121 q 707 65 669 75 q 668 8 699 29 q 596 -14 638 -14 z "},"y":{"ha":814,"x_min":39,"x_max":788,"o":"m 601 590 q 615 656 615 625 q 599 710 615 686 q 688 732 635 732 q 772 683 740 732 q 788 627 788 660 q 771 553 788 594 l 497 -178 q 290 -362 428 -362 q 196 -332 232 -362 q 160 -258 160 -301 q 183 -183 160 -214 q 256 -212 215 -212 q 351 -131 322 -212 l 392 -14 q 385 -14 388 -14 q 304 19 342 -14 q 249 113 267 53 l 93 585 q 39 682 71 658 q 142 732 86 732 q 228 701 199 732 q 278 601 258 669 l 429 93 l 601 590 z "},"z":{"ha":699,"x_min":69,"x_max":640,"o":"m 635 96 q 471 0 635 0 l 221 0 q 109 35 149 0 q 69 125 69 69 q 132 239 69 181 l 486 590 q 256 569 354 569 q 119 598 157 569 q 81 665 81 626 q 104 732 81 704 q 240 718 163 718 l 490 718 q 601 683 563 718 q 640 594 640 649 q 578 479 640 540 l 224 126 l 474 138 q 610 175 564 142 q 635 96 635 149 z "},"{":{"ha":710,"x_min":139,"x_max":540,"o":"m 388 1161 q 404 964 388 1115 q 421 759 421 813 q 401 660 421 706 q 353 590 381 614 q 274 543 304 547 q 354 494 300 540 q 401 426 382 472 q 421 327 421 381 q 404 119 421 274 q 388 -82 388 -35 q 429 -212 388 -161 q 540 -276 471 -262 q 490 -310 525 -297 q 425 -324 456 -324 q 277 -254 340 -324 q 214 -53 214 -185 q 231 147 214 13 q 249 335 249 281 q 231 429 249 390 q 194 483 214 468 q 156 514 174 499 q 139 543 139 529 q 156 573 139 557 q 194 603 174 589 q 231 656 214 618 q 249 750 249 694 q 231 938 249 806 q 214 1132 214 1069 q 277 1335 214 1267 q 425 1403 340 1403 q 490 1390 456 1403 q 540 1356 525 1378 q 429 1292 471 1343 q 388 1161 388 1242 z "},"|":{"ha":472,"x_min":104,"x_max":367,"o":"m 325 1182 l 325 -151 q 367 -233 325 -214 q 260 -286 324 -286 q 146 -147 146 -286 l 146 1186 q 104 1267 146 1246 q 210 1319 144 1319 q 325 1182 325 1319 z "},"}":{"ha":710,"x_min":139,"x_max":540,"o":"m 464 1132 q 447 938 464 1069 q 431 750 431 806 q 448 656 431 694 q 485 603 465 618 q 523 573 506 589 q 540 543 540 557 q 523 514 540 529 q 485 483 506 499 q 448 429 465 468 q 431 335 431 390 q 447 147 431 281 q 464 -53 464 13 q 401 -255 464 -186 q 254 -324 339 -324 q 189 -310 224 -324 q 139 -276 154 -297 q 249 -212 208 -262 q 290 -82 290 -162 q 274 119 290 -35 q 258 327 258 274 q 278 426 258 381 q 325 494 297 472 q 406 543 379 540 q 336 581 375 547 q 258 764 258 649 q 274 964 258 813 q 290 1161 290 1115 q 249 1292 290 1242 q 139 1356 208 1343 q 189 1390 154 1378 q 254 1403 224 1403 q 401 1335 339 1403 q 464 1132 464 1267 z "},"~":{"ha":963,"x_min":117,"x_max":832,"o":"m 281 668 q 314 668 281 668 q 492 623 347 668 q 683 578 636 578 q 782 656 776 578 q 832 572 832 633 q 784 468 832 510 q 664 426 736 426 q 449 470 592 426 q 256 514 306 514 q 167 438 174 514 q 117 518 117 453 q 165 626 117 583 q 281 668 214 668 z "},"¡":{"ha":474,"x_min":119,"x_max":350,"o":"m 344 -169 q 349 -234 349 -196 q 325 -308 349 -272 q 235 -360 292 -360 q 149 -314 178 -360 q 119 -208 119 -268 q 122 -169 119 -189 l 165 314 q 246 428 178 428 q 293 407 275 428 q 288 335 288 375 q 294 243 288 294 l 344 -169 m 231 519 q 209 519 231 519 q 163 545 188 519 q 138 614 138 571 q 175 694 138 657 q 257 732 213 732 q 326 707 301 732 q 350 638 350 682 q 312 557 350 594 q 231 519 274 519 z "},"¢":{"ha":710,"x_min":68,"x_max":654,"o":"m 501 788 l 501 725 q 612 673 569 713 q 654 584 654 633 q 626 510 654 535 q 556 485 599 485 q 481 508 514 485 q 485 553 485 525 q 465 603 485 581 q 408 625 446 625 q 292 550 342 625 q 242 357 242 475 q 295 178 242 239 q 431 117 349 117 q 624 199 547 117 q 650 142 650 186 q 597 52 650 97 q 464 -8 543 7 l 464 -74 q 504 -154 464 -133 q 399 -208 461 -208 q 283 -69 283 -208 l 283 3 q 126 119 183 35 q 68 334 68 204 q 138 569 68 464 q 322 714 208 675 l 322 792 q 279 874 322 853 q 386 928 326 928 q 501 788 501 928 z "},"£":{"ha":894,"x_min":54,"x_max":867,"o":"m 167 574 l 242 574 q 239 693 239 638 q 340 933 239 842 q 575 1025 440 1025 q 737 981 681 1025 q 793 883 793 938 q 758 797 793 829 q 667 761 722 765 q 617 865 653 822 q 533 908 582 908 q 435 740 435 908 q 442 574 435 657 l 679 574 q 685 550 685 568 q 571 471 685 471 l 444 471 l 444 403 q 427 282 444 343 q 367 193 410 221 q 513 167 403 189 q 693 144 624 144 q 850 194 793 144 q 867 132 867 168 q 817 31 867 75 q 684 -14 768 -14 q 463 12 600 -14 q 269 38 326 38 q 101 -12 161 38 q 83 56 83 17 q 117 135 83 96 q 210 188 151 174 q 249 335 249 235 q 246 471 249 436 l 60 471 q 54 497 54 479 q 167 574 54 574 z "},"¤":{"ha":953,"x_min":83,"x_max":869,"o":"m 639 478 q 461 731 639 731 q 314 551 314 731 q 315 519 314 536 q 492 308 331 308 q 639 478 639 308 m 750 682 q 789 519 789 613 q 749 354 789 426 l 869 235 q 797 174 854 176 q 774 171 786 171 q 683 217 729 171 l 644 256 q 478 217 575 217 q 308 256 381 217 l 269 217 q 179 171 224 171 q 156 174 167 171 q 83 235 99 176 l 206 354 q 164 519 164 425 q 203 682 164 613 l 83 799 q 156 861 99 857 q 176 864 165 864 l 269 817 l 304 782 q 477 824 379 824 q 650 782 575 824 l 683 817 q 775 864 728 864 q 797 861 786 864 q 869 799 854 857 l 750 682 z "},"¥":{"ha":928,"x_min":14,"x_max":858,"o":"m 639 863 q 671 935 671 901 q 643 999 671 969 q 748 1025 699 1025 q 828 1000 797 1025 q 858 931 858 975 q 818 831 858 886 l 608 547 l 797 547 q 804 524 804 538 q 688 444 804 444 l 532 444 l 532 338 l 797 338 q 804 314 804 331 q 688 235 804 235 l 531 235 l 531 114 q 556 13 531 51 q 460 -10 511 -10 q 381 26 410 -10 q 353 132 353 61 l 353 235 l 103 235 q 97 261 97 243 q 214 338 97 338 l 354 338 l 354 442 l 353 444 l 103 444 q 97 471 97 453 q 214 547 97 547 l 292 547 l 99 874 q 14 931 64 926 q 133 1025 43 1025 q 211 997 178 1025 q 276 914 244 968 l 457 607 l 639 863 z "},"¦":{"ha":472,"x_min":106,"x_max":367,"o":"m 326 321 l 326 -18 q 367 -100 326 -81 q 261 -153 324 -153 q 147 -14 147 -153 l 147 325 q 106 404 147 386 q 211 458 146 458 q 326 321 326 458 m 326 1082 l 326 744 q 367 663 326 683 q 261 608 324 608 q 147 747 147 608 l 147 1086 q 106 1167 147 1146 q 211 1219 146 1219 q 326 1082 326 1219 z "},"§":{"ha":944,"x_min":139,"x_max":839,"o":"m 321 238 q 503 42 321 129 q 656 -33 579 6 q 785 -136 732 -72 q 839 -285 839 -200 q 735 -499 839 -414 q 484 -583 631 -583 q 238 -519 338 -583 q 139 -353 139 -454 q 175 -266 139 -297 q 266 -235 211 -235 q 353 -275 321 -235 q 325 -355 325 -310 q 369 -433 325 -400 q 494 -467 413 -467 q 626 -424 575 -467 q 676 -327 676 -382 q 623 -231 676 -272 q 494 -153 569 -189 q 342 -76 418 -118 q 213 32 267 -35 q 160 190 160 99 q 214 339 160 281 q 343 397 268 397 q 417 381 381 397 q 321 238 321 332 m 814 824 q 788 749 814 776 q 725 721 763 721 q 628 749 661 721 q 636 797 636 779 q 594 874 636 840 q 478 908 551 908 q 321 793 321 908 q 374 708 321 749 q 503 629 428 667 q 656 549 579 592 q 785 439 732 507 q 839 281 839 371 q 779 134 839 192 q 647 76 719 76 q 574 93 607 76 q 676 243 676 140 q 623 351 676 303 q 494 434 569 399 q 342 508 418 469 q 213 608 267 546 q 160 750 160 669 q 257 949 160 874 q 495 1025 354 1025 q 725 967 636 1025 q 814 824 814 910 z "},"¨":{"ha":489,"x_min":17,"x_max":472,"o":"m 129 1019 q 149 1019 129 1019 q 193 996 169 1019 q 217 931 217 972 q 181 855 217 890 q 104 819 146 819 q 40 844 63 819 q 17 908 17 868 q 53 984 17 949 q 129 1019 89 1019 m 385 1019 q 406 1019 385 1019 q 449 996 426 1019 q 472 931 472 972 q 437 855 472 890 q 360 819 401 819 q 296 844 319 819 q 272 908 272 868 q 308 984 272 949 q 385 1019 344 1019 z "},"©":{"ha":1207,"x_min":100,"x_max":1107,"o":"m 838 704 q 813 643 838 665 q 751 621 789 621 q 683 643 714 621 q 688 671 688 668 q 668 727 688 704 q 613 750 649 750 q 509 681 550 750 q 468 508 468 611 q 516 349 468 404 q 639 294 564 294 q 813 376 742 294 q 836 331 836 365 q 768 227 836 275 q 607 179 700 179 q 393 263 472 179 q 314 490 314 347 q 406 739 314 632 q 638 846 499 846 q 778 806 719 846 q 838 704 838 767 m 603 963 q 507 963 603 963 q 293 831 410 963 q 176 505 176 700 q 292 180 176 310 q 602 50 408 50 q 913 180 796 50 q 1029 505 1029 310 q 913 831 1029 700 q 603 963 797 963 m 964 879 q 1035 806 964 879 q 1107 504 1107 732 q 964 131 1107 276 q 603 -14 821 -14 q 243 131 386 -14 q 100 504 100 276 q 243 879 100 732 q 603 1026 386 1026 q 964 879 821 1026 z "},"ª":{"ha":768,"x_min":63,"x_max":731,"o":"m 257 185 q 347 106 257 106 q 479 175 422 106 l 479 322 q 310 278 363 315 q 257 185 257 240 m 658 493 l 658 157 q 731 57 658 75 q 600 -14 685 -14 q 483 85 501 -14 q 268 -14 400 -14 q 119 33 176 -14 q 63 165 63 81 q 171 333 63 269 q 479 400 279 397 l 479 514 q 383 635 479 635 q 315 613 340 635 q 290 558 290 590 q 311 503 290 525 q 211 463 268 463 q 125 490 154 463 q 96 563 96 518 q 183 683 96 635 q 391 732 271 732 q 585 673 511 732 q 658 493 658 614 z "},"«":{"ha":828,"x_min":72,"x_max":756,"o":"m 290 685 q 271 652 290 685 q 251 561 251 618 q 291 436 251 504 q 431 243 331 368 q 386 214 418 214 q 198 350 324 214 q 72 561 72 486 q 133 696 72 611 q 270 845 194 781 q 382 910 346 910 q 431 881 418 910 q 290 685 329 753 m 756 881 q 615 685 654 751 q 576 562 576 618 q 616 438 576 506 q 756 243 656 369 q 711 214 743 214 q 523 350 649 214 q 397 561 397 486 q 458 696 397 611 q 595 845 519 781 q 707 910 671 910 q 756 881 743 910 z "},"¬":{"ha":1115,"x_min":72,"x_max":1031,"o":"m 989 560 l 989 425 q 1031 343 989 364 q 924 289 990 289 q 811 426 811 289 l 811 514 q 801 542 811 535 q 767 550 790 550 l 82 550 q 72 592 72 569 q 204 682 72 682 l 844 682 q 956 653 924 682 q 989 560 989 625 z "},"®":{"ha":942,"x_min":89,"x_max":853,"o":"m 413 932 l 413 776 l 457 776 q 551 854 551 776 q 457 932 551 932 l 413 932 m 674 564 q 608 526 656 526 q 525 582 561 526 l 439 714 l 411 714 l 411 589 q 431 551 411 563 q 375 526 408 526 q 318 590 318 526 l 318 933 q 300 971 318 958 q 354 996 322 996 l 469 996 q 599 958 546 996 q 651 862 651 919 q 621 770 651 804 q 540 724 590 736 l 626 603 q 674 564 644 576 m 239 522 q 283 474 239 522 q 471 426 326 426 q 703 522 615 426 q 790 756 790 617 q 703 990 790 896 q 472 1085 617 1085 q 240 990 328 1085 q 151 756 151 894 q 239 522 151 617 m 197 1033 q 250 1087 197 1033 q 471 1140 304 1140 q 745 1033 638 1140 q 853 756 853 926 q 745 478 853 585 q 471 372 638 372 q 197 478 304 372 q 89 756 89 585 q 197 1033 89 926 z "},"¯":{"ha":553,"x_min":17,"x_max":536,"o":"m 110 946 l 526 946 q 536 910 536 936 q 510 867 536 885 q 443 849 485 849 l 26 849 q 17 885 17 861 q 42 928 17 910 q 110 946 67 946 z "},"°":{"ha":1118,"x_min":100,"x_max":576,"o":"m 167 1149 q 201 1181 167 1149 q 339 1213 235 1213 q 510 1149 443 1213 q 576 985 576 1086 q 510 819 576 883 q 339 754 443 754 q 167 818 235 754 q 100 984 100 882 q 167 1149 100 1086 m 259 901 q 274 885 259 901 q 339 868 289 868 q 419 901 389 868 q 449 985 449 933 q 419 1069 449 1036 q 339 1101 389 1101 q 259 1069 289 1101 q 229 986 229 1038 q 259 901 229 935 z "},"±":{"ha":1003,"x_min":78,"x_max":925,"o":"m 572 594 l 578 444 q 463 292 578 292 q 429 299 439 292 l 435 594 l 101 590 q 92 631 92 607 q 242 740 92 740 l 432 735 q 425 883 428 829 q 536 1029 425 1029 q 578 1019 556 1029 l 572 735 l 904 740 q 913 704 913 724 q 760 590 913 590 q 572 594 700 590 m 242 221 l 918 221 q 925 185 925 207 q 761 69 925 69 l 88 69 q 78 110 78 99 q 242 221 78 221 z "},"²":{"ha":572,"x_min":51,"x_max":514,"o":"m 381 432 l 135 432 q 70 452 89 432 q 51 490 51 472 q 56 519 51 507 q 276 694 200 617 q 351 856 351 771 q 264 957 351 957 q 210 940 229 957 q 192 894 192 924 q 236 846 192 864 q 163 808 213 808 q 85 830 114 808 q 57 888 57 851 q 121 987 57 946 q 276 1028 185 1028 q 426 978 367 1028 q 485 853 485 928 q 172 524 485 681 q 381 536 276 536 q 514 467 514 536 q 493 421 514 444 q 381 432 453 432 z "},"³":{"ha":536,"x_min":50,"x_max":488,"o":"m 281 1025 q 320 1025 281 1025 q 408 991 358 1025 q 457 908 457 957 q 421 824 457 858 q 331 776 385 790 q 442 718 397 763 q 488 607 488 674 q 409 483 488 540 q 247 426 331 426 q 107 459 164 426 q 50 542 50 492 q 73 597 50 574 q 114 622 96 621 q 269 528 154 528 q 342 549 314 528 q 369 609 369 569 q 328 678 369 649 q 207 708 286 708 q 161 704 181 708 q 150 728 150 711 q 177 763 150 746 q 237 791 204 779 q 297 824 269 803 q 324 872 324 844 q 297 917 324 900 q 222 935 269 935 q 124 900 175 935 q 99 940 99 907 q 151 999 99 972 q 281 1025 204 1025 z "},"´":{"ha":368,"x_min":17,"x_max":353,"o":"m 353 821 q 308 790 338 790 q 250 813 278 790 l 125 910 q 68 935 92 935 q 29 929 44 935 q 17 981 17 957 q 28 1025 17 1004 q 100 1071 51 1071 q 181 1047 149 1071 q 251 965 214 1024 l 353 821 z "},"µ":{"ha":864,"x_min":74,"x_max":794,"o":"m 753 593 l 753 121 q 794 40 753 61 q 688 -14 751 -14 q 575 103 581 -14 q 379 -14 501 -14 q 294 4 333 -14 l 294 -122 q 336 -204 294 -183 q 229 -258 292 -258 q 115 -119 115 -258 l 115 597 q 74 679 115 658 q 179 732 114 732 q 294 593 294 732 l 294 249 q 417 126 294 126 q 574 247 528 126 l 574 597 q 532 679 574 658 q 638 732 575 732 q 753 593 753 732 z "},"¶":{"ha":967,"x_min":72,"x_max":790,"o":"m 351 1013 l 790 1013 q 771 829 771 942 l 771 0 q 721 -7 747 -7 q 672 15 694 -7 q 650 83 650 36 l 650 790 q 658 901 650 829 l 582 901 q 525 840 525 901 l 525 0 q 477 -7 504 -7 q 428 15 450 -7 q 406 83 406 36 l 406 383 l 351 383 q 147 472 221 383 q 72 698 72 560 q 147 924 72 836 q 351 1013 221 1013 z "},"·":{"ha":563,"x_min":167,"x_max":401,"o":"m 299 657 q 323 657 299 657 q 374 629 347 657 q 401 553 401 601 q 360 465 401 506 q 270 424 318 424 q 194 451 222 424 q 167 526 167 479 q 209 615 167 574 q 299 657 251 657 z "},"¸":{"ha":507,"x_min":19,"x_max":479,"o":"m 313 -89 q 433 -119 388 -89 q 479 -212 479 -150 q 412 -317 479 -274 q 244 -360 344 -360 q 82 -324 144 -360 q 19 -240 19 -287 q 46 -193 19 -210 q 214 -274 104 -274 q 324 -210 324 -274 q 236 -150 324 -150 l 210 -150 q 175 -125 175 -150 q 182 -99 175 -114 l 228 24 l 346 24 l 304 -89 l 313 -89 z "},"¹":{"ha":311,"x_min":28,"x_max":272,"o":"m 246 944 l 246 501 q 272 454 246 464 q 203 422 244 422 q 129 504 129 422 l 129 918 q 103 944 129 944 q 44 925 76 944 q 28 952 28 929 q 67 1000 28 975 q 154 1025 107 1025 q 246 944 246 1025 z "},"º":{"ha":563,"x_min":56,"x_max":506,"o":"m 271 957 q 188 836 188 957 q 189 808 188 822 q 292 663 200 663 q 375 779 375 663 q 374 808 375 793 q 271 957 363 957 m 119 969 q 151 997 119 969 q 282 1025 183 1025 q 443 969 381 1025 q 506 809 506 913 q 442 649 506 706 q 281 593 379 593 q 119 649 183 593 q 56 809 56 706 q 119 969 56 913 z "},"»":{"ha":828,"x_min":72,"x_max":756,"o":"m 756 561 q 630 350 756 486 q 442 214 504 214 q 413 224 425 214 q 397 243 400 235 q 536 435 497 367 q 575 561 575 504 q 536 686 575 618 q 397 881 497 754 q 413 900 400 890 q 442 910 425 910 q 558 845 482 910 q 694 696 633 781 q 756 561 756 611 m 431 561 q 305 350 431 486 q 117 214 179 214 q 88 224 100 214 q 72 243 75 235 q 211 435 172 367 q 250 561 250 504 q 211 686 250 618 q 72 881 172 754 q 88 900 75 890 q 117 910 100 910 q 233 845 157 910 q 369 696 308 781 q 431 561 431 611 z "},"¼":{"ha":943,"x_min":44,"x_max":929,"o":"m 143 501 l 143 917 q 117 943 143 943 q 63 924 90 943 q 44 953 44 931 q 83 1000 44 975 q 169 1025 121 1025 q 261 944 261 1025 l 261 500 q 289 451 261 464 q 219 421 261 421 q 143 501 143 421 m 697 979 q 753 1025 728 1025 q 797 999 779 1025 q 778 976 788 994 q 765 953 768 957 l 204 38 q 199 30 203 35 q 194 22 196 25 q 190 15 193 19 q 185 9 188 11 q 181 3 183 7 q 176 -1 178 0 q 170 -6 174 -3 q 164 -8 167 -8 q 150 -11 156 -11 q 104 17 121 -11 q 136 61 115 26 l 697 979 m 582 217 l 706 217 l 706 450 q 696 464 706 464 q 613 372 674 464 q 551 235 551 279 q 582 217 551 217 m 850 140 l 826 140 l 826 71 q 854 24 826 33 q 783 -8 825 -8 q 706 72 706 -8 l 706 140 l 532 140 q 451 200 451 140 q 566 440 451 281 q 758 599 681 599 q 826 519 826 599 l 826 217 l 853 217 q 914 231 897 217 q 929 194 929 215 q 908 156 929 172 q 850 140 886 140 z "},"½":{"ha":1047,"x_min":42,"x_max":1006,"o":"m 139 501 l 139 917 q 113 943 139 943 q 58 924 86 943 q 42 953 42 931 q 80 1000 42 975 q 167 1025 118 1025 q 258 944 258 1025 l 258 500 q 285 451 258 464 q 215 421 257 421 q 139 501 139 421 m 689 979 q 742 1025 714 1025 q 789 999 771 1025 q 757 953 779 993 l 196 38 q 191 30 194 35 q 186 22 188 25 q 182 15 185 19 q 177 9 179 11 q 172 3 175 7 q 167 -1 169 0 q 162 -6 165 -3 q 156 -8 158 -8 q 142 -11 147 -11 q 96 17 113 -11 q 128 61 107 26 l 689 979 m 871 0 l 626 0 q 562 20 581 0 q 543 57 543 40 q 547 88 543 74 q 768 263 693 186 q 843 422 843 339 q 819 500 843 474 q 758 526 796 526 q 702 509 721 526 q 683 462 683 492 q 728 414 683 432 q 653 376 701 376 q 577 398 606 376 q 549 456 549 419 q 613 554 549 513 q 767 596 676 596 q 917 546 858 596 q 976 421 976 496 q 663 92 976 246 q 868 104 767 104 q 1006 35 1006 104 q 985 -11 1006 13 q 871 0 936 0 z "},"¾":{"ha":1029,"x_min":50,"x_max":1019,"o":"m 331 776 q 442 718 397 763 q 488 607 488 674 q 409 483 488 540 q 247 426 331 426 q 107 459 164 426 q 50 542 50 492 q 73 597 50 574 q 114 622 96 621 q 269 526 156 526 q 342 548 314 526 q 369 609 369 569 q 328 678 369 649 q 207 708 286 708 q 161 704 181 708 q 150 727 150 711 q 177 760 150 743 q 237 788 204 776 q 297 821 269 799 q 324 872 324 843 q 297 919 324 901 q 222 936 269 936 q 124 901 175 936 q 99 940 99 908 q 151 999 99 972 q 281 1025 204 1025 q 408 991 358 1025 q 457 908 457 957 q 421 824 457 858 q 331 776 385 790 m 826 978 q 890 1025 858 1025 q 936 994 921 1025 q 894 953 917 989 l 297 38 q 235 -11 267 -11 q 188 19 203 -11 q 231 61 206 26 l 826 978 m 672 217 l 796 217 l 796 450 q 785 464 796 464 q 702 372 763 464 q 642 235 642 279 q 672 217 642 217 m 940 140 l 917 140 l 917 71 q 944 24 917 33 q 875 -8 915 -8 q 796 72 796 -8 l 796 140 l 622 140 q 543 200 543 140 q 596 342 543 247 q 723 518 649 438 q 847 599 797 599 q 917 519 917 599 l 917 217 l 943 217 q 1004 231 988 217 q 1019 194 1019 215 q 998 156 1019 172 q 940 140 976 140 z "},"¿":{"ha":769,"x_min":106,"x_max":711,"o":"m 267 129 q 286 146 267 129 q 330 199 304 163 q 356 269 356 236 q 336 323 356 301 q 283 350 317 344 q 314 407 286 385 q 389 429 342 429 q 475 391 436 429 q 514 299 514 353 q 491 202 514 244 q 435 126 468 160 q 368 56 401 92 q 289 -131 289 -28 q 326 -227 289 -187 q 419 -267 363 -267 q 532 -174 532 -267 q 509 -108 532 -137 q 451 -65 486 -79 q 489 -20 453 -47 q 579 7 525 7 q 672 -35 633 7 q 711 -142 711 -78 q 620 -299 711 -237 q 402 -360 529 -360 q 190 -297 275 -360 q 106 -137 106 -235 q 131 -28 106 -79 q 194 60 157 24 q 267 129 231 96 m 375 521 q 351 521 375 521 q 301 545 328 521 q 275 613 275 569 q 315 693 275 656 q 403 731 356 731 q 478 705 450 731 q 506 637 506 679 q 464 558 506 594 q 375 521 422 521 z "},"À":{"ha":976,"x_min":43,"x_max":950,"o":"m 442 1115 l 535 1264 q 603 1349 571 1324 q 685 1375 636 1375 q 758 1332 733 1375 q 769 1285 769 1310 q 758 1235 769 1261 q 721 1239 744 1239 q 663 1211 697 1239 l 543 1108 q 488 1085 518 1085 q 442 1115 457 1085 m 354 325 l 615 325 l 493 732 l 354 325 m 831 -14 q 753 10 782 -14 q 700 94 724 33 l 658 210 l 313 210 l 268 92 q 151 -14 231 -14 q 85 3 115 -14 q 43 47 54 21 q 108 138 79 63 l 408 906 q 363 974 389 953 q 463 1025 400 1025 q 553 994 526 1025 q 608 885 581 963 l 869 156 q 950 49 900 74 q 831 -14 918 -14 z "},"Á":{"ha":976,"x_min":43,"x_max":950,"o":"m 594 1115 q 549 1085 579 1085 q 492 1107 519 1085 l 367 1204 q 310 1229 333 1229 q 271 1224 286 1229 q 258 1275 258 1251 q 269 1319 258 1299 q 342 1365 293 1365 q 423 1342 390 1365 q 493 1260 456 1318 l 594 1115 m 354 325 l 615 325 l 493 732 l 354 325 m 831 -14 q 753 10 782 -14 q 700 94 724 33 l 658 210 l 313 210 l 268 92 q 151 -14 231 -14 q 85 3 115 -14 q 43 47 54 21 q 108 138 79 63 l 408 906 q 363 974 389 953 q 463 1025 400 1025 q 553 994 526 1025 q 608 885 581 963 l 869 156 q 950 49 900 74 q 831 -14 918 -14 z "},"Â":{"ha":976,"x_min":43,"x_max":950,"o":"m 371 1108 q 313 1085 346 1085 q 267 1115 279 1085 l 365 1261 q 424 1331 397 1310 q 494 1351 451 1351 q 563 1330 536 1351 q 622 1261 590 1308 l 721 1115 q 675 1085 708 1085 q 617 1108 642 1085 l 494 1221 l 371 1108 m 354 325 l 615 325 l 493 732 l 354 325 m 831 -14 q 753 10 782 -14 q 700 94 724 33 l 658 210 l 313 210 l 268 92 q 151 -14 231 -14 q 85 3 115 -14 q 43 47 54 21 q 108 138 79 63 l 408 906 q 363 974 389 953 q 463 1025 400 1025 q 553 994 526 1025 q 608 885 581 963 l 869 156 q 950 49 900 74 q 831 -14 918 -14 z "},"Ã":{"ha":976,"x_min":43,"x_max":950,"o":"m 261 1193 q 305 1290 261 1249 q 406 1331 349 1331 q 526 1292 463 1331 q 622 1254 589 1254 q 676 1275 654 1254 q 699 1333 697 1296 q 751 1265 751 1326 q 706 1164 751 1204 q 604 1124 660 1124 q 482 1163 549 1124 q 388 1201 415 1201 q 338 1181 360 1201 q 314 1122 315 1160 q 277 1141 293 1124 q 261 1193 261 1158 m 354 325 l 615 325 l 493 732 l 354 325 m 831 -14 q 753 10 782 -14 q 700 94 724 33 l 658 210 l 313 210 l 268 92 q 151 -14 231 -14 q 85 3 115 -14 q 43 47 54 21 q 108 138 79 63 l 408 906 q 363 974 389 953 q 463 1025 400 1025 q 553 994 526 1025 q 608 885 581 963 l 869 156 q 950 49 900 74 q 831 -14 918 -14 z "},"Ä":{"ha":976,"x_min":43,"x_max":950,"o":"m 722 1226 q 722 1205 722 1226 q 687 1149 722 1185 q 610 1114 651 1114 q 546 1138 569 1114 q 522 1203 522 1163 q 558 1278 522 1243 q 635 1314 594 1314 q 699 1290 676 1314 q 722 1226 722 1267 m 467 1226 q 467 1205 467 1226 q 431 1149 467 1185 q 354 1114 396 1114 q 290 1138 313 1114 q 267 1203 267 1163 q 303 1278 267 1243 q 379 1314 339 1314 q 443 1290 419 1314 q 467 1226 467 1267 m 354 325 l 615 325 l 493 732 l 354 325 m 831 -14 q 753 10 782 -14 q 700 94 724 33 l 658 210 l 313 210 l 268 92 q 151 -14 231 -14 q 85 3 115 -14 q 43 47 54 21 q 108 138 79 63 l 408 906 q 363 974 389 953 q 463 1025 400 1025 q 553 994 526 1025 q 608 885 581 963 l 869 156 q 950 49 900 74 q 831 -14 918 -14 z "},"Å":{"ha":976,"x_min":43,"x_max":950,"o":"m 436 1244 q 501 1144 436 1144 q 553 1206 553 1144 q 551 1224 553 1214 q 488 1304 543 1304 q 436 1244 436 1304 m 603 1129 q 582 1113 603 1129 q 494 1096 560 1096 q 385 1129 429 1096 q 342 1224 342 1163 q 385 1319 342 1285 q 494 1353 429 1353 q 603 1319 560 1353 q 647 1224 647 1285 q 603 1129 647 1163 m 354 325 l 615 325 l 493 732 l 354 325 m 831 -14 q 753 10 782 -14 q 700 94 724 33 l 658 210 l 313 210 l 268 92 q 151 -14 231 -14 q 85 3 115 -14 q 43 47 54 21 q 108 138 79 63 l 408 906 q 363 974 389 953 q 463 1025 400 1025 q 553 994 526 1025 q 608 885 581 963 l 869 156 q 950 49 900 74 q 831 -14 918 -14 z "},"Æ":{"ha":1432,"x_min":21,"x_max":1349,"o":"m 635 378 l 635 858 l 400 378 l 635 378 m 892 146 l 1151 146 q 1304 203 1243 146 q 1349 118 1349 172 q 1306 32 1349 64 q 1179 0 1264 0 l 874 0 q 635 192 635 0 l 635 231 l 329 231 l 260 89 q 140 -8 213 -8 q 70 10 103 -8 q 21 56 38 28 q 60 84 43 65 q 96 143 76 103 l 479 896 q 552 985 511 957 q 663 1013 593 1013 l 1168 1013 q 1349 914 1349 1013 q 1304 836 1349 864 q 1151 865 1247 865 l 815 865 l 815 607 l 1046 607 q 1185 588 1144 607 q 1225 520 1225 569 q 1185 443 1225 471 q 1032 461 1140 461 l 815 461 l 815 218 q 833 163 815 181 q 892 146 851 146 z "},"Ç":{"ha":993,"x_min":88,"x_max":899,"o":"m 88 492 q 221 879 88 733 q 571 1025 354 1025 q 801 969 706 1025 q 896 835 896 914 q 860 758 896 783 q 774 732 825 732 q 686 753 722 732 q 689 788 689 771 q 658 877 689 839 q 549 915 626 915 q 358 810 439 915 q 278 515 278 704 q 359 237 278 326 q 582 147 440 147 q 740 185 665 147 q 858 274 814 222 q 888 247 876 269 q 899 203 899 225 q 797 63 899 133 q 553 -14 694 -8 l 525 -89 l 533 -89 q 654 -119 608 -89 q 700 -212 700 -150 q 633 -317 700 -274 q 465 -360 565 -360 q 303 -324 365 -360 q 240 -240 240 -287 q 267 -193 240 -210 q 435 -274 325 -274 q 544 -210 544 -274 q 457 -150 544 -150 l 431 -150 q 397 -125 397 -150 q 403 -99 397 -114 l 438 -6 q 181 156 274 25 q 88 492 88 286 z "},"È":{"ha":954,"x_min":117,"x_max":871,"o":"m 447 1115 l 540 1264 q 609 1349 576 1324 q 690 1375 642 1375 q 764 1332 739 1375 q 775 1285 775 1310 q 764 1235 775 1261 q 726 1239 750 1239 q 668 1211 703 1239 l 549 1108 q 493 1085 524 1085 q 447 1115 463 1085 m 429 146 l 675 146 q 828 203 767 146 q 871 119 871 174 q 829 32 871 64 q 703 0 788 0 l 406 0 q 219 53 279 0 q 160 224 160 106 l 160 875 q 117 956 160 935 q 238 1013 163 1013 l 692 1013 q 871 914 871 1013 q 828 836 871 864 q 675 865 771 865 l 339 865 l 339 607 l 569 607 q 708 588 668 607 q 749 520 749 569 q 708 443 749 471 q 556 461 664 461 l 339 461 l 339 243 q 360 169 339 192 q 429 146 382 146 z "},"É":{"ha":954,"x_min":117,"x_max":871,"o":"m 600 1115 q 555 1085 585 1085 q 497 1107 525 1085 l 372 1204 q 315 1229 339 1229 q 276 1224 292 1229 q 264 1275 264 1251 q 275 1319 264 1299 q 347 1365 299 1365 q 428 1342 396 1365 q 499 1260 461 1318 l 600 1115 m 429 146 l 675 146 q 828 203 767 146 q 871 119 871 174 q 829 32 871 64 q 703 0 788 0 l 406 0 q 219 53 279 0 q 160 224 160 106 l 160 875 q 117 956 160 935 q 238 1013 163 1013 l 692 1013 q 871 914 871 1013 q 828 836 871 864 q 675 865 771 865 l 339 865 l 339 607 l 569 607 q 708 588 668 607 q 749 520 749 569 q 708 443 749 471 q 556 461 664 461 l 339 461 l 339 243 q 360 169 339 192 q 429 146 382 146 z "},"Ê":{"ha":954,"x_min":117,"x_max":871,"o":"m 378 1108 q 319 1085 353 1085 q 274 1115 286 1085 l 372 1261 q 431 1331 404 1310 q 501 1351 458 1351 q 570 1330 543 1351 q 629 1261 597 1308 l 728 1115 q 682 1085 715 1085 q 624 1108 649 1085 l 501 1221 l 378 1108 m 429 146 l 675 146 q 828 203 767 146 q 871 119 871 174 q 829 32 871 64 q 703 0 788 0 l 406 0 q 219 53 279 0 q 160 224 160 106 l 160 875 q 117 956 160 935 q 238 1013 163 1013 l 692 1013 q 871 914 871 1013 q 828 836 871 864 q 675 865 771 865 l 339 865 l 339 607 l 569 607 q 708 588 668 607 q 749 520 749 569 q 708 443 749 471 q 556 461 664 461 l 339 461 l 339 243 q 360 169 339 192 q 429 146 382 146 z "},"Ë":{"ha":954,"x_min":117,"x_max":871,"o":"m 729 1226 q 729 1205 729 1226 q 694 1149 729 1185 q 617 1114 658 1114 q 553 1138 576 1114 q 529 1203 529 1163 q 565 1278 529 1243 q 642 1314 601 1314 q 706 1290 683 1314 q 729 1226 729 1267 m 474 1226 q 474 1205 474 1226 q 438 1149 474 1185 q 361 1114 403 1114 q 297 1138 319 1114 q 274 1203 274 1163 q 310 1278 274 1243 q 386 1314 346 1314 q 450 1290 426 1314 q 474 1226 474 1267 m 429 146 l 675 146 q 828 203 767 146 q 871 119 871 174 q 829 32 871 64 q 703 0 788 0 l 406 0 q 219 53 279 0 q 160 224 160 106 l 160 875 q 117 956 160 935 q 238 1013 163 1013 l 692 1013 q 871 914 871 1013 q 828 836 871 864 q 675 865 771 865 l 339 865 l 339 607 l 569 607 q 708 588 668 607 q 749 520 749 569 q 708 443 749 471 q 556 461 664 461 l 339 461 l 339 243 q 360 169 339 192 q 429 146 382 146 z "},"Ì":{"ha":472,"x_min":104,"x_max":511,"o":"m 276 1264 q 345 1349 313 1324 q 426 1375 378 1375 q 500 1332 475 1375 q 511 1285 511 1310 q 500 1235 511 1261 q 463 1239 486 1239 q 404 1211 439 1239 l 285 1108 q 232 1085 260 1085 q 183 1115 199 1085 l 276 1264 m 325 888 l 325 121 q 367 40 325 60 q 260 -14 324 -14 q 146 125 146 -14 l 146 892 q 104 971 146 953 q 210 1025 144 1025 q 325 888 325 1025 z "},"Í":{"ha":472,"x_min":0,"x_max":367,"o":"m 336 1115 q 291 1085 321 1085 q 233 1107 261 1085 l 108 1204 q 51 1229 75 1229 q 13 1224 28 1229 q 0 1275 0 1251 q 11 1319 0 1299 q 83 1365 35 1365 q 165 1342 132 1365 q 235 1260 197 1318 l 336 1115 m 325 888 l 325 121 q 367 40 325 60 q 260 -14 324 -14 q 146 125 146 -14 l 146 892 q 104 971 146 953 q 210 1025 144 1025 q 325 888 325 1025 z "},"Î":{"ha":472,"x_min":8,"x_max":463,"o":"m 325 888 l 325 121 q 367 40 325 60 q 260 -14 324 -14 q 146 125 146 -14 l 146 892 q 104 971 146 953 q 210 1025 144 1025 q 325 888 325 1025 m 463 1115 q 417 1085 450 1085 q 358 1108 383 1085 l 236 1221 l 113 1108 q 54 1085 88 1085 q 8 1115 21 1085 l 107 1261 q 166 1331 139 1310 q 235 1351 193 1351 q 305 1330 278 1351 q 364 1261 332 1308 l 463 1115 z "},"Ï":{"ha":472,"x_min":8,"x_max":464,"o":"m 377 1314 q 398 1314 377 1314 q 441 1290 418 1314 q 464 1226 464 1267 q 428 1149 464 1185 q 352 1114 393 1114 q 288 1138 311 1114 q 264 1203 264 1163 q 300 1278 264 1243 q 377 1314 336 1314 m 121 1314 q 141 1314 121 1314 q 185 1290 161 1314 q 208 1226 208 1267 q 173 1149 208 1185 q 96 1114 138 1114 q 31 1138 54 1114 q 8 1203 8 1163 q 44 1278 8 1243 q 121 1314 81 1314 m 325 888 l 325 121 q 367 40 325 60 q 260 -14 324 -14 q 146 125 146 -14 l 146 892 q 104 971 146 953 q 210 1025 144 1025 q 325 888 325 1025 z "},"Ð":{"ha":1119,"x_min":7,"x_max":1000,"o":"m 321 457 l 321 197 q 350 132 321 153 q 467 111 379 111 q 717 216 621 111 q 813 505 813 321 q 717 794 813 689 q 467 900 621 900 q 322 876 397 900 l 322 560 l 586 560 q 592 536 592 554 q 475 457 592 457 l 321 457 m 142 560 l 142 838 q 110 963 142 914 q 467 1025 289 1025 q 849 890 699 1025 q 1000 504 1000 754 q 928 218 1000 338 q 467 -14 786 -14 q 215 39 290 -14 q 140 207 140 92 l 140 457 l 13 457 q 7 483 7 465 q 124 560 7 560 l 142 560 z "},"Ñ":{"ha":1143,"x_min":110,"x_max":1032,"o":"m 483 1331 q 512 1331 483 1331 q 603 1292 540 1331 q 699 1254 667 1254 q 753 1275 732 1254 q 776 1333 775 1296 q 829 1265 829 1326 q 783 1164 829 1204 q 682 1124 738 1124 q 560 1163 626 1124 q 465 1201 493 1201 q 415 1181 438 1201 q 392 1122 393 1160 q 355 1141 371 1124 q 339 1193 339 1158 q 383 1290 339 1249 q 483 1331 426 1331 m 151 125 l 151 892 q 110 971 151 953 q 232 1025 153 1025 q 406 914 336 1025 l 824 233 l 824 892 q 782 971 824 953 q 889 1025 822 1025 q 1004 888 1004 1025 l 1004 121 q 1032 26 1004 58 q 928 -14 996 -14 q 809 27 861 -14 q 697 164 757 68 l 332 754 l 332 121 q 372 40 332 61 q 267 -14 329 -14 q 151 125 151 -14 z "},"Ò":{"ha":1089,"x_min":94,"x_max":994,"o":"m 586 1264 q 655 1349 622 1324 q 736 1375 688 1375 q 808 1332 785 1375 q 821 1285 821 1310 q 810 1235 821 1261 q 772 1239 796 1239 q 714 1211 749 1239 l 594 1108 q 542 1085 569 1085 q 493 1115 508 1085 l 586 1264 m 367 211 q 571 104 443 104 q 761 218 699 104 q 813 454 813 313 q 722 801 813 676 q 519 908 647 908 q 329 794 390 908 q 278 557 278 700 q 367 211 278 335 m 881 883 q 938 813 881 883 q 994 507 994 742 q 881 129 994 272 q 547 -14 767 -14 q 210 130 326 -14 q 94 506 94 274 q 211 882 94 739 q 548 1025 328 1025 q 881 883 768 1025 z "},"Ó":{"ha":1089,"x_min":94,"x_max":994,"o":"m 367 211 q 571 104 443 104 q 761 218 699 104 q 813 454 813 313 q 722 801 813 676 q 519 908 647 908 q 329 794 390 908 q 278 557 278 700 q 367 211 278 335 m 881 883 q 938 813 881 883 q 994 507 994 742 q 881 129 994 272 q 547 -14 767 -14 q 210 130 326 -14 q 94 506 94 274 q 211 882 94 739 q 548 1025 328 1025 q 881 883 768 1025 m 644 1115 q 599 1085 629 1085 q 542 1107 569 1085 l 417 1204 q 360 1229 383 1229 q 321 1224 336 1229 q 308 1275 308 1251 q 319 1319 308 1299 q 392 1365 343 1365 q 473 1342 440 1365 q 543 1260 506 1318 l 644 1115 z "},"Ô":{"ha":1089,"x_min":94,"x_max":994,"o":"m 422 1108 q 364 1085 397 1085 q 318 1115 331 1085 l 417 1261 q 476 1331 449 1310 q 545 1351 503 1351 q 615 1330 588 1351 q 674 1261 642 1308 l 772 1115 q 726 1085 760 1085 q 668 1108 693 1085 l 546 1221 l 422 1108 m 367 211 q 571 104 443 104 q 761 218 699 104 q 813 454 813 313 q 722 801 813 676 q 519 908 647 908 q 329 794 390 908 q 278 557 278 700 q 367 211 278 335 m 94 506 q 94 623 94 506 q 211 882 94 739 q 548 1025 328 1025 q 881 883 768 1025 q 994 507 994 742 q 881 129 994 272 q 547 -14 767 -14 q 210 130 326 -14 q 94 506 94 274 z "},"Õ":{"ha":1089,"x_min":94,"x_max":994,"o":"m 457 1331 q 485 1331 457 1331 q 577 1292 514 1331 q 673 1254 640 1254 q 727 1275 706 1254 q 750 1333 749 1296 q 803 1265 803 1326 q 757 1164 803 1204 q 656 1124 711 1124 q 533 1163 600 1124 q 439 1201 467 1201 q 389 1181 411 1201 q 365 1122 367 1160 q 328 1141 344 1124 q 313 1193 313 1158 q 356 1290 313 1249 q 457 1331 400 1331 m 367 211 q 571 104 443 104 q 761 218 699 104 q 813 454 813 313 q 722 801 813 676 q 519 908 647 908 q 329 794 390 908 q 278 557 278 700 q 367 211 278 335 m 881 883 q 938 813 881 883 q 994 507 994 742 q 881 129 994 272 q 547 -14 767 -14 q 210 130 326 -14 q 94 506 94 274 q 211 882 94 739 q 548 1025 328 1025 q 881 883 768 1025 z "},"Ö":{"ha":1089,"x_min":94,"x_max":994,"o":"m 367 211 q 571 104 443 104 q 761 218 699 104 q 813 454 813 313 q 722 801 813 676 q 519 908 647 908 q 329 794 390 908 q 278 557 278 700 q 367 211 278 335 m 881 883 q 938 813 881 883 q 994 507 994 742 q 881 129 994 272 q 547 -14 767 -14 q 210 130 326 -14 q 94 506 94 274 q 211 882 94 739 q 548 1025 328 1025 q 881 883 768 1025 m 687 1314 q 707 1314 687 1314 q 751 1290 728 1314 q 774 1226 774 1267 q 738 1149 774 1185 q 662 1114 703 1114 q 597 1138 621 1114 q 574 1203 574 1163 q 610 1278 574 1243 q 687 1314 646 1314 m 431 1314 q 451 1314 431 1314 q 494 1290 471 1314 q 518 1226 518 1267 q 483 1149 518 1185 q 406 1114 447 1114 q 341 1138 364 1114 q 318 1203 318 1163 q 354 1278 318 1243 q 431 1314 390 1314 z "},"×":{"ha":999,"x_min":118,"x_max":879,"o":"m 782 204 q 642 296 722 204 l 481 481 l 283 254 q 199 200 238 200 q 142 238 161 200 l 417 553 l 118 890 q 162 937 133 921 q 218 953 190 953 q 275 935 246 953 q 318 904 304 918 q 357 861 332 890 l 522 675 l 717 899 q 803 953 767 953 q 860 918 839 953 l 585 601 l 879 265 q 838 220 865 236 q 782 204 810 204 z "},"Ø":{"ha":1125,"x_min":67,"x_max":1069,"o":"m 365 215 q 570 106 442 106 q 761 219 699 106 q 813 456 813 314 q 781 683 813 583 l 365 215 m 518 910 q 329 796 390 910 q 278 558 278 701 q 324 293 278 403 l 746 768 q 518 910 667 910 m 994 508 q 881 131 994 274 q 546 -12 767 -12 q 253 89 368 -12 l 210 40 q 119 -14 161 -14 q 67 31 76 -14 q 163 113 110 53 l 196 150 q 94 513 94 286 q 211 883 94 740 q 538 1026 328 1026 q 865 903 749 1026 l 926 971 q 1017 1025 972 1025 q 1069 982 1061 1025 q 972 900 1031 961 l 915 836 q 994 508 994 708 z "},"Ù":{"ha":1024,"x_min":92,"x_max":932,"o":"m 574 1264 q 642 1349 610 1324 q 724 1375 675 1375 q 797 1332 772 1375 q 808 1285 808 1310 q 797 1235 808 1261 q 760 1239 783 1239 q 701 1211 736 1239 l 582 1108 q 529 1085 557 1085 q 481 1115 496 1085 l 574 1264 m 135 363 l 135 892 q 92 971 135 953 q 197 1025 135 1025 q 314 888 314 1025 l 314 338 q 372 179 314 233 q 533 125 429 125 q 695 178 638 125 q 753 338 753 232 l 753 892 q 710 971 753 953 q 817 1025 753 1025 q 932 888 932 1025 l 932 363 q 834 86 932 186 q 534 -14 736 -14 q 233 86 332 -14 q 135 363 135 186 z "},"Ú":{"ha":1024,"x_min":92,"x_max":932,"o":"m 135 363 l 135 892 q 92 971 135 953 q 197 1025 135 1025 q 314 888 314 1025 l 314 338 q 372 179 314 233 q 533 125 429 125 q 695 178 638 125 q 753 338 753 232 l 753 892 q 710 971 753 953 q 817 1025 753 1025 q 932 888 932 1025 l 932 363 q 834 86 932 186 q 534 -14 736 -14 q 233 86 332 -14 q 135 363 135 186 m 632 1115 q 587 1085 617 1085 q 529 1107 557 1085 l 404 1204 q 347 1229 371 1229 q 308 1224 324 1229 q 296 1275 296 1251 q 307 1319 296 1299 q 379 1365 331 1365 q 460 1342 428 1365 q 531 1260 493 1318 l 632 1115 z "},"Û":{"ha":1024,"x_min":92,"x_max":932,"o":"m 410 1108 q 351 1085 385 1085 q 306 1115 318 1085 l 404 1261 q 463 1331 436 1310 q 533 1351 490 1351 q 602 1330 575 1351 q 661 1261 629 1308 l 760 1115 q 714 1085 747 1085 q 656 1108 681 1085 l 533 1221 l 410 1108 m 753 338 l 753 892 q 710 971 753 953 q 817 1025 753 1025 q 932 888 932 1025 l 932 363 q 834 86 932 186 q 534 -14 736 -14 q 233 86 332 -14 q 135 363 135 186 l 135 892 q 92 971 135 953 q 197 1025 135 1025 q 314 888 314 1025 l 314 338 q 372 179 314 233 q 533 125 429 125 q 695 178 638 125 q 753 338 753 232 z "},"Ü":{"ha":1024,"x_min":92,"x_max":932,"o":"m 135 363 l 135 892 q 92 971 135 953 q 197 1025 135 1025 q 314 888 314 1025 l 314 338 q 372 179 314 233 q 533 125 429 125 q 695 178 638 125 q 753 338 753 232 l 753 892 q 710 971 753 953 q 817 1025 753 1025 q 932 888 932 1025 l 932 363 q 834 86 932 186 q 534 -14 736 -14 q 233 86 332 -14 q 135 363 135 186 m 674 1314 q 695 1314 674 1314 q 738 1290 715 1314 q 761 1226 761 1267 q 726 1149 761 1185 q 649 1114 690 1114 q 585 1138 608 1114 q 561 1203 561 1163 q 597 1278 561 1243 q 674 1314 633 1314 m 418 1314 q 438 1314 418 1314 q 482 1290 458 1314 q 506 1226 506 1267 q 470 1149 506 1185 q 393 1114 435 1114 q 328 1138 351 1114 q 306 1203 306 1163 q 342 1278 306 1243 q 418 1314 378 1314 z "},"Ý":{"ha":879,"x_min":14,"x_max":858,"o":"m 549 1115 q 503 1085 533 1085 q 446 1107 474 1085 l 321 1204 q 264 1229 288 1229 q 225 1224 240 1229 q 213 1275 213 1251 q 224 1319 213 1299 q 296 1365 247 1365 q 377 1342 344 1365 q 447 1260 410 1318 l 549 1115 m 556 13 q 460 -10 511 -10 q 381 26 410 -10 q 353 132 353 61 l 354 442 l 99 874 q 14 931 64 926 q 133 1025 43 1025 q 211 997 178 1025 q 276 914 244 968 l 457 607 l 639 863 q 671 935 671 901 q 643 999 671 969 q 748 1025 699 1025 q 828 1000 797 1025 q 858 931 858 975 q 818 831 858 886 l 532 444 l 531 114 q 556 13 531 51 z "},"Þ":{"ha":917,"x_min":104,"x_max":883,"o":"m 325 388 q 496 358 408 358 q 641 410 583 358 q 699 547 699 461 q 641 684 699 633 q 495 735 583 735 q 325 704 407 735 l 325 388 m 325 888 l 325 817 q 528 856 421 856 q 780 770 676 856 q 883 547 883 685 q 780 323 883 408 q 528 238 676 238 q 325 276 421 238 l 325 121 q 367 40 325 60 q 260 -14 324 -14 q 146 125 146 -14 l 146 892 q 104 971 146 953 q 210 1025 144 1025 q 325 888 325 1025 z "},"ß":{"ha":867,"x_min":93,"x_max":808,"o":"m 808 256 q 737 62 808 138 q 551 -14 665 -14 q 433 20 474 -14 q 393 100 393 54 q 401 136 393 117 q 498 108 440 108 q 589 140 556 108 q 622 224 622 172 q 599 315 622 276 q 517 401 576 353 q 392 515 403 500 q 381 539 381 529 q 401 568 381 549 q 444 610 421 588 q 488 674 468 632 q 508 772 508 717 q 475 864 508 828 q 391 900 442 900 q 306 861 340 900 q 272 740 272 822 l 272 121 q 314 40 272 61 q 207 -14 271 -14 q 93 125 93 -14 l 93 740 q 177 939 93 869 q 397 1008 261 1008 q 613 939 532 1008 q 694 769 694 869 q 569 568 694 649 l 638 519 q 808 256 808 403 z "},"à":{"ha":768,"x_min":63,"x_max":731,"o":"m 339 821 l 432 969 q 501 1055 468 1029 q 582 1081 533 1081 q 656 1038 631 1081 q 667 991 667 1015 q 656 940 667 967 q 618 944 642 944 q 560 917 594 944 l 440 814 q 385 790 415 790 q 339 821 354 790 m 257 185 q 347 106 257 106 q 479 175 422 106 l 479 322 q 310 278 363 315 q 257 185 257 240 m 658 493 l 658 157 q 731 57 658 75 q 600 -14 685 -14 q 483 85 501 -14 q 268 -14 400 -14 q 119 33 176 -14 q 63 165 63 81 q 171 333 63 269 q 479 400 279 397 l 479 514 q 383 635 479 635 q 315 613 340 635 q 290 558 290 590 q 311 503 290 525 q 211 463 268 463 q 125 490 154 463 q 96 563 96 518 q 183 683 96 635 q 391 732 271 732 q 585 673 511 732 q 658 493 658 614 z "},"á":{"ha":768,"x_min":63,"x_max":731,"o":"m 492 821 q 447 790 476 790 q 389 813 417 790 l 264 910 q 207 935 231 935 q 168 929 183 935 q 156 981 156 957 q 167 1025 156 1004 q 239 1071 190 1071 q 320 1047 288 1071 q 390 965 353 1024 l 492 821 m 257 185 q 347 106 257 106 q 479 175 422 106 l 479 322 q 310 278 363 315 q 257 185 257 240 m 658 493 l 658 157 q 731 57 658 75 q 600 -14 685 -14 q 483 85 501 -14 q 268 -14 400 -14 q 119 33 176 -14 q 63 165 63 81 q 171 333 63 269 q 479 400 279 397 l 479 514 q 383 635 479 635 q 315 613 340 635 q 290 558 290 590 q 311 503 290 525 q 211 463 268 463 q 125 490 154 463 q 96 563 96 518 q 183 683 96 635 q 391 732 271 732 q 585 673 511 732 q 658 493 658 614 z "},"â":{"ha":768,"x_min":63,"x_max":731,"o":"m 269 814 q 211 790 244 790 q 165 821 178 790 l 264 967 q 323 1036 296 1015 q 392 1057 350 1057 q 462 1035 435 1057 q 521 967 489 1014 l 619 821 q 574 790 607 790 q 515 814 540 790 l 393 926 l 269 814 m 257 185 q 347 106 257 106 q 479 175 422 106 l 479 322 q 310 278 363 315 q 257 185 257 240 m 658 493 l 658 157 q 731 57 658 75 q 600 -14 685 -14 q 483 85 501 -14 q 268 -14 400 -14 q 119 33 176 -14 q 63 165 63 81 q 171 333 63 269 q 479 400 279 397 l 479 514 q 383 635 479 635 q 315 613 340 635 q 290 558 290 590 q 311 503 290 525 q 211 463 268 463 q 125 490 154 463 q 96 563 96 518 q 183 683 96 635 q 391 732 271 732 q 585 673 511 732 q 658 493 658 614 z "},"ã":{"ha":768,"x_min":63,"x_max":731,"o":"m 160 899 q 203 995 160 954 q 304 1036 247 1036 q 424 998 361 1036 q 520 960 488 960 q 574 981 553 960 q 597 1039 596 1001 q 650 971 650 1032 q 604 869 650 910 q 503 829 558 829 q 381 868 447 829 q 286 907 314 907 q 236 886 258 907 q 213 828 214 865 q 176 847 192 829 q 160 899 160 864 m 257 185 q 347 106 257 106 q 479 175 422 106 l 479 322 q 310 278 363 315 q 257 185 257 240 m 658 493 l 658 157 q 731 57 658 75 q 600 -14 685 -14 q 483 85 501 -14 q 268 -14 400 -14 q 119 33 176 -14 q 63 165 63 81 q 171 333 63 269 q 479 400 279 397 l 479 514 q 383 635 479 635 q 315 613 340 635 q 290 558 290 590 q 311 503 290 525 q 211 463 268 463 q 125 490 154 463 q 96 563 96 518 q 183 683 96 635 q 391 732 271 732 q 585 673 511 732 q 658 493 658 614 z "},"ä":{"ha":768,"x_min":63,"x_max":731,"o":"m 619 931 q 619 911 619 931 q 584 855 619 890 q 508 819 549 819 q 443 844 467 819 q 419 908 419 868 q 456 984 419 949 q 533 1019 492 1019 q 597 996 574 1019 q 619 931 619 972 m 364 931 q 364 911 364 931 q 328 855 364 890 q 251 819 293 819 q 187 844 210 819 q 164 908 164 868 q 200 984 164 949 q 276 1019 236 1019 q 340 996 317 1019 q 364 931 364 972 m 257 185 q 347 106 257 106 q 479 175 422 106 l 479 322 q 310 278 363 315 q 257 185 257 240 m 658 493 l 658 157 q 731 57 658 75 q 600 -14 685 -14 q 483 85 501 -14 q 268 -14 400 -14 q 119 33 176 -14 q 63 165 63 81 q 171 333 63 269 q 479 400 279 397 l 479 514 q 383 635 479 635 q 315 613 340 635 q 290 558 290 590 q 311 503 290 525 q 211 463 268 463 q 125 490 154 463 q 96 563 96 518 q 183 683 96 635 q 391 732 271 732 q 585 673 511 732 q 658 493 658 614 z "},"å":{"ha":768,"x_min":63,"x_max":731,"o":"m 333 950 q 399 850 333 850 q 450 911 450 850 q 449 929 450 919 q 385 1010 440 1010 q 333 950 333 1010 m 501 835 q 479 818 501 835 q 392 801 457 801 q 283 835 326 801 q 239 929 239 868 q 283 1024 239 990 q 392 1058 326 1058 q 501 1024 457 1058 q 544 929 544 990 q 501 835 544 868 m 310 278 q 283 259 310 278 q 257 185 257 240 q 347 106 257 106 q 479 175 422 106 l 479 322 q 310 278 363 315 m 658 493 l 658 157 q 731 57 658 75 q 600 -14 685 -14 q 483 85 501 -14 q 268 -14 400 -14 q 119 33 176 -14 q 63 165 63 81 q 171 333 63 269 q 479 400 279 397 l 479 514 q 383 635 479 635 q 315 613 340 635 q 290 558 290 590 q 311 503 290 525 q 211 463 268 463 q 125 490 154 463 q 96 563 96 518 q 183 683 96 635 q 391 732 271 732 q 585 673 511 732 q 658 493 658 614 z "},"æ":{"ha":1129,"x_min":63,"x_max":1085,"o":"m 846 447 q 885 464 872 450 q 899 519 899 478 q 874 595 899 560 q 803 631 850 631 q 716 578 756 631 q 664 429 676 526 l 846 447 m 257 185 q 346 106 257 106 q 500 192 435 106 q 479 322 479 250 q 310 278 363 315 q 257 185 257 240 m 850 115 q 1042 197 964 115 q 1068 147 1068 185 q 994 38 1068 89 q 821 -14 921 -14 q 543 110 632 -14 q 293 -14 440 -14 q 126 33 189 -14 q 63 165 63 81 q 171 333 63 269 q 479 400 279 397 l 479 514 q 383 635 479 635 q 315 613 340 635 q 290 558 290 590 q 311 503 290 525 q 211 463 268 463 q 125 490 154 463 q 96 563 96 518 q 182 683 96 635 q 376 732 268 732 q 600 636 532 732 q 817 732 696 732 q 1011 658 938 732 q 1085 488 1085 583 q 1048 383 1085 415 q 926 349 1011 350 l 660 340 q 850 115 665 115 z "},"ç":{"ha":710,"x_min":68,"x_max":654,"o":"m 68 329 q 173 615 68 497 q 436 732 278 732 q 591 690 528 732 q 654 579 654 647 q 626 510 654 535 q 556 485 599 485 q 481 508 514 485 q 485 553 485 525 q 465 603 485 581 q 408 625 446 625 q 292 550 342 625 q 242 357 242 475 q 295 178 242 239 q 431 117 349 117 q 624 199 547 117 q 650 147 650 186 q 579 38 650 88 q 410 -14 508 -11 l 382 -89 l 390 -89 q 511 -119 465 -89 q 557 -212 557 -150 q 490 -317 557 -274 q 322 -360 422 -360 q 160 -324 222 -360 q 97 -240 97 -287 q 124 -193 97 -210 q 292 -274 182 -274 q 401 -210 401 -274 q 314 -150 401 -150 l 288 -150 q 253 -125 253 -150 q 260 -99 253 -114 l 296 -1 q 129 114 190 28 q 68 329 68 200 z "},"è":{"ha":718,"x_min":68,"x_max":679,"o":"m 351 821 l 444 969 q 513 1055 481 1029 q 594 1081 546 1081 q 667 1038 643 1081 q 679 991 679 1015 q 668 940 679 967 q 631 944 654 944 q 572 917 607 944 l 453 814 q 397 790 428 790 q 351 821 367 790 m 440 447 q 481 464 468 450 q 493 519 493 478 q 467 596 493 561 q 392 631 440 631 q 305 578 344 631 q 253 429 265 526 l 440 447 m 440 115 q 632 197 554 115 q 658 147 658 183 q 584 38 658 89 q 408 -14 510 -14 q 160 76 251 -14 q 68 333 68 167 q 169 616 68 500 q 415 732 269 732 q 601 658 528 732 q 674 488 674 583 q 638 383 674 415 q 517 349 601 350 l 249 340 q 440 115 254 115 z "},"é":{"ha":718,"x_min":68,"x_max":674,"o":"m 504 821 q 459 790 489 790 q 401 813 429 790 l 276 910 q 219 935 243 935 q 181 929 196 935 q 168 981 168 957 q 179 1025 168 1004 q 251 1071 203 1071 q 333 1047 300 1071 q 403 965 365 1024 l 504 821 m 440 447 q 481 464 468 450 q 493 519 493 478 q 467 596 493 561 q 392 631 440 631 q 305 578 344 631 q 253 429 265 526 l 440 447 m 440 115 q 632 197 554 115 q 658 147 658 183 q 584 38 658 89 q 408 -14 510 -14 q 160 76 251 -14 q 68 333 68 167 q 169 616 68 500 q 415 732 269 732 q 601 658 528 732 q 674 488 674 583 q 638 383 674 415 q 517 349 601 350 l 249 340 q 440 115 254 115 z "},"ê":{"ha":718,"x_min":68,"x_max":674,"o":"m 282 814 q 224 790 257 790 q 178 821 190 790 l 276 967 q 335 1036 308 1015 q 405 1057 363 1057 q 474 1035 447 1057 q 533 967 501 1014 l 632 821 q 586 790 619 790 q 528 814 553 790 l 406 926 l 282 814 m 440 447 q 481 464 468 450 q 493 519 493 478 q 467 596 493 561 q 392 631 440 631 q 305 578 344 631 q 253 429 265 526 l 440 447 m 440 115 q 632 197 554 115 q 658 147 658 183 q 584 38 658 89 q 408 -14 510 -14 q 160 76 251 -14 q 68 333 68 167 q 169 616 68 500 q 415 732 269 732 q 601 658 528 732 q 674 488 674 583 q 638 383 674 415 q 517 349 601 350 l 249 340 q 440 115 254 115 z "},"ë":{"ha":718,"x_min":68,"x_max":674,"o":"m 632 931 q 632 911 632 931 q 597 855 632 890 q 520 819 561 819 q 456 844 479 819 q 432 908 432 868 q 468 984 432 949 q 545 1019 504 1019 q 609 996 586 1019 q 632 931 632 972 m 376 931 q 376 911 376 931 q 341 855 376 890 q 264 819 306 819 q 199 844 222 819 q 176 908 176 868 q 213 984 176 949 q 289 1019 249 1019 q 353 996 329 1019 q 376 931 376 972 m 440 447 q 481 464 468 450 q 493 519 493 478 q 467 596 493 561 q 392 631 440 631 q 305 578 344 631 q 253 429 265 526 l 440 447 m 440 115 q 632 197 554 115 q 658 147 658 183 q 584 38 658 89 q 408 -14 510 -14 q 160 76 251 -14 q 68 333 68 167 q 169 616 68 500 q 415 732 269 732 q 601 658 528 732 q 674 488 674 583 q 638 383 674 415 q 517 349 601 350 l 249 340 q 440 115 254 115 z "},"ì":{"ha":404,"x_min":74,"x_max":478,"o":"m 243 969 q 312 1055 279 1029 q 393 1081 344 1081 q 467 1038 442 1081 q 478 991 478 1015 q 467 940 478 967 q 429 944 453 944 q 371 917 406 944 l 251 814 q 199 790 226 790 q 150 821 165 790 l 243 969 m 294 593 l 294 121 q 336 40 294 61 q 229 -14 293 -14 q 115 125 115 -14 l 115 597 q 74 679 115 658 q 179 732 114 732 q 294 593 294 732 z "},"í":{"ha":404,"x_min":-33,"x_max":336,"o":"m 294 593 l 294 121 q 336 40 294 61 q 229 -14 293 -14 q 115 125 115 -14 l 115 597 q 74 679 115 658 q 179 732 114 732 q 294 593 294 732 m 303 821 q 258 790 288 790 q 200 813 228 790 l 75 910 q 18 935 42 935 q -21 929 -6 935 q -33 981 -33 957 q -22 1025 -33 1004 q 50 1071 1 1071 q 131 1047 99 1071 q 201 965 164 1024 l 303 821 z "},"î":{"ha":404,"x_min":-24,"x_max":431,"o":"m 294 593 l 294 121 q 336 40 294 61 q 229 -14 293 -14 q 115 125 115 -14 l 115 597 q 74 679 115 658 q 179 732 114 732 q 294 593 294 732 m 431 821 q 385 790 418 790 q 326 814 351 790 l 204 926 l 81 814 q 22 790 56 790 q -24 821 -11 790 l 75 967 q 134 1036 107 1015 q 203 1057 161 1057 q 273 1035 246 1057 q 332 967 300 1014 l 431 821 z "},"ï":{"ha":404,"x_min":-25,"x_max":431,"o":"m 294 593 l 294 121 q 336 40 294 61 q 229 -14 293 -14 q 115 125 115 -14 l 115 597 q 74 679 115 658 q 179 732 114 732 q 294 593 294 732 m 344 1019 q 364 1019 344 1019 q 408 996 385 1019 q 431 931 431 972 q 395 855 431 890 q 319 819 360 819 q 254 844 278 819 q 231 908 231 868 q 267 984 231 949 q 344 1019 303 1019 m 88 1019 q 108 1019 88 1019 q 151 996 128 1019 q 175 931 175 972 q 140 855 175 890 q 63 819 104 819 q -2 844 21 819 q -25 908 -25 868 q 11 984 -25 949 q 88 1019 47 1019 z "},"ð":{"ha":829,"x_min":68,"x_max":761,"o":"m 433 81 q 579 304 579 81 q 578 360 579 331 q 396 638 557 638 q 250 415 250 638 q 251 360 250 389 q 433 81 271 81 m 263 794 q 246 835 246 817 q 268 875 246 854 q 347 914 290 896 l 393 928 q 283 1038 336 993 q 338 1072 303 1072 q 517 964 415 1072 l 699 1018 q 711 996 711 1011 q 694 944 719 965 q 641 913 667 921 q 608 901 615 904 q 576 892 600 899 q 709 645 657 783 q 761 388 761 507 q 729 190 761 269 q 644 67 697 110 q 415 -14 542 -14 q 166 83 264 -14 q 68 360 68 181 q 165 635 68 539 q 415 732 263 732 q 529 703 475 732 q 450 853 497 783 l 263 794 z "},"ñ":{"ha":861,"x_min":74,"x_max":794,"o":"m 204 899 q 248 995 204 954 q 349 1036 292 1036 q 469 998 406 1036 q 565 960 532 960 q 619 981 597 960 q 642 1039 640 1001 q 694 971 694 1032 q 649 869 694 910 q 547 829 603 829 q 425 868 492 829 q 331 907 358 907 q 281 886 303 907 q 257 828 258 865 q 220 847 236 829 q 204 899 204 864 m 753 486 l 753 121 q 794 40 753 61 q 688 -14 751 -14 q 574 125 574 -14 l 574 464 q 468 586 574 586 q 364 539 414 586 q 294 407 314 492 l 294 121 q 336 40 294 61 q 229 -14 293 -14 q 115 125 115 -14 l 115 597 q 74 679 115 658 q 179 732 114 732 q 294 593 294 732 l 294 578 q 397 691 331 650 q 552 732 464 732 q 697 669 640 732 q 753 486 753 607 z "},"ò":{"ha":829,"x_min":68,"x_max":761,"o":"m 454 969 q 523 1055 490 1029 q 604 1081 556 1081 q 678 1038 653 1081 q 689 991 689 1015 q 678 940 689 967 q 640 944 664 944 q 582 917 617 944 l 463 814 q 410 790 438 790 q 361 821 376 790 l 454 969 m 400 638 q 249 404 249 638 q 250 360 249 383 q 431 81 265 81 q 579 311 579 81 q 578 360 579 333 q 400 638 563 638 m 68 360 q 68 449 68 360 q 165 635 68 539 q 415 732 263 732 q 664 635 567 732 q 761 359 761 538 q 664 83 761 181 q 415 -14 567 -14 q 166 83 264 -14 q 68 360 68 181 z "},"ó":{"ha":829,"x_min":68,"x_max":761,"o":"m 400 638 q 249 404 249 638 q 250 360 249 383 q 431 81 265 81 q 579 311 579 81 q 578 360 579 333 q 400 638 563 638 m 68 360 q 68 449 68 360 q 165 635 68 539 q 415 732 263 732 q 664 635 567 732 q 761 359 761 538 q 664 83 761 181 q 415 -14 567 -14 q 166 83 264 -14 q 68 360 68 181 m 514 821 q 469 790 499 790 q 411 813 439 790 l 286 910 q 229 935 253 935 q 190 929 206 935 q 178 981 178 957 q 189 1025 178 1004 q 261 1071 213 1071 q 342 1047 310 1071 q 413 965 375 1024 l 514 821 z "},"ô":{"ha":829,"x_min":68,"x_max":761,"o":"m 292 814 q 233 790 267 790 q 188 821 200 790 l 286 967 q 345 1036 318 1015 q 415 1057 372 1057 q 484 1035 457 1057 q 543 967 511 1014 l 642 821 q 596 790 629 790 q 538 814 563 790 l 415 926 l 292 814 m 431 81 q 579 311 579 81 q 578 360 579 333 q 400 638 563 638 q 249 404 249 638 q 250 360 249 383 q 431 81 265 81 m 68 360 q 68 449 68 360 q 165 635 68 539 q 415 732 263 732 q 664 635 567 732 q 761 359 761 538 q 664 83 761 181 q 415 -14 567 -14 q 166 83 264 -14 q 68 360 68 181 z "},"õ":{"ha":829,"x_min":68,"x_max":761,"o":"m 326 1036 q 355 1036 326 1036 q 447 998 383 1036 q 542 960 510 960 q 597 981 575 960 q 619 1039 618 1001 q 672 971 672 1032 q 626 869 672 910 q 525 829 581 829 q 403 868 469 829 q 308 907 336 907 q 258 886 281 907 q 235 828 236 865 q 198 847 214 829 q 182 899 182 864 q 226 995 182 954 q 326 1036 269 1036 m 400 638 q 249 404 249 638 q 250 360 249 383 q 431 81 265 81 q 579 311 579 81 q 578 360 579 333 q 400 638 563 638 m 68 360 q 68 449 68 360 q 165 635 68 539 q 415 732 263 732 q 664 635 567 732 q 761 359 761 538 q 664 83 761 181 q 415 -14 567 -14 q 166 83 264 -14 q 68 360 68 181 z "},"ö":{"ha":829,"x_min":68,"x_max":761,"o":"m 400 638 q 249 404 249 638 q 250 360 249 383 q 431 81 265 81 q 579 311 579 81 q 578 360 579 333 q 400 638 563 638 m 68 360 q 68 449 68 360 q 165 635 68 539 q 415 732 263 732 q 664 635 567 732 q 761 359 761 538 q 664 83 761 181 q 415 -14 567 -14 q 166 83 264 -14 q 68 360 68 181 m 555 1019 q 575 1019 555 1019 q 619 996 596 1019 q 642 931 642 972 q 606 855 642 890 q 530 819 571 819 q 465 844 489 819 q 442 908 442 868 q 478 984 442 949 q 555 1019 514 1019 m 299 1019 q 319 1019 299 1019 q 363 996 339 1019 q 386 931 386 972 q 351 855 386 890 q 274 819 315 819 q 209 844 232 819 q 186 908 186 868 q 222 984 186 949 q 299 1019 258 1019 z "},"÷":{"ha":957,"x_min":67,"x_max":892,"o":"m 232 644 l 885 644 q 892 610 892 633 q 726 493 892 493 l 76 493 q 67 533 67 513 q 232 644 67 644 m 497 404 q 521 404 497 404 q 572 376 544 404 q 600 301 600 349 q 559 212 600 253 q 469 171 518 171 q 394 199 421 171 q 367 274 367 226 q 408 363 367 322 q 497 404 450 404 m 497 971 q 521 971 497 971 q 572 943 544 971 q 600 867 600 915 q 559 778 600 819 q 469 738 518 738 q 394 765 421 738 q 367 841 367 793 q 408 930 367 889 q 497 971 450 971 z "},"ø":{"ha":932,"x_min":49,"x_max":783,"o":"m 431 81 q 579 311 579 81 q 564 469 579 401 l 297 161 q 431 81 343 81 m 400 638 q 249 404 249 638 q 265 247 249 307 l 533 554 q 400 638 488 638 m 686 610 q 761 347 761 513 q 664 83 761 181 q 415 -14 567 -14 q 201 51 292 -14 l 192 40 q 99 -14 143 -14 q 49 26 56 -14 q 144 108 82 46 q 68 372 68 204 q 165 635 68 539 q 415 732 263 732 q 629 665 542 732 l 640 678 q 731 732 686 732 q 783 692 776 732 q 686 610 744 671 z "},"ù":{"ha":861,"x_min":74,"x_max":794,"o":"m 378 821 l 471 969 q 540 1055 507 1029 q 621 1081 572 1081 q 694 1038 669 1081 q 706 991 706 1015 q 694 940 706 967 q 657 944 681 944 q 599 917 633 944 l 479 814 q 424 790 454 790 q 378 821 393 790 m 753 593 l 753 121 q 794 40 753 61 q 688 -14 751 -14 q 575 103 581 -14 q 365 -14 501 -14 q 181 48 247 -14 q 115 232 115 110 l 115 597 q 74 679 115 658 q 179 732 114 732 q 294 593 294 732 l 294 249 q 417 126 294 126 q 574 247 528 126 l 574 597 q 532 679 574 658 q 638 732 575 732 q 753 593 753 732 z "},"ú":{"ha":861,"x_min":74,"x_max":794,"o":"m 531 821 q 485 790 515 790 q 428 813 456 790 l 303 910 q 246 935 269 935 q 207 929 222 935 q 194 981 194 957 q 206 1025 194 1004 q 278 1071 229 1071 q 359 1047 326 1071 q 429 965 392 1024 l 531 821 m 753 593 l 753 121 q 794 40 753 61 q 688 -14 751 -14 q 575 103 581 -14 q 365 -14 501 -14 q 181 48 247 -14 q 115 232 115 110 l 115 597 q 74 679 115 658 q 179 732 114 732 q 294 593 294 732 l 294 249 q 417 126 294 126 q 574 247 528 126 l 574 597 q 532 679 574 658 q 638 732 575 732 q 753 593 753 732 z "},"û":{"ha":861,"x_min":74,"x_max":794,"o":"m 308 814 q 250 790 283 790 q 204 821 217 790 l 303 967 q 362 1036 335 1015 q 431 1057 389 1057 q 501 1035 474 1057 q 560 967 528 1014 l 658 821 q 613 790 646 790 q 554 814 579 790 l 432 926 l 308 814 m 753 593 l 753 121 q 794 40 753 61 q 688 -14 751 -14 q 575 103 581 -14 q 365 -14 501 -14 q 181 48 247 -14 q 115 232 115 110 l 115 597 q 74 679 115 658 q 179 732 114 732 q 294 593 294 732 l 294 249 q 417 126 294 126 q 574 247 528 126 l 574 597 q 532 679 574 658 q 638 732 575 732 q 753 593 753 732 z "},"ü":{"ha":861,"x_min":74,"x_max":794,"o":"m 658 931 q 658 911 658 931 q 623 855 658 890 q 547 819 588 819 q 482 844 506 819 q 458 908 458 868 q 494 984 458 949 q 572 1019 531 1019 q 635 996 613 1019 q 658 931 658 972 m 403 931 q 403 911 403 931 q 367 855 403 890 q 290 819 332 819 q 226 844 249 819 q 203 908 203 868 q 239 984 203 949 q 315 1019 275 1019 q 379 996 356 1019 q 403 931 403 972 m 753 593 l 753 121 q 794 40 753 61 q 688 -14 751 -14 q 575 103 581 -14 q 365 -14 501 -14 q 181 48 247 -14 q 115 232 115 110 l 115 597 q 74 679 115 658 q 179 732 114 732 q 294 593 294 732 l 294 249 q 417 126 294 126 q 574 247 528 126 l 574 597 q 532 679 574 658 q 638 732 575 732 q 753 593 753 732 z "},"ý":{"ha":814,"x_min":39,"x_max":788,"o":"m 511 821 q 466 790 496 790 q 408 813 436 790 l 283 910 q 226 935 250 935 q 188 929 203 935 q 175 981 175 957 q 186 1025 175 1004 q 258 1071 210 1071 q 340 1047 307 1071 q 410 965 372 1024 l 511 821 m 601 590 q 615 656 615 625 q 599 710 615 686 q 688 732 635 732 q 772 683 740 732 q 788 627 788 660 q 771 553 788 594 l 497 -178 q 290 -362 428 -362 q 196 -332 232 -362 q 160 -258 160 -301 q 183 -183 160 -214 q 256 -212 215 -212 q 351 -131 322 -212 l 392 -14 q 385 -14 388 -14 q 304 19 342 -14 q 249 113 267 53 l 93 585 q 39 682 71 658 q 142 732 86 732 q 228 701 199 732 q 278 601 258 669 l 429 93 l 601 590 z "},"þ":{"ha":849,"x_min":74,"x_max":788,"o":"m 442 100 q 558 172 508 100 q 607 359 607 243 q 558 540 607 475 q 442 604 510 604 q 294 504 344 604 l 294 176 q 442 100 350 100 m 294 938 l 294 638 q 492 732 368 732 q 702 635 617 732 q 788 361 788 538 q 690 85 788 185 q 464 -14 592 -14 q 294 47 368 -14 l 294 -224 q 336 -306 294 -285 q 229 -360 293 -360 q 115 -221 115 -360 l 115 942 q 74 1022 115 1001 q 179 1076 114 1076 q 294 938 294 1076 z "},"ÿ":{"ha":814,"x_min":39,"x_max":788,"o":"m 639 931 q 639 911 639 931 q 603 855 639 890 q 527 819 568 819 q 463 844 486 819 q 439 908 439 868 q 475 984 439 949 q 552 1019 511 1019 q 616 996 593 1019 q 639 931 639 972 m 383 931 q 383 911 383 931 q 348 855 383 890 q 271 819 313 819 q 206 844 229 819 q 183 908 183 868 q 219 984 183 949 q 296 1019 256 1019 q 360 996 336 1019 q 383 931 383 972 m 601 590 q 615 656 615 625 q 599 710 615 686 q 688 732 635 732 q 772 683 740 732 q 788 627 788 660 q 771 553 788 594 l 497 -178 q 290 -362 428 -362 q 196 -332 232 -362 q 160 -258 160 -301 q 183 -183 160 -214 q 256 -212 215 -212 q 351 -131 322 -212 l 392 -14 q 385 -14 388 -14 q 304 19 342 -14 q 249 113 267 53 l 93 585 q 39 682 71 658 q 142 732 86 732 q 228 701 199 732 q 278 601 258 669 l 429 93 l 601 590 z "},"ı":{"ha":404,"x_min":74,"x_max":336,"o":"m 294 593 l 294 121 q 336 40 294 61 q 229 -14 293 -14 q 115 125 115 -14 l 115 597 q 74 679 115 658 q 179 732 114 732 q 294 593 294 732 z "},"Ł":{"ha":817,"x_min":15,"x_max":772,"o":"m 425 135 l 601 135 q 736 190 692 135 q 772 122 772 172 q 731 35 772 71 q 608 0 689 0 l 390 0 q 208 47 263 0 q 154 213 154 94 l 154 481 l 47 429 q 22 450 28 443 q 15 481 15 465 q 96 568 15 529 l 154 596 l 154 892 q 113 971 154 953 q 219 1025 153 1025 q 335 888 335 1025 l 335 683 l 499 763 q 515 744 506 761 q 524 710 524 726 q 450 625 524 661 l 335 569 l 335 232 q 356 158 335 181 q 425 135 378 135 z "},"ł":{"ha":535,"x_min":13,"x_max":522,"o":"m 522 697 q 449 613 522 649 l 349 564 l 349 121 q 390 40 349 61 q 283 -14 347 -14 q 169 125 169 -14 l 169 476 l 46 417 q 21 438 24 432 q 13 471 13 458 q 19 494 13 483 q 31 514 25 506 q 51 531 38 522 q 93 556 75 546 l 169 592 l 169 942 q 128 1024 169 1000 q 233 1076 168 1076 q 349 938 349 1076 l 349 679 l 497 750 q 514 732 501 749 q 522 697 522 714 z "},"Œ":{"ha":1546,"x_min":94,"x_max":1463,"o":"m 583 894 q 360 781 440 894 q 290 529 290 683 q 375 214 290 331 q 571 115 444 115 q 749 150 672 115 l 749 865 q 583 894 676 894 m 1021 146 l 1265 146 q 1418 203 1357 146 q 1463 119 1463 174 q 1420 32 1463 64 q 1293 0 1378 0 l 596 0 q 215 135 336 0 q 94 502 94 269 q 224 874 94 735 q 590 1013 354 1013 l 1282 1013 q 1463 914 1463 1013 q 1418 836 1463 863 q 1265 865 1364 865 l 929 865 l 929 607 l 1160 607 q 1299 588 1258 607 q 1340 520 1340 569 q 1299 443 1340 471 q 1146 461 1253 461 l 929 461 l 929 243 q 1021 146 929 146 z "},"œ":{"ha":1231,"x_min":68,"x_max":1188,"o":"m 954 447 q 1007 508 1007 454 q 980 596 1007 561 q 904 631 953 631 q 816 578 856 631 q 765 429 776 526 l 954 447 m 433 81 q 579 304 579 81 q 578 360 579 331 q 396 638 557 638 q 250 415 250 638 q 251 360 250 389 q 433 81 271 81 m 761 339 q 953 115 769 115 q 1144 197 1067 115 q 1171 147 1171 183 q 1097 38 1171 89 q 922 -14 1022 -14 q 664 89 754 -14 q 417 -14 569 -14 q 166 83 264 -14 q 68 360 68 181 q 165 635 68 539 q 424 732 263 732 q 681 611 586 732 q 928 732 779 732 q 1114 658 1040 732 q 1188 488 1188 583 q 1151 383 1188 415 q 1029 349 1114 350 l 761 339 z "},"Š":{"ha":944,"x_min":103,"x_max":875,"o":"m 601 1175 q 542 1106 569 1128 q 473 1085 515 1085 q 403 1106 431 1085 q 344 1175 376 1126 l 246 1322 q 292 1351 258 1351 q 350 1328 325 1351 l 474 1215 l 596 1328 q 654 1351 621 1351 q 700 1322 688 1351 l 601 1175 m 491 911 q 450 911 491 911 q 356 878 408 911 q 304 792 304 846 q 363 694 304 738 q 506 614 422 650 q 673 537 589 578 q 816 431 757 496 q 875 285 875 367 q 760 70 875 154 q 484 -14 646 -14 q 213 51 322 -14 q 103 217 103 115 q 138 301 103 269 q 225 333 172 333 q 319 294 278 333 q 286 215 286 261 q 340 136 286 169 q 485 103 393 103 q 637 144 578 103 q 696 247 696 186 q 637 353 696 308 q 494 434 578 399 q 327 508 411 469 q 184 609 243 547 q 125 751 125 671 q 233 952 125 876 q 496 1028 340 1028 q 749 970 651 1028 q 847 825 847 913 q 819 751 847 779 q 744 724 792 724 q 656 750 696 724 q 665 800 665 774 q 619 877 665 843 q 491 911 574 911 z "},"š":{"ha":718,"x_min":60,"x_max":665,"o":"m 488 881 q 428 812 456 833 q 359 790 401 790 q 290 811 317 790 q 231 881 263 832 l 132 1028 q 178 1057 144 1057 q 236 1033 211 1057 l 360 921 l 482 1033 q 540 1057 507 1057 q 586 1028 574 1057 l 488 881 m 376 632 q 352 632 376 632 q 299 611 328 632 q 271 556 271 590 q 312 492 271 522 q 410 438 353 463 q 526 384 468 413 q 624 310 583 356 q 665 207 665 264 q 576 49 665 113 q 359 -14 488 -14 q 145 35 231 -14 q 60 160 60 83 q 90 230 60 203 q 173 257 121 257 q 253 219 225 257 q 231 163 231 197 q 263 108 231 129 q 355 88 296 88 q 449 112 414 88 q 485 173 485 136 q 444 240 485 210 q 347 294 404 269 q 231 348 289 319 q 132 421 172 376 q 92 521 92 465 q 174 670 92 608 q 370 732 256 732 q 563 690 485 732 q 640 581 640 647 q 615 519 640 542 q 547 496 589 496 q 469 524 506 496 q 476 567 476 544 q 449 611 475 590 q 376 632 424 632 z "},"Ÿ":{"ha":879,"x_min":14,"x_max":858,"o":"m 676 1226 q 676 1205 676 1226 q 641 1149 676 1185 q 565 1114 606 1114 q 500 1138 524 1114 q 476 1203 476 1163 q 513 1278 476 1243 q 590 1314 549 1314 q 653 1290 631 1314 q 676 1226 676 1267 m 421 1226 q 421 1205 421 1226 q 385 1149 421 1185 q 308 1114 350 1114 q 244 1138 267 1114 q 221 1203 221 1163 q 257 1278 221 1243 q 333 1314 293 1314 q 397 1290 374 1314 q 421 1226 421 1267 m 556 13 q 460 -10 511 -10 q 381 26 410 -10 q 353 132 353 61 l 354 442 l 99 874 q 14 931 64 926 q 133 1025 43 1025 q 211 997 178 1025 q 276 914 244 968 l 457 607 l 639 863 q 671 935 671 901 q 643 999 671 969 q 748 1025 699 1025 q 828 1000 797 1025 q 858 931 858 975 q 818 831 858 886 l 532 444 l 531 114 q 556 13 531 51 z "},"Ž":{"ha":906,"x_min":53,"x_max":844,"o":"m 581 1175 q 522 1106 549 1128 q 452 1085 494 1085 q 383 1106 410 1085 q 324 1175 356 1126 l 225 1322 q 271 1351 238 1351 q 329 1328 304 1351 l 453 1215 l 575 1328 q 633 1351 600 1351 q 679 1322 667 1351 l 581 1175 m 844 117 q 638 0 844 0 l 231 0 q 103 40 153 0 q 53 149 53 81 q 133 297 53 218 l 671 871 q 271 839 472 839 q 69 954 69 839 q 100 1032 69 997 q 269 1013 158 1013 l 664 1013 q 791 972 740 1013 q 842 864 842 932 q 760 714 842 796 l 224 139 l 653 164 q 813 203 756 171 q 844 117 844 167 z "},"ž":{"ha":699,"x_min":69,"x_max":640,"o":"m 478 881 q 419 812 446 833 q 349 790 392 790 q 280 811 307 790 q 221 881 253 832 l 122 1028 q 168 1057 135 1057 q 226 1033 201 1057 l 350 921 l 472 1033 q 531 1057 497 1057 q 576 1028 564 1057 l 478 881 m 635 96 q 471 0 635 0 l 221 0 q 109 35 149 0 q 69 125 69 69 q 132 239 69 181 l 486 590 q 256 569 354 569 q 119 598 157 569 q 81 665 81 626 q 104 732 81 704 q 240 718 163 718 l 490 718 q 601 683 563 718 q 640 594 640 649 q 578 479 640 540 l 224 126 l 474 138 q 610 175 564 142 q 635 96 635 149 z "},"ƒ":{"ha":731,"x_min":-125,"x_max":692,"o":"m 268 781 q 367 962 297 899 q 522 1025 436 1025 q 649 992 607 1025 q 692 918 692 958 q 665 851 692 878 q 567 904 625 904 q 449 786 479 904 l 418 664 l 603 664 q 608 643 608 654 q 557 577 608 607 q 401 547 506 547 l 389 547 l 224 -122 q -4 -362 165 -362 q -88 -333 -57 -362 q -125 -257 -119 -303 q -10 -224 -46 -257 q 46 -112 26 -192 l 210 547 q 137 568 161 549 q 113 617 113 588 q 142 672 113 647 q 232 664 174 664 l 239 664 l 268 781 z "},"ˆ":{"ha":488,"x_min":17,"x_max":471,"o":"m 471 821 q 425 790 458 790 q 367 814 392 790 l 244 926 l 121 814 q 63 790 96 790 q 17 821 29 790 l 115 967 q 174 1036 147 1015 q 244 1057 201 1057 q 313 1035 286 1057 q 372 967 340 1014 l 471 821 z "},"ˇ":{"ha":488,"x_min":17,"x_max":471,"o":"m 367 1033 q 425 1057 392 1057 q 471 1028 458 1057 l 372 881 q 313 812 340 833 q 244 790 286 790 q 174 811 201 790 q 115 881 147 832 l 17 1028 q 63 1057 29 1057 q 121 1033 96 1057 l 244 921 l 367 1033 z "},"˘":{"ha":515,"x_min":17,"x_max":499,"o":"m 354 1000 q 417 1008 385 1008 q 474 990 449 1008 q 499 943 499 972 q 435 856 499 893 q 258 818 371 818 q 81 856 144 818 q 17 943 17 893 q 41 990 17 972 q 98 1008 65 1008 q 161 1000 131 1008 q 258 882 161 882 q 354 1000 354 882 z "},"˙":{"ha":232,"x_min":17,"x_max":215,"o":"m 129 1032 q 149 1032 129 1032 q 192 1008 169 1032 q 215 943 215 983 q 180 867 215 903 q 104 832 144 832 q 40 856 64 832 q 17 920 17 881 q 53 996 17 960 q 129 1032 89 1032 z "},"˚":{"ha":339,"x_min":17,"x_max":322,"o":"m 111 950 q 176 850 111 850 q 228 911 228 850 q 226 929 228 919 q 163 1010 218 1010 q 111 950 111 1010 m 60 1024 q 82 1041 60 1024 q 169 1058 104 1058 q 278 1024 235 1058 q 322 929 322 990 q 278 835 322 868 q 169 801 235 801 q 60 835 104 801 q 17 929 17 868 q 60 1024 17 990 z "},"˛":{"ha":435,"x_min":17,"x_max":417,"o":"m 203 -185 q 288 -251 203 -251 q 406 -215 351 -251 q 417 -249 417 -229 q 361 -324 417 -290 q 219 -357 306 -357 q 74 -316 132 -357 q 17 -203 17 -275 q 96 -78 17 -131 q 307 -15 175 -25 l 307 -89 q 203 -185 203 -114 z "},"˜":{"ha":535,"x_min":22,"x_max":513,"o":"m 167 1036 q 195 1036 167 1036 q 287 998 224 1036 q 383 960 350 960 q 437 981 415 960 q 460 1039 458 1001 q 513 971 513 1032 q 467 869 513 910 q 365 829 421 829 q 243 868 310 829 q 149 907 176 907 q 99 886 121 907 q 75 828 76 865 q 38 847 54 829 q 22 899 22 864 q 66 995 22 954 q 167 1036 110 1036 z "},"˝":{"ha":500,"x_min":17,"x_max":483,"o":"m 233 986 q 183 951 207 986 l 94 815 q 60 792 81 792 q 17 814 39 792 l 63 968 q 108 1053 82 1029 q 170 1078 133 1078 q 225 1054 207 1078 q 243 1013 243 1031 q 242 986 243 994 q 233 986 238 986 m 465 972 q 406 936 436 972 l 294 814 q 249 792 274 792 q 208 821 224 792 l 282 967 q 344 1053 313 1028 q 415 1078 375 1078 q 475 1042 456 1078 q 483 1007 483 1025 q 475 971 483 989 q 465 972 471 972 z "},"ँ":{"ha":0,"x_min":-478,"x_max":74,"o":"m -125 1350 q -125 1330 -125 1350 q -148 1286 -125 1310 q -211 1263 -171 1263 q -287 1297 -251 1263 q -322 1372 -322 1332 q -299 1436 -322 1413 q -235 1460 -276 1460 q -160 1425 -194 1460 q -125 1350 -125 1390 m -219 1165 q -95 1196 -153 1165 q -8 1288 -37 1226 q 49 1259 24 1285 q 74 1199 74 1233 q -2 1087 74 1128 q -165 1046 -78 1046 q -383 1108 -287 1046 q -478 1229 -478 1169 q -446 1279 -478 1264 q -219 1165 -361 1165 z "},"ं":{"ha":0,"x_min":-297,"x_max":-100,"o":"m -100 1129 q -100 1109 -100 1129 q -123 1065 -100 1089 q -187 1042 -146 1042 q -262 1076 -228 1042 q -297 1151 -297 1111 q -274 1215 -297 1192 q -211 1239 -251 1239 q -135 1204 -171 1239 q -100 1129 -100 1169 z "},"ः":{"ha":467,"x_min":146,"x_max":343,"o":"m 343 626 q 343 606 343 626 q 320 563 343 586 q 256 539 297 539 q 181 574 215 539 q 146 649 146 608 q 169 713 146 689 q 232 736 192 736 q 308 701 272 736 q 343 626 343 665 m 343 180 q 343 160 343 180 q 320 117 343 140 q 256 93 297 93 q 181 128 215 93 q 146 203 146 163 q 169 267 146 243 q 232 290 192 290 q 308 255 272 290 q 343 180 343 219 z "},"अ":{"ha":1061,"x_min":32,"x_max":1133,"o":"m 938 633 l 931 136 q 950 0 931 28 q 901 -8 928 -8 q 779 165 779 -8 q 792 364 779 268 q 713 357 757 357 q 611 381 669 357 q 625 304 625 344 q 567 165 625 219 q 421 110 510 110 q 258 147 332 110 q 138 235 185 183 q 61 335 90 286 q 32 413 32 385 q 79 468 32 457 q 199 310 125 375 q 364 246 272 246 q 462 278 422 246 q 501 369 501 311 q 485 432 501 406 q 454 467 468 458 q 351 446 406 446 q 254 473 297 446 q 211 543 211 500 q 240 608 211 586 q 312 629 268 629 q 403 607 356 629 q 479 721 479 657 q 449 782 479 761 q 372 803 419 803 q 201 742 276 803 q 153 823 153 774 q 201 900 153 872 q 313 928 249 928 q 508 850 426 928 q 590 663 590 772 q 526 518 590 576 q 664 475 592 475 q 783 513 736 475 q 786 673 786 593 q 765 785 786 753 q 633 888 633 792 q 639 919 633 906 l 988 919 q 1133 821 1133 919 q 1125 785 1133 799 l 888 785 q 938 633 938 749 z "},"आ":{"ha":1447,"x_min":32,"x_max":1521,"o":"m 938 633 l 931 136 q 950 0 931 28 q 901 -8 928 -8 q 779 165 779 -8 q 792 364 779 268 q 713 357 757 357 q 611 381 669 357 q 625 304 625 344 q 567 165 625 219 q 421 110 510 110 q 258 147 332 110 q 138 235 185 183 q 61 335 90 286 q 32 413 32 385 q 79 468 32 457 q 199 310 125 375 q 364 246 272 246 q 462 278 422 246 q 501 369 501 311 q 485 432 501 406 q 454 467 468 458 q 351 446 406 446 q 254 473 297 446 q 211 543 211 500 q 240 608 211 586 q 312 629 268 629 q 403 607 356 629 q 479 721 479 657 q 449 782 479 761 q 372 803 419 803 q 201 742 276 803 q 153 823 153 774 q 201 900 153 872 q 313 928 249 928 q 508 850 426 928 q 590 663 590 772 q 526 518 590 576 q 664 475 592 475 q 783 513 736 475 q 786 673 786 593 q 765 785 786 753 q 633 888 633 792 q 639 919 633 906 l 1375 919 q 1521 821 1521 919 q 1513 785 1521 806 l 1285 785 q 1333 633 1333 750 l 1326 136 q 1346 0 1326 31 q 1297 -8 1324 -8 q 1175 174 1175 -8 l 1182 650 q 1163 785 1182 754 l 888 785 q 938 633 938 749 z "},"इ":{"ha":676,"x_min":-97,"x_max":765,"o":"m 285 685 l 376 683 q 449 726 449 683 q 414 785 449 763 l 49 785 q -97 888 -97 785 q -92 919 -97 906 l 621 919 q 765 821 765 919 q 758 785 765 803 l 517 785 q 571 672 571 731 q 533 581 571 614 q 422 549 496 549 l 333 550 q 200 483 200 550 q 222 441 200 457 q 279 425 244 425 l 393 435 q 563 367 488 435 q 638 206 638 300 q 570 59 638 113 q 399 6 503 6 q 281 18 336 6 q 449 -107 351 -107 q 529 -78 496 -107 q 569 -151 569 -107 q 538 -222 569 -196 q 458 -247 507 -247 q 190 47 288 -247 q 53 215 53 108 q 72 263 53 243 q 125 283 90 283 q 189 248 160 283 q 231 164 218 213 q 344 139 272 139 q 472 167 415 139 q 529 240 529 194 q 510 281 529 265 q 460 296 492 296 l 343 289 q 170 362 247 289 q 93 531 93 435 q 144 644 93 603 q 285 685 194 685 z "},"ई":{"ha":676,"x_min":-97,"x_max":765,"o":"m 285 685 l 376 683 q 449 726 449 683 q 414 785 449 763 l 49 785 q -97 888 -97 785 q -92 919 -97 906 l 306 919 q 226 1017 260 956 q 193 1148 193 1078 q 236 1265 193 1218 q 349 1313 279 1313 q 465 1260 419 1313 q 510 1144 510 1208 q 453 1081 510 1081 q 372 1179 444 1179 q 322 1158 343 1179 q 301 1099 301 1136 q 413 919 301 1010 l 621 919 q 765 821 765 919 q 758 785 765 803 l 517 785 q 571 672 571 731 q 533 581 571 614 q 422 549 496 549 l 333 550 q 200 483 200 550 q 222 441 200 457 q 279 425 244 425 l 393 435 q 563 367 488 435 q 638 206 638 300 q 570 59 638 113 q 399 6 503 6 q 281 18 336 6 q 449 -107 351 -107 q 529 -78 496 -107 q 569 -151 569 -107 q 538 -222 569 -196 q 458 -247 507 -247 q 190 47 288 -247 q 53 215 53 108 q 72 263 53 243 q 125 283 90 283 q 189 248 160 283 q 231 164 218 213 q 344 139 272 139 q 472 167 415 139 q 529 240 529 194 q 510 281 529 265 q 460 296 492 296 l 343 289 q 170 362 247 289 q 93 531 93 435 q 144 644 93 603 q 285 685 194 685 z "},"उ":{"ha":710,"x_min":-69,"x_max":782,"o":"m 638 919 q 782 821 782 919 q 775 785 782 803 l 539 785 q 596 622 596 708 q 539 476 596 536 q 633 261 633 371 q 576 122 633 176 q 428 67 518 67 q 262 106 338 67 q 138 199 186 146 q 59 305 89 253 q 29 388 29 357 q 76 443 29 431 q 200 273 125 343 q 369 203 275 203 q 467 235 428 203 q 507 326 507 268 q 465 426 507 385 q 360 407 415 407 q 263 435 306 407 q 219 505 219 463 q 251 569 219 547 q 325 592 282 592 q 417 569 368 592 q 478 678 478 613 q 432 785 478 744 l 75 785 q -69 888 -69 785 q -64 919 -69 910 l 638 919 z "},"ऊ":{"ha":1063,"x_min":-69,"x_max":1118,"o":"m 974 919 q 1118 821 1118 919 q 1110 785 1118 799 l 540 785 q 597 622 597 708 q 539 475 597 536 q 589 399 568 442 q 776 539 654 539 q 953 453 871 539 q 1035 260 1035 368 q 988 131 1035 186 q 863 75 940 75 q 778 106 813 75 q 743 181 743 136 q 744 194 743 189 q 778 190 761 190 q 878 226 835 190 q 921 321 921 263 q 895 385 921 357 q 825 413 869 413 q 750 388 781 413 q 731 372 739 378 q 713 351 724 365 q 697 329 701 336 q 682 304 692 322 q 669 281 672 286 q 656 256 667 275 q 644 232 646 236 q 556 110 606 154 q 422 67 506 67 q 262 106 338 67 q 138 199 186 146 q 59 305 89 253 q 29 388 29 357 q 76 443 29 431 q 200 273 125 343 q 369 203 275 203 q 467 235 428 203 q 507 326 507 268 q 465 426 507 385 q 360 407 415 407 q 263 435 306 407 q 219 505 219 463 q 251 569 219 547 q 324 592 282 592 q 418 569 367 592 q 478 678 478 613 q 432 785 478 744 l 75 785 q -69 888 -69 785 q -64 919 -69 910 l 974 919 z "},"ऋ":{"ha":1010,"x_min":-97,"x_max":1082,"o":"m 569 310 l 568 136 q 586 0 568 29 q 539 -8 567 -8 q 419 146 419 -8 q 438 300 419 228 q 133 171 246 171 q 52 197 86 171 q 18 281 18 222 q 363 419 139 281 q 299 467 319 453 q 174 513 235 513 q 116 496 142 513 q 81 450 90 479 q 32 487 51 461 q 13 553 13 513 q 47 621 13 593 q 134 649 81 649 q 233 625 188 649 q 340 548 279 601 q 422 479 401 494 q 424 642 424 531 q 404 785 424 754 l 49 785 q -97 888 -97 785 q -92 919 -97 906 l 938 919 q 1082 821 1082 919 q 1075 785 1082 803 l 526 785 q 575 633 575 750 q 572 419 575 564 q 610 418 579 418 q 685 434 642 418 q 750 471 728 450 q 714 563 714 524 q 738 628 714 603 q 804 654 763 654 q 883 611 846 654 q 921 510 921 568 q 883 404 921 453 q 928 339 911 365 q 972 206 972 268 q 942 106 972 143 q 859 68 911 68 q 774 103 807 68 q 742 193 742 139 q 778 188 753 188 q 828 207 804 188 q 853 264 853 226 q 826 351 853 301 q 647 301 751 301 q 569 310 607 301 z "},"ऌ":{"ha":1006,"x_min":-97,"x_max":1079,"o":"m 933 919 q 1079 821 1079 919 q 1071 785 1079 799 l 694 785 q 743 633 743 750 l 743 589 q 865 488 817 553 q 913 357 913 422 q 885 238 913 292 q 826 147 858 183 q 740 -6 740 53 q 759 -53 740 -36 q 804 -69 778 -69 q 935 40 883 -69 q 1014 -57 1014 18 q 973 -146 1014 -107 q 855 -185 932 -185 q 701 -115 778 -185 q 624 57 624 -46 q 663 178 624 118 q 742 294 703 239 q 782 394 782 349 q 753 469 782 440 q 679 497 724 497 q 547 408 594 497 q 558 333 558 371 q 538 261 558 294 q 474 228 517 228 q 405 265 431 228 q 379 359 379 303 q 411 472 379 415 q 315 504 372 504 q 226 461 258 504 q 193 349 193 418 q 314 39 193 197 q 267 11 300 11 q 180 72 233 11 q 85 229 126 133 q 43 420 43 325 q 103 571 43 515 q 253 626 163 626 q 458 543 367 626 q 592 615 515 604 l 592 650 q 574 785 592 757 l 49 785 q -97 888 -97 785 q -92 919 -97 906 l 933 919 z "},"ऍ":{"ha":801,"x_min":-97,"x_max":874,"o":"m 431 1046 q 213 1108 308 1046 q 118 1229 118 1169 q 150 1279 118 1264 q 376 1165 235 1165 q 501 1196 443 1165 q 588 1288 558 1226 q 644 1259 619 1285 q 669 1199 669 1233 q 594 1087 669 1128 q 431 1046 518 1046 m 104 438 l 107 642 q 88 785 107 753 l 49 785 q -97 888 -97 785 q -92 919 -97 906 l 728 919 q 874 821 874 919 q 865 785 874 799 l 632 785 q 713 543 713 668 q 673 414 713 467 q 565 361 633 361 q 454 398 497 361 q 408 493 411 435 q 461 485 433 485 q 550 518 514 485 q 586 615 586 551 q 533 785 586 710 l 210 785 q 258 633 258 750 l 256 436 q 291 341 256 385 q 381 268 326 297 q 497 206 435 239 q 613 142 558 172 q 702 67 667 113 q 738 -29 738 21 q 709 -112 738 -79 q 634 -144 681 -144 q 558 -122 588 -144 q 519 -80 528 -99 q 511 -54 511 -61 q 568 -38 547 -54 q 589 12 589 -22 q 539 83 589 46 q 418 152 489 119 q 276 222 347 185 q 154 314 204 258 q 104 438 104 369 z "},"ऎ":{"ha":801,"x_min":-97,"x_max":874,"o":"m 104 438 l 107 642 q 88 785 107 753 l 49 785 q -97 888 -97 785 q -92 919 -97 906 l 433 919 q 527 943 486 919 q 568 999 568 967 q 497 1061 568 1061 q 397 1035 461 1061 q 296 1008 333 1008 q 144 1081 207 1008 q 81 1244 81 1154 q 121 1351 81 1304 q 226 1397 161 1397 q 294 1372 267 1397 q 322 1307 322 1346 q 318 1278 322 1292 q 224 1255 265 1278 q 183 1200 183 1232 q 254 1136 183 1136 q 353 1163 290 1136 q 456 1189 417 1189 q 607 1116 543 1189 q 671 953 671 1043 q 667 919 671 936 l 728 919 q 874 821 874 919 q 865 785 874 799 l 632 785 q 713 543 713 668 q 673 414 713 467 q 565 361 633 361 q 454 398 497 361 q 408 493 411 435 q 461 485 433 485 q 550 518 514 485 q 586 615 586 551 q 533 785 586 710 l 210 785 q 258 633 258 750 l 256 436 q 291 341 256 385 q 381 268 326 297 q 497 206 435 239 q 613 142 558 172 q 702 67 667 113 q 738 -29 738 21 q 709 -112 738 -79 q 634 -144 681 -144 q 558 -122 588 -144 q 519 -80 528 -99 q 511 -54 511 -61 q 568 -38 547 -54 q 589 12 589 -22 q 539 83 589 46 q 418 152 489 119 q 276 222 347 185 q 154 314 204 258 q 104 438 104 369 z "},"ए":{"ha":801,"x_min":-97,"x_max":874,"o":"m 104 438 l 107 642 q 88 785 107 753 l 49 785 q -97 888 -97 785 q -92 919 -97 906 l 728 919 q 874 821 874 919 q 865 785 874 799 l 632 785 q 713 543 713 668 q 673 414 713 467 q 565 361 633 361 q 454 398 497 361 q 408 493 411 435 q 461 485 433 485 q 550 518 514 485 q 586 615 586 551 q 533 785 586 710 l 210 785 q 258 633 258 750 l 256 436 q 291 341 256 385 q 381 268 326 297 q 497 206 435 239 q 613 142 558 172 q 702 67 667 113 q 738 -29 738 21 q 709 -112 738 -79 q 634 -144 681 -144 q 558 -122 588 -144 q 519 -80 528 -99 q 511 -54 511 -61 q 568 -38 547 -54 q 589 12 589 -22 q 539 83 589 46 q 418 152 489 119 q 276 222 347 185 q 154 314 204 258 q 104 438 104 369 z "},"ऐ":{"ha":801,"x_min":-97,"x_max":874,"o":"m 104 438 l 107 642 q 88 785 107 753 l 49 785 q -97 888 -97 785 q -92 919 -97 906 l 561 919 q 346 1140 449 1140 q 265 1086 292 1140 q 202 1126 225 1094 q 179 1198 179 1157 q 210 1268 179 1239 q 300 1297 240 1297 q 426 1248 360 1297 q 535 1132 492 1199 q 608 1006 579 1065 q 639 919 636 947 l 728 919 q 874 821 874 919 q 865 785 874 799 l 632 785 q 713 543 713 668 q 673 414 713 467 q 565 361 633 361 q 454 398 497 361 q 408 493 411 435 q 461 485 433 485 q 550 518 514 485 q 586 615 586 551 q 533 785 586 710 l 210 785 q 258 633 258 750 l 256 436 q 291 341 256 385 q 381 268 326 297 q 497 206 435 239 q 613 142 558 172 q 702 67 667 113 q 738 -29 738 21 q 709 -112 738 -79 q 634 -144 681 -144 q 558 -122 588 -144 q 519 -80 528 -99 q 511 -54 511 -61 q 568 -38 547 -54 q 589 12 589 -22 q 539 83 589 46 q 418 152 489 119 q 276 222 347 185 q 154 314 204 258 q 104 438 104 369 z "},"ऑ":{"ha":1447,"x_min":32,"x_max":1521,"o":"m 1063 1046 q 845 1108 940 1046 q 750 1229 750 1169 q 782 1279 750 1264 q 1008 1165 867 1165 q 1133 1196 1075 1165 q 1219 1288 1190 1226 q 1276 1259 1251 1285 q 1301 1199 1301 1233 q 1226 1087 1301 1128 q 1063 1046 1150 1046 m 938 633 l 931 136 q 950 0 931 28 q 901 -8 928 -8 q 779 165 779 -8 q 792 364 779 268 q 713 357 757 357 q 611 381 669 357 q 625 304 625 344 q 567 165 625 219 q 421 110 510 110 q 258 147 332 110 q 138 235 185 183 q 61 335 90 286 q 32 413 32 385 q 79 468 32 457 q 199 310 125 375 q 364 246 272 246 q 462 278 422 246 q 501 369 501 311 q 485 432 501 406 q 454 467 468 458 q 351 446 406 446 q 254 473 297 446 q 211 543 211 500 q 240 608 211 586 q 312 629 268 629 q 403 607 356 629 q 479 721 479 657 q 449 782 479 761 q 372 803 419 803 q 201 742 276 803 q 153 823 153 774 q 201 900 153 872 q 313 928 249 928 q 508 850 426 928 q 590 663 590 772 q 526 518 590 576 q 664 475 592 475 q 783 513 736 475 q 786 673 786 593 q 765 785 786 753 q 633 888 633 792 q 639 919 633 906 l 1375 919 q 1521 821 1521 919 q 1513 785 1521 806 l 1285 785 q 1333 633 1333 750 l 1326 136 q 1346 0 1326 31 q 1297 -8 1324 -8 q 1175 174 1175 -8 l 1182 650 q 1163 785 1182 754 l 888 785 q 938 633 938 749 z "},"ऒ":{"ha":1447,"x_min":32,"x_max":1521,"o":"m 938 633 l 931 136 q 950 0 931 28 q 901 -8 928 -8 q 779 165 779 -8 q 792 364 779 268 q 713 357 757 357 q 611 381 669 357 q 625 304 625 344 q 567 165 625 219 q 421 110 510 110 q 258 147 332 110 q 138 235 185 183 q 61 335 90 286 q 32 413 32 385 q 79 468 32 457 q 199 310 125 375 q 364 246 272 246 q 462 278 422 246 q 501 369 501 311 q 485 432 501 406 q 454 467 468 458 q 351 446 406 446 q 254 473 297 446 q 211 543 211 500 q 240 608 211 586 q 312 629 268 629 q 403 607 356 629 q 479 721 479 657 q 449 782 479 761 q 372 803 419 803 q 201 742 276 803 q 153 823 153 774 q 201 900 153 872 q 313 928 249 928 q 508 850 426 928 q 590 663 590 772 q 526 518 590 576 q 664 475 592 475 q 783 513 736 475 q 786 673 786 593 q 765 785 786 753 q 633 888 633 792 q 639 919 633 906 l 1101 919 q 1195 943 1154 919 q 1236 999 1236 967 q 1165 1061 1236 1061 q 1065 1035 1129 1061 q 964 1008 1001 1008 q 812 1081 875 1008 q 749 1244 749 1154 q 789 1351 749 1304 q 894 1397 829 1397 q 963 1372 935 1397 q 990 1307 990 1346 q 986 1278 990 1292 q 892 1255 933 1278 q 851 1200 851 1232 q 922 1136 851 1136 q 1022 1163 958 1136 q 1124 1189 1085 1189 q 1275 1116 1211 1189 q 1339 953 1339 1043 q 1335 919 1339 936 l 1375 919 q 1521 821 1521 919 q 1513 785 1521 806 l 1285 785 q 1333 633 1333 750 l 1326 136 q 1346 0 1326 31 q 1297 -8 1324 -8 q 1175 174 1175 -8 l 1182 650 q 1163 785 1182 754 l 888 785 q 938 633 938 749 z "},"ओ":{"ha":1447,"x_min":32,"x_max":1521,"o":"m 938 633 l 931 136 q 950 0 931 28 q 901 -8 928 -8 q 779 165 779 -8 q 792 364 779 268 q 713 357 757 357 q 611 381 669 357 q 625 304 625 344 q 567 165 625 219 q 421 110 510 110 q 258 147 332 110 q 138 235 185 183 q 61 335 90 286 q 32 413 32 385 q 79 468 32 457 q 199 310 125 375 q 364 246 272 246 q 462 278 422 246 q 501 369 501 311 q 485 432 501 406 q 454 467 468 458 q 351 446 406 446 q 254 473 297 446 q 211 543 211 500 q 240 608 211 586 q 312 629 268 629 q 403 607 356 629 q 479 721 479 657 q 449 782 479 761 q 372 803 419 803 q 201 742 276 803 q 153 823 153 774 q 201 900 153 872 q 313 928 249 928 q 508 850 426 928 q 590 663 590 772 q 526 518 590 576 q 664 475 592 475 q 783 513 736 475 q 786 673 786 593 q 765 785 786 753 q 633 888 633 792 q 639 919 633 906 l 1214 919 q 999 1140 1101 1140 q 918 1086 944 1140 q 855 1126 878 1094 q 832 1198 832 1157 q 863 1268 832 1239 q 953 1297 893 1297 q 1078 1248 1013 1297 q 1188 1132 1144 1199 q 1260 1006 1232 1065 q 1292 919 1289 947 l 1375 919 q 1521 821 1521 919 q 1513 785 1521 806 l 1285 785 q 1333 633 1333 750 l 1326 136 q 1346 0 1326 31 q 1297 -8 1324 -8 q 1175 174 1175 -8 l 1182 650 q 1163 785 1182 754 l 888 785 q 938 633 938 749 z "},"औ":{"ha":1447,"x_min":32,"x_max":1521,"o":"m 938 633 l 931 136 q 950 0 931 28 q 901 -8 928 -8 q 779 165 779 -8 q 792 364 779 268 q 713 357 757 357 q 611 381 669 357 q 625 304 625 344 q 567 165 625 219 q 421 110 510 110 q 258 147 332 110 q 138 235 185 183 q 61 335 90 286 q 32 413 32 385 q 79 468 32 457 q 199 310 125 375 q 364 246 272 246 q 462 278 422 246 q 501 369 501 311 q 485 432 501 406 q 454 467 468 458 q 351 446 406 446 q 254 473 297 446 q 211 543 211 500 q 240 608 211 586 q 312 629 268 629 q 403 607 356 629 q 479 721 479 657 q 449 782 479 761 q 372 803 419 803 q 201 742 276 803 q 153 823 153 774 q 201 900 153 872 q 313 928 249 928 q 508 850 426 928 q 590 663 590 772 q 526 518 590 576 q 664 475 592 475 q 783 513 736 475 q 786 673 786 593 q 765 785 786 753 q 633 888 633 792 q 639 919 633 906 l 1203 919 q 981 1057 1071 1057 q 920 1038 946 1057 q 886 985 894 1018 q 816 1015 847 985 q 785 1090 785 1044 q 821 1164 785 1135 q 910 1193 857 1193 q 1078 1135 993 1193 q 1228 1000 1164 1078 q 1071 1244 1182 1244 q 1008 1219 1036 1244 q 967 1296 967 1250 q 995 1369 967 1342 q 1074 1397 1024 1397 q 1174 1351 1125 1397 q 1250 1236 1222 1306 q 1304 961 1304 1093 q 1301 919 1304 932 l 1375 919 q 1521 821 1521 919 q 1513 785 1521 806 l 1285 785 q 1333 633 1333 750 l 1326 136 q 1346 0 1326 31 q 1297 -8 1324 -8 q 1175 174 1175 -8 l 1182 650 q 1163 785 1182 754 l 888 785 q 938 633 938 749 z "},"क":{"ha":1067,"x_min":-93,"x_max":1128,"o":"m 606 410 l 601 136 q 621 0 601 31 q 572 -8 599 -8 q 460 129 460 -8 q 471 240 460 182 q 321 182 419 182 q 135 272 222 182 q 47 475 47 361 q 101 611 47 553 q 238 669 154 669 q 322 638 289 669 q 354 564 354 607 q 351 547 354 561 q 328 549 340 549 q 306 546 317 549 q 206 499 244 539 q 168 410 168 460 q 201 330 168 360 q 278 300 233 300 q 454 425 379 300 q 457 652 457 550 q 438 785 457 754 l 53 785 q -93 888 -93 785 q -86 919 -93 908 l 983 919 q 1128 821 1128 919 q 1121 785 1128 803 l 561 785 q 600 675 600 751 q 594 600 600 633 q 728 656 650 656 q 922 565 833 656 q 1010 361 1010 475 q 956 226 1010 283 q 819 168 903 168 q 735 199 768 168 q 703 272 703 229 q 706 289 703 275 q 722 289 711 289 q 847 333 804 289 q 889 427 889 376 q 857 507 889 478 q 779 536 825 536 q 606 410 676 536 z "},"ख":{"ha":1114,"x_min":-69,"x_max":1186,"o":"m 854 643 q 829 785 854 758 l 349 785 q 443 551 443 678 q 387 404 443 464 q 232 339 331 344 q 349 218 271 261 q 519 175 428 175 q 753 258 657 175 q 850 461 850 342 q 826 541 850 507 q 759 575 803 575 q 693 544 715 575 q 671 472 671 513 q 687 397 671 431 q 728 347 703 364 q 682 331 708 331 q 576 381 624 331 q 528 508 528 431 q 578 633 528 585 q 709 682 629 682 q 854 624 789 682 l 854 643 m 999 633 l 993 136 q 1011 0 993 29 q 964 -8 992 -8 q 858 117 858 -8 q 864 188 858 154 q 734 87 817 126 q 553 47 651 47 q 301 131 422 47 q 132 357 181 214 q 56 415 86 378 q 26 491 26 453 q 46 551 26 529 q 100 574 65 574 q 197 458 171 574 q 278 510 249 471 q 308 608 308 550 q 249 785 308 711 l 75 785 q -69 888 -69 785 q -64 919 -69 910 l 1042 919 q 1186 821 1186 919 q 1179 785 1186 803 l 950 785 q 999 633 999 750 z "},"ग":{"ha":826,"x_min":-97,"x_max":899,"o":"m 553 174 l 560 650 q 540 785 560 754 l 253 785 q 339 646 307 728 q 371 479 371 564 q 328 347 371 394 q 221 300 286 300 q 103 347 156 300 q 50 461 50 394 q 72 519 50 499 q 125 540 93 540 q 211 483 181 540 q 231 572 231 513 q 201 690 231 632 q 131 785 172 749 l 49 785 q -97 888 -97 785 q -92 919 -97 906 l 754 919 q 899 821 899 919 q 892 785 899 803 l 663 785 q 711 633 711 750 l 704 136 q 724 0 704 28 q 675 -8 701 -8 q 553 174 553 -8 z "},"घ":{"ha":867,"x_min":-97,"x_max":939,"o":"m 196 640 q 208 585 196 611 q 315 614 258 614 q 408 588 371 614 q 444 524 444 563 q 413 464 444 485 q 344 443 382 443 q 275 451 306 443 q 232 370 232 421 q 268 292 232 319 q 367 264 304 264 q 497 303 431 264 q 597 406 563 343 q 600 651 600 544 q 582 785 600 757 l 272 785 q 196 640 196 735 m 751 633 l 746 136 q 764 0 746 29 q 717 -8 744 -8 q 633 27 663 -8 q 603 117 603 63 q 614 226 603 172 q 413 151 535 151 q 197 234 290 151 q 103 410 103 317 q 142 529 103 476 q 68 694 68 603 q 90 789 68 743 q 32 786 57 786 q -97 888 -97 786 q -92 919 -97 906 l 794 919 q 939 821 939 919 q 932 785 939 803 l 703 785 q 751 633 751 750 z "},"ङ":{"ha":857,"x_min":-85,"x_max":929,"o":"m 672 497 q 672 515 672 497 q 693 554 672 533 q 750 575 714 575 q 818 544 786 575 q 850 476 850 513 q 829 419 850 440 q 772 397 808 397 q 704 429 736 397 q 672 497 672 461 m 522 299 l 351 289 q 177 361 254 289 q 100 532 100 433 q 149 647 100 606 q 287 688 199 688 q 436 687 375 688 q 497 732 497 686 q 465 785 497 761 l 61 785 q -85 888 -85 785 q -79 919 -85 906 l 785 919 q 929 821 929 919 q 922 785 929 803 l 567 785 q 619 674 619 729 q 583 585 619 618 q 471 551 546 551 l 343 553 q 206 485 206 553 q 227 442 206 457 q 283 428 249 428 l 457 438 q 626 366 556 438 q 696 206 696 294 q 633 65 696 118 q 464 13 569 13 q 173 92 304 13 q 42 239 42 171 q 74 282 42 269 q 212 183 128 219 q 386 147 296 147 q 532 174 476 147 q 588 244 588 200 q 571 283 588 268 q 522 299 554 299 z "},"च":{"ha":900,"x_min":-114,"x_max":972,"o":"m 786 633 l 779 136 q 797 0 779 29 q 750 -8 781 -8 q 639 126 639 -8 q 649 231 639 172 q 478 167 589 167 q 275 256 368 167 q 182 444 182 344 q 203 522 182 486 q 113 510 156 510 q 33 534 71 510 q -4 614 -4 558 q 1 644 -4 631 l 353 644 q 497 546 497 644 q 489 511 497 525 l 438 511 q 338 479 378 511 q 297 399 297 447 q 335 320 297 350 q 430 290 372 290 q 545 329 488 290 q 632 444 603 368 q 635 660 635 567 q 615 785 635 754 l 31 785 q -114 888 -114 785 q -108 919 -114 910 l 828 919 q 972 821 972 919 q 965 785 972 803 l 738 785 q 786 633 786 750 z "},"छ":{"ha":947,"x_min":-83,"x_max":1017,"o":"m 206 629 q 219 557 206 590 q 319 576 267 576 q 408 551 372 576 q 444 488 444 526 q 414 428 444 449 q 342 407 383 407 q 264 421 300 407 q 208 319 208 385 q 267 214 208 254 q 414 174 326 174 q 665 264 558 174 q 772 488 772 354 q 758 553 772 526 q 708 581 743 581 q 653 542 674 581 q 632 449 632 504 q 665 361 632 394 q 639 347 657 347 q 560 406 599 347 q 522 527 522 464 q 548 637 522 590 q 619 700 574 683 q 597 785 617 758 l 299 785 q 206 629 206 735 m 872 919 q 1017 821 1017 919 q 1010 785 1017 803 l 707 785 q 749 689 742 757 q 847 585 811 657 q 883 432 883 514 q 772 156 883 261 q 497 51 661 51 q 210 144 333 51 q 86 371 86 238 q 143 507 86 450 q 79 678 79 586 q 110 789 79 742 q 35 786 83 786 q -48 810 -12 786 q -83 888 -83 835 q -78 919 -83 906 l 872 919 z "},"ज":{"ha":982,"x_min":-79,"x_max":1054,"o":"m 711 174 l 715 486 l 476 486 q 557 301 557 401 q 511 185 557 228 q 390 142 465 142 q 240 194 314 142 q 119 317 165 246 q 47 454 74 388 q 19 557 19 521 q 72 615 19 613 q 197 371 125 460 q 343 282 269 282 q 411 308 388 282 q 435 372 435 333 q 382 488 435 432 q 261 590 261 494 q 267 622 261 608 l 717 622 l 717 642 q 699 785 717 756 l 65 785 q -79 888 -79 785 q -74 919 -79 910 l 910 919 q 1054 821 1054 919 q 1047 785 1054 803 l 819 785 q 868 633 868 750 l 863 136 q 881 0 863 29 q 833 -8 861 -8 q 711 174 711 -8 z "},"झ":{"ha":1047,"x_min":-97,"x_max":1119,"o":"m 782 469 l 783 650 q 764 785 783 754 l 528 785 q 582 672 582 731 q 544 581 582 614 q 433 549 506 549 l 333 550 q 200 486 200 550 q 222 446 200 460 q 279 432 244 432 q 394 440 279 432 q 500 424 429 440 q 617 407 571 407 q 782 469 724 407 m 285 685 l 386 683 q 460 728 460 683 q 425 785 460 761 l 49 785 q -97 888 -97 785 q -92 919 -97 906 l 975 919 q 1119 821 1119 919 q 1113 785 1119 803 l 886 785 q 935 633 935 750 l 928 136 q 947 0 928 31 q 899 -8 925 -8 q 779 150 779 -8 q 792 317 779 236 q 700 292 749 292 q 610 306 651 292 q 638 200 638 254 q 570 59 638 113 q 399 6 503 6 q 281 18 336 6 q 449 -107 351 -107 q 529 -78 496 -107 q 569 -151 569 -107 q 538 -222 569 -196 q 458 -247 507 -247 q 299 -164 367 -247 q 190 46 232 -81 q 53 215 53 107 q 72 263 53 243 q 125 283 90 283 q 189 248 160 283 q 231 164 218 213 q 344 139 272 139 q 472 167 415 139 q 529 240 529 196 q 510 285 529 268 q 460 303 492 303 l 343 294 q 170 366 247 294 q 93 531 93 438 q 144 644 93 603 q 285 685 194 685 z "},"ञ":{"ha":1006,"x_min":-97,"x_max":1079,"o":"m 733 339 q 615 360 669 339 q 551 224 611 275 q 402 174 490 174 q 235 222 314 174 q 109 338 157 271 q 33 467 61 404 q 6 561 6 529 q 22 607 6 593 q 58 622 38 621 q 357 313 172 313 q 465 351 425 313 q 506 434 506 390 q 482 503 506 478 q 419 529 458 529 q 324 464 356 529 q 271 500 294 472 q 247 567 247 528 q 280 636 247 607 q 364 665 313 665 q 511 606 444 665 q 603 458 578 547 q 624 457 610 457 q 736 485 683 457 q 738 642 738 532 q 718 785 738 753 l 49 785 q -97 888 -97 785 q -92 919 -97 906 l 933 919 q 1079 821 1079 919 q 1071 785 1079 799 l 840 785 q 889 633 889 750 l 882 136 q 901 0 882 31 q 853 -8 879 -8 q 731 174 731 -8 q 733 339 731 222 z "},"ट":{"ha":653,"x_min":-85,"x_max":726,"o":"m 582 919 q 726 821 726 919 q 719 785 726 803 l 444 785 q 501 684 501 738 q 467 594 501 631 q 385 534 433 558 q 287 485 336 510 q 203 419 238 460 q 169 323 169 378 q 213 231 169 268 q 324 194 256 194 q 451 240 392 194 q 525 357 511 286 q 599 324 569 354 q 628 247 628 293 q 563 133 628 185 q 381 81 499 81 q 149 170 263 81 q 36 375 36 260 q 70 495 36 443 q 152 576 104 547 q 249 628 200 606 q 331 676 297 651 q 365 733 365 701 q 340 785 365 764 l 61 785 q -85 888 -85 785 q -79 919 -85 906 l 582 919 z "},"ठ":{"ha":704,"x_min":-85,"x_max":779,"o":"m 332 178 q 369 178 332 178 q 465 230 406 178 q 525 349 525 282 q 476 461 525 415 q 347 518 426 507 q 179 383 207 446 q 165 315 165 353 q 212 214 165 250 q 332 178 258 178 m 633 919 q 779 821 779 919 q 771 785 779 799 l 449 785 q 503 678 503 739 q 433 568 503 617 q 605 481 542 556 q 668 317 668 407 q 585 133 668 201 q 378 64 501 64 q 146 158 256 64 q 36 371 36 251 q 70 492 36 440 q 153 574 104 544 q 250 628 201 604 q 333 678 299 653 q 367 732 367 704 q 344 785 367 760 l 61 785 q -85 888 -85 785 q -79 919 -85 906 l 633 919 z "},"ड":{"ha":722,"x_min":-85,"x_max":822,"o":"m 522 299 l 351 289 q 177 361 254 289 q 100 532 100 433 q 149 647 100 606 q 287 688 199 688 q 436 687 375 688 q 497 732 497 686 q 465 785 497 761 l 61 785 q -85 888 -85 785 q -79 919 -85 906 l 676 919 q 822 821 822 919 q 814 785 822 806 l 567 785 q 619 674 619 729 q 583 585 619 618 q 471 551 546 551 l 343 553 q 206 485 206 553 q 227 442 206 457 q 283 428 249 428 l 457 438 q 626 366 556 438 q 696 206 696 294 q 633 65 696 118 q 464 13 569 13 q 173 92 304 13 q 42 239 42 171 q 74 282 42 269 q 212 183 128 219 q 386 147 296 147 q 532 174 476 147 q 588 244 588 200 q 571 283 588 268 q 522 299 554 299 z "},"ढ":{"ha":697,"x_min":-101,"x_max":771,"o":"m 626 919 q 771 821 771 919 q 764 785 771 803 l 497 785 q 547 688 547 740 q 508 601 547 636 q 411 544 468 567 q 298 496 354 521 q 202 426 242 471 q 163 311 163 381 q 224 193 163 242 q 365 144 285 144 q 494 187 444 144 q 543 283 543 229 q 527 328 543 311 q 488 344 511 344 q 446 326 465 344 q 423 286 426 307 q 419 253 419 265 q 421 225 419 242 q 381 219 410 219 q 322 249 351 219 q 292 329 292 278 q 333 417 292 381 q 433 453 374 453 q 593 388 522 453 q 664 231 664 322 q 594 86 664 140 q 414 32 524 32 q 157 133 281 32 q 33 368 33 233 q 73 505 33 447 q 169 593 113 563 q 281 647 225 624 q 377 692 338 669 q 417 740 417 715 q 393 785 417 764 l 43 785 q -101 888 -101 785 q -96 919 -101 910 l 626 919 z "},"ण":{"ha":1042,"x_min":-97,"x_max":1114,"o":"m 176 785 q 225 646 225 750 q 228 497 225 542 q 328 363 238 363 q 438 596 438 363 q 411 785 438 728 l 176 785 m 76 519 l 74 650 q 56 785 74 757 l 49 785 q -97 888 -97 785 q -92 919 -97 906 l 969 919 q 1114 821 1114 919 q 1107 785 1114 803 l 879 785 q 928 633 928 750 l 921 136 q 939 0 921 29 q 892 -8 919 -8 q 769 174 769 -8 l 776 650 q 757 785 776 754 l 496 785 q 558 663 529 740 q 586 484 586 585 q 535 317 586 383 q 386 251 483 251 q 188 331 289 251 q 76 519 88 411 z "},"त":{"ha":768,"x_min":-85,"x_max":840,"o":"m 500 174 l 504 475 l 354 475 q 250 442 288 475 q 213 346 213 410 q 333 44 213 186 q 286 17 319 17 q 201 75 253 17 q 108 226 149 133 q 67 399 67 318 q 132 559 67 506 q 290 613 197 613 q 506 599 383 613 l 506 642 q 488 785 506 756 l 61 785 q -85 888 -85 785 q -79 919 -85 906 l 696 919 q 840 821 840 919 q 833 785 840 803 l 608 785 q 657 633 657 750 l 651 136 q 669 0 651 29 q 622 -8 650 -8 q 500 174 500 -8 z "},"थ":{"ha":878,"x_min":60,"x_max":950,"o":"m 764 633 l 757 136 q 776 0 757 28 q 728 -8 754 -8 q 617 139 617 -8 q 629 258 617 189 q 408 183 535 183 q 170 273 281 183 q 60 442 60 363 q 167 544 60 493 q 256 591 211 567 q 331 651 300 615 q 363 724 363 688 q 344 783 363 761 q 288 806 325 806 q 226 774 251 806 q 200 699 200 742 q 222 628 200 657 q 197 622 214 622 q 112 667 146 622 q 78 775 78 711 q 124 883 78 839 q 240 928 171 928 q 403 849 331 928 q 476 665 476 771 q 449 565 476 610 q 381 492 421 519 q 303 444 342 465 q 236 406 264 424 q 208 369 208 389 q 241 330 208 349 q 335 311 274 311 q 481 344 397 311 q 608 442 564 378 q 613 676 613 625 q 603 753 613 728 q 558 809 594 778 q 521 888 521 840 q 526 919 521 910 l 806 919 q 950 821 950 919 q 943 785 950 803 l 713 785 q 764 633 764 750 z "},"द":{"ha":675,"x_min":-85,"x_max":728,"o":"m 583 919 q 728 821 728 919 q 721 785 728 803 l 517 785 q 563 688 563 739 q 523 600 563 636 q 427 542 483 564 q 315 498 371 521 q 219 435 258 475 q 179 335 179 394 q 229 239 179 275 q 338 203 279 203 q 438 221 397 203 q 421 286 421 251 q 447 348 421 321 q 517 375 474 375 q 594 333 560 375 q 628 242 628 292 q 567 122 628 165 q 631 -31 631 49 q 601 -115 631 -82 q 528 -147 572 -147 q 453 -122 483 -147 q 417 -57 422 -97 q 483 -27 457 -51 q 508 32 508 -3 q 496 92 508 67 q 418 83 458 83 q 163 179 279 83 q 47 394 47 275 q 87 521 47 468 q 183 601 126 574 q 294 649 239 629 q 390 692 350 669 q 429 742 429 715 q 414 785 429 769 l 60 785 q -85 888 -85 785 q -79 919 -85 910 l 583 919 z "},"ध":{"ha":860,"x_min":-103,"x_max":933,"o":"m 746 633 l 739 136 q 758 0 739 31 q 710 -8 736 -8 q 622 30 649 -8 q 596 121 596 68 q 608 228 596 174 q 406 151 529 151 q 190 233 283 151 q 97 407 97 315 q 136 525 97 472 q 63 690 63 599 q 90 789 63 746 q 25 786 40 786 q -67 810 -32 786 q -103 888 -103 835 q -97 919 -103 910 l 210 919 q 356 821 356 919 q 347 785 356 799 l 329 785 q 226 743 264 785 q 189 640 189 701 q 201 582 189 608 q 308 611 251 611 q 401 585 364 611 q 438 522 438 560 q 406 463 438 483 q 337 442 374 442 q 269 450 300 442 q 225 367 225 415 q 261 291 225 318 q 360 264 297 264 q 488 303 422 264 q 592 404 554 342 q 594 637 594 546 q 585 753 594 728 q 540 809 576 778 q 503 888 503 840 q 508 919 503 906 l 788 919 q 933 821 933 919 q 925 785 933 806 l 694 785 q 746 633 746 750 z "},"न":{"ha":799,"x_min":-85,"x_max":871,"o":"m 526 174 l 531 475 l 288 475 q 197 449 231 475 q 163 388 163 422 q 184 333 163 354 q 239 313 206 313 q 318 357 299 313 q 335 390 332 375 q 394 349 372 381 q 417 278 417 317 q 388 210 417 239 q 307 182 360 182 q 124 267 213 182 q 36 439 36 353 q 268 611 36 611 q 532 597 404 611 l 532 642 q 514 785 532 756 l 61 785 q -85 888 -85 785 q -79 919 -85 906 l 726 919 q 871 821 871 919 q 864 785 871 803 l 635 785 q 683 633 683 750 l 678 136 q 696 0 678 29 q 649 -8 676 -8 q 526 174 526 -8 z "},"ऩ":{"ha":799,"x_min":-85,"x_max":871,"o":"m 158 41 q 158 59 158 41 q 178 97 158 76 q 233 117 197 117 q 299 86 268 117 q 331 21 331 56 q 310 -35 331 -14 q 254 -56 290 -56 q 188 -25 218 -56 q 158 41 158 6 m 526 174 l 531 475 l 288 475 q 197 449 231 475 q 163 388 163 422 q 184 333 163 354 q 239 313 206 313 q 318 357 299 313 q 335 390 332 375 q 394 349 372 381 q 417 278 417 317 q 388 210 417 239 q 307 182 360 182 q 124 267 213 182 q 36 439 36 353 q 268 611 36 611 q 532 597 404 611 l 532 642 q 514 785 532 756 l 61 785 q -85 888 -85 785 q -79 919 -85 906 l 726 919 q 871 821 871 919 q 864 785 871 803 l 635 785 q 683 633 683 750 l 678 136 q 696 0 678 29 q 649 -8 676 -8 q 526 174 526 -8 z "},"प":{"ha":783,"x_min":-89,"x_max":856,"o":"m 235 633 l 232 475 q 338 346 232 346 q 435 380 386 346 q 514 465 485 414 q 515 639 515 521 q 497 785 515 757 l 188 785 q 235 633 235 750 m 667 633 l 661 136 q 679 0 661 29 q 632 -8 660 -8 q 540 36 568 -8 q 511 144 511 81 q 522 269 511 207 q 393 231 463 231 q 183 324 282 231 q 85 513 85 418 q 83 708 85 628 q 67 785 79 765 l 56 785 q -89 888 -89 785 q -83 919 -89 910 l 710 919 q 856 821 856 919 q 847 785 856 799 l 618 785 q 667 633 667 750 z "},"फ":{"ha":1085,"x_min":-89,"x_max":1150,"o":"m 469 439 l 471 650 q 453 785 471 754 l 182 785 q 229 633 229 750 l 228 494 q 333 365 228 365 q 469 439 407 365 m 1006 919 q 1150 821 1150 919 q 1143 785 1150 803 l 574 785 q 613 675 613 751 q 608 596 613 629 q 749 653 665 653 q 944 562 857 653 q 1032 356 1032 471 q 978 218 1032 276 q 839 160 924 160 q 754 191 789 160 q 719 267 719 222 q 721 285 719 276 q 752 283 736 283 q 782 286 768 283 q 876 333 840 294 q 911 423 911 372 q 878 503 911 474 q 800 533 846 533 q 619 404 696 533 q 615 151 615 271 q 635 0 615 31 q 586 -8 615 -8 q 494 38 522 -8 q 465 147 465 83 q 474 268 465 211 q 389 250 433 250 q 175 340 271 250 q 79 526 79 431 l 79 690 q 61 785 78 761 l 56 785 q -89 888 -89 785 q -83 919 -89 910 l 1006 919 z "},"ब":{"ha":807,"x_min":-93,"x_max":879,"o":"m 211 507 q 168 416 168 472 q 210 324 168 360 q 303 288 251 288 q 388 301 354 288 l 211 507 m 693 633 l 686 136 q 706 0 686 28 q 657 -8 688 -8 q 568 32 596 -8 q 540 126 540 72 q 556 229 540 181 q 366 164 486 164 q 147 266 246 164 q 47 471 47 368 q 115 630 47 574 q 265 686 183 686 q 394 656 347 686 q 442 583 442 626 q 426 521 442 540 q 339 546 376 546 q 281 542 301 546 l 454 336 q 539 440 507 376 q 542 660 542 565 q 522 785 542 754 l 53 785 q -93 888 -93 785 q -86 919 -93 908 l 735 919 q 879 821 879 919 q 872 785 879 803 l 644 785 q 693 633 693 750 z "},"भ":{"ha":901,"x_min":10,"x_max":975,"o":"m 788 633 l 781 136 q 800 0 781 31 q 751 -8 778 -8 q 629 174 629 -8 q 633 385 629 268 l 385 385 q 297 253 367 253 q 180 315 236 253 q 124 435 124 376 q 246 525 124 518 q 249 649 249 589 q 189 796 249 796 q 146 769 160 796 q 132 700 132 743 q 151 628 132 657 q 125 622 143 622 q 42 671 75 622 q 10 779 10 719 q 45 880 10 839 q 143 921 81 921 q 312 804 238 921 q 392 524 386 688 q 635 511 536 518 q 636 653 636 553 q 617 785 636 754 l 567 785 q 422 888 422 785 q 428 919 422 910 l 829 919 q 975 821 975 919 q 967 785 975 799 l 739 785 q 788 633 788 750 z "},"म":{"ha":846,"x_min":-97,"x_max":919,"o":"m 328 592 l 328 524 q 579 511 481 518 q 581 653 581 553 q 561 785 581 754 l 278 785 q 319 715 310 761 q 328 592 328 668 m 732 633 l 725 136 q 744 0 725 31 q 696 -8 722 -8 q 574 174 574 -8 q 578 385 574 268 l 318 385 q 229 253 299 253 q 112 315 168 253 q 56 435 56 376 q 176 525 56 515 q 178 596 178 549 q 156 785 178 753 l 49 785 q -97 888 -97 785 q -92 919 -97 906 l 774 919 q 919 821 919 919 q 911 785 919 799 l 683 785 q 732 633 732 750 z "},"य":{"ha":832,"x_min":-61,"x_max":906,"o":"m 385 646 q 365 567 385 603 q 317 510 344 532 q 260 469 289 488 q 212 433 232 450 q 192 401 192 417 q 230 350 192 372 q 328 328 268 328 q 457 357 389 328 q 561 442 525 386 q 564 660 564 567 q 540 785 564 754 l 340 785 q 385 646 385 718 m 715 633 l 708 136 q 728 0 708 31 q 679 -8 706 -8 q 568 139 568 -8 q 581 258 568 186 q 385 199 501 199 q 158 294 268 199 q 49 478 49 389 q 156 583 49 524 q 229 644 196 607 q 263 722 263 682 q 242 785 263 761 l 83 785 q -61 888 -61 785 q -56 919 -61 906 l 760 919 q 906 821 906 919 q 897 785 906 799 l 667 785 q 715 633 715 750 z "},"र":{"ha":567,"x_min":-89,"x_max":633,"o":"m 489 919 q 633 821 633 919 q 626 785 633 803 l 396 785 q 492 549 492 675 q 424 381 492 446 q 254 315 356 315 l 251 315 q 323 177 278 228 q 450 126 368 126 q 494 133 471 126 q 508 74 508 106 q 484 15 508 42 q 413 -11 460 -11 q 158 335 251 -11 q 64 402 101 358 q 26 492 26 446 q 48 565 26 538 q 110 592 69 592 q 174 558 150 592 q 215 464 199 525 q 323 510 285 465 q 361 619 361 556 q 288 785 361 728 l 57 785 q -89 888 -89 785 q -82 919 -89 908 l 489 919 z "},"ऱ":{"ha":567,"x_min":-89,"x_max":633,"o":"m 31 -25 q 31 -9 31 -25 q 48 25 31 7 q 97 43 65 43 q 156 16 128 43 q 183 -42 183 -11 q 166 -92 183 -74 q 117 -111 149 -111 q 58 -84 85 -111 q 31 -25 31 -57 m 489 919 q 633 821 633 919 q 626 785 633 803 l 396 785 q 492 549 492 675 q 424 381 492 446 q 254 315 356 315 l 251 315 q 323 177 278 228 q 450 126 368 126 q 494 133 471 126 q 508 74 508 106 q 484 15 508 42 q 413 -11 460 -11 q 158 335 251 -11 q 64 402 101 358 q 26 492 26 446 q 48 565 26 538 q 110 592 69 592 q 174 558 150 592 q 215 464 199 525 q 323 510 285 465 q 361 619 361 556 q 288 785 361 728 l 57 785 q -89 888 -89 785 q -82 919 -89 908 l 489 919 z "},"ल":{"ha":1025,"x_min":-85,"x_max":1097,"o":"m 913 633 l 906 136 q 925 0 906 31 q 876 -8 903 -8 q 754 174 754 -8 q 760 469 754 236 q 686 483 725 483 q 569 408 604 483 q 582 326 582 371 q 560 245 582 282 q 493 208 539 208 q 419 249 447 208 q 392 348 392 290 q 428 472 392 406 q 333 504 389 504 q 244 461 278 504 q 210 353 210 418 q 369 39 210 192 q 324 11 354 11 q 249 45 293 11 q 162 132 204 79 q 90 258 119 185 q 61 400 61 331 q 122 569 61 507 q 283 631 182 631 q 478 547 383 631 q 642 619 547 619 q 761 583 708 619 l 761 650 q 742 785 761 754 l 61 785 q -85 888 -85 785 q -79 919 -85 906 l 953 919 q 1097 821 1097 919 q 1090 785 1097 803 l 864 785 q 913 633 913 750 z "},"ळ":{"ha":971,"x_min":-93,"x_max":1032,"o":"m 629 272 q 663 272 629 272 q 750 313 697 272 q 803 411 803 354 q 772 497 803 468 q 704 526 740 526 q 646 515 668 526 q 604 474 624 503 q 574 426 585 446 q 544 360 564 406 q 517 296 525 314 q 629 272 561 272 m 157 361 q 188 285 157 314 q 256 256 219 256 q 315 267 292 256 q 357 308 338 279 q 387 356 376 336 q 417 423 397 376 q 444 486 436 469 q 331 510 397 510 q 210 469 264 510 q 157 361 157 429 m 888 919 q 1032 821 1032 919 q 1025 785 1032 803 l 686 785 q 732 628 729 750 q 865 517 811 596 q 918 351 918 438 q 858 201 918 265 q 699 136 797 136 q 577 168 632 136 q 497 258 522 200 q 319 136 431 136 q 125 228 207 136 q 43 419 43 321 q 103 581 43 517 q 263 646 164 646 q 383 614 328 646 q 464 525 438 582 q 601 642 519 622 q 575 785 601 753 l 53 785 q -93 888 -93 785 q -86 919 -93 908 l 888 919 z "},"ऴ":{"ha":971,"x_min":-93,"x_max":1032,"o":"m 125 -11 q 125 5 125 -11 q 142 39 125 21 q 191 57 160 57 q 250 30 222 57 q 278 -28 278 3 q 260 -78 278 -60 q 211 -97 243 -97 q 152 -70 179 -97 q 125 -11 125 -43 m 629 272 q 663 272 629 272 q 750 313 697 272 q 803 411 803 354 q 772 497 803 468 q 704 526 740 526 q 646 515 668 526 q 604 474 624 503 q 574 426 585 446 q 544 360 564 406 q 517 296 525 314 q 629 272 561 272 m 157 361 q 188 285 157 314 q 256 256 219 256 q 315 267 292 256 q 357 308 338 279 q 387 356 376 336 q 417 423 397 376 q 444 486 436 469 q 331 510 397 510 q 210 469 264 510 q 157 361 157 429 m 888 919 q 1032 821 1032 919 q 1025 785 1032 803 l 686 785 q 732 628 729 750 q 865 517 811 596 q 918 351 918 438 q 858 201 918 265 q 699 136 797 136 q 577 168 632 136 q 497 258 522 200 q 319 136 431 136 q 125 228 207 136 q 43 419 43 321 q 103 581 43 517 q 263 646 164 646 q 383 614 328 646 q 464 525 438 582 q 601 642 519 622 q 575 785 601 753 l 53 785 q -93 888 -93 785 q -86 919 -93 908 l 888 919 z "},"व":{"ha":774,"x_min":-93,"x_max":846,"o":"m 506 453 l 507 650 q 489 785 507 754 l 53 785 q -93 888 -93 785 q -86 919 -93 908 l 700 919 q 846 821 846 919 q 838 785 846 799 l 610 785 q 658 633 658 750 l 651 136 q 671 0 651 31 q 622 -8 653 -8 q 534 32 561 -8 q 507 131 507 72 q 522 242 507 189 q 363 179 461 179 q 146 277 242 179 q 50 476 50 375 q 112 629 50 578 q 247 681 174 681 q 364 651 319 681 q 408 581 408 622 q 392 518 408 539 q 299 540 351 540 q 210 506 247 540 q 172 420 172 472 q 210 335 172 368 q 307 303 247 303 q 421 343 367 303 q 506 453 475 383 z "},"श":{"ha":997,"x_min":43,"x_max":1069,"o":"m 586 588 q 501 374 586 450 q 290 297 415 299 q 504 128 364 128 q 569 136 543 128 q 583 74 583 106 q 559 15 583 42 q 488 -11 535 -11 q 193 313 308 -11 q 85 381 128 336 q 43 481 43 425 q 64 535 43 513 q 125 557 85 557 q 197 517 165 557 q 246 428 229 478 q 400 491 339 429 q 461 657 461 553 q 437 755 461 713 q 376 797 413 797 q 320 772 339 797 q 301 710 301 747 q 325 633 301 672 q 383 574 349 593 q 336 550 368 550 q 223 611 279 550 q 167 748 167 672 q 208 872 167 824 q 321 919 249 919 q 457 864 393 919 q 553 733 521 808 q 586 588 586 658 m 725 174 l 731 649 q 722 753 731 728 q 676 810 713 779 q 639 888 639 840 q 644 919 639 906 l 925 919 q 1069 821 1069 919 q 1063 785 1069 803 l 832 785 q 882 633 882 750 l 876 136 q 894 0 876 29 q 847 -8 875 -8 q 725 174 725 -8 z "},"ष":{"ha":793,"x_min":-89,"x_max":865,"o":"m 525 497 q 526 649 526 543 q 507 785 526 754 l 192 785 q 475 546 260 758 q 525 497 507 514 m 233 615 l 232 475 q 338 346 232 346 q 503 422 431 346 q 222 685 363 565 q 233 615 233 653 m 678 633 l 671 136 q 690 0 671 28 q 642 -8 668 -8 q 549 36 578 -8 q 521 147 521 81 q 533 274 521 214 q 393 231 469 231 q 183 325 281 231 q 85 516 85 419 q 83 687 85 613 q 67 785 82 761 l 56 785 q -89 888 -89 785 q -83 919 -89 910 l 721 919 q 865 821 865 919 q 858 785 865 803 l 629 785 q 678 633 678 750 z "},"स":{"ha":1013,"x_min":-89,"x_max":1086,"o":"m 492 549 q 481 472 492 510 q 567 463 521 463 q 746 504 669 463 q 747 651 747 549 q 728 785 747 754 l 396 785 q 492 549 492 675 m 899 633 l 892 136 q 911 0 892 31 q 863 -8 889 -8 q 740 174 740 -8 q 743 346 740 224 q 668 340 715 340 q 439 397 544 340 q 254 315 371 315 l 251 315 q 323 177 278 228 q 450 126 368 126 q 494 133 471 126 q 508 74 508 106 q 484 15 508 42 q 413 -11 460 -11 q 158 335 251 -11 q 64 402 101 358 q 26 492 26 446 q 48 565 26 538 q 110 592 69 592 q 174 558 150 592 q 215 464 199 525 q 323 510 285 465 q 361 619 361 556 q 288 785 361 728 l 57 785 q -89 888 -89 785 q -82 919 -89 908 l 940 919 q 1086 821 1086 919 q 1078 785 1086 806 l 850 785 q 899 633 899 750 z "},"ह":{"ha":681,"x_min":-85,"x_max":761,"o":"m 278 674 l 392 672 q 435 685 421 672 q 450 717 450 697 q 403 785 450 761 l 61 785 q -85 888 -85 785 q -79 919 -85 906 l 617 919 q 761 821 761 919 q 754 785 761 803 l 508 785 q 571 653 571 725 q 534 571 571 603 q 429 539 497 539 l 310 540 q 233 517 258 540 q 208 460 208 493 q 229 396 208 428 q 353 422 286 422 q 550 347 468 422 q 632 186 632 271 q 597 94 632 131 q 514 57 561 57 q 435 81 467 57 q 399 147 404 104 q 478 178 450 153 q 507 236 507 203 q 482 290 507 269 q 414 310 457 310 q 290 263 346 310 q 233 132 233 217 q 313 -7 233 47 q 500 -61 393 -61 q 565 -54 531 -61 q 574 -93 574 -74 q 549 -129 574 -112 q 479 -146 524 -146 q 211 -48 326 -146 q 96 188 96 50 q 161 349 96 286 q 85 509 85 432 q 132 630 85 586 q 278 674 179 674 z "},"़":{"ha":0,"x_min":-431,"x_max":-278,"o":"m -344 -290 q -360 -290 -344 -290 q -403 -263 -376 -290 q -431 -204 -431 -236 q -413 -154 -431 -172 q -365 -136 -396 -136 q -306 -163 -333 -136 q -278 -222 -278 -190 q -295 -272 -278 -253 q -344 -290 -312 -290 z "},"ऽ":{"ha":721,"x_min":78,"x_max":639,"o":"m 272 583 q 246 604 272 583 q 185 676 221 625 q 150 778 150 728 q 174 858 150 828 q 243 901 197 889 q 386 919 310 919 q 494 917 463 919 q 561 906 526 914 q 626 822 626 888 q 619 786 626 807 q 460 788 558 788 q 335 773 363 788 q 307 725 307 758 q 341 653 307 692 q 424 575 375 614 q 522 493 472 536 q 605 393 571 450 q 639 275 639 336 q 578 133 639 186 q 408 81 517 81 q 189 165 300 81 q 78 318 78 250 q 110 363 78 350 q 367 213 236 213 q 459 240 425 213 q 493 314 493 267 q 458 409 493 361 q 372 499 422 457 q 272 583 322 540 z "},"ा":{"ha":388,"x_min":-97,"x_max":460,"o":"m 115 174 l 121 650 q 103 785 121 757 l 49 785 q -97 888 -97 785 q -92 919 -97 906 l 315 919 q 460 821 460 919 q 453 785 460 803 l 224 785 q 272 633 272 750 l 267 136 q 285 0 267 29 q 238 -8 265 -8 q 115 174 115 -8 z "},"ि":{"ha":388,"x_min":-97,"x_max":940,"o":"m 92 919 q 58 1094 58 1036 q 132 1253 58 1196 q 317 1311 206 1311 q 545 1276 428 1311 q 747 1194 663 1242 q 885 1098 831 1146 q 940 1024 940 1050 q 914 983 940 997 q 645 1125 785 1074 q 407 1176 506 1176 q 197 1017 197 1176 q 211 919 197 965 l 315 919 q 460 821 460 919 q 453 785 460 803 l 256 785 q 272 656 272 725 l 267 136 q 285 0 267 29 q 238 -8 265 -8 q 115 174 115 -8 l 121 660 q 115 785 121 713 l 49 785 q -97 888 -97 785 q -92 919 -97 906 l 92 919 z "},"ी":{"ha":388,"x_min":-321,"x_max":460,"o":"m 115 174 l 121 669 q 118 785 121 713 l 49 785 q -97 888 -97 785 q -92 919 -97 906 l 104 919 q -86 1183 60 1183 q -162 1152 -133 1183 q -190 1076 -190 1121 q -161 993 -190 1031 q -197 982 -174 982 q -285 1031 -249 982 q -321 1149 -321 1081 q -272 1265 -321 1218 q -146 1313 -222 1313 q 82 1201 -18 1313 q 233 919 182 1090 l 315 919 q 460 821 460 919 q 453 785 460 803 l 263 785 q 272 656 272 725 l 267 136 q 285 0 267 29 q 238 -8 265 -8 q 115 174 115 -8 z "},"ु":{"ha":0,"x_min":-587,"x_max":21,"o":"m 21 -182 q 21 -223 21 -182 q -37 -313 21 -264 q -187 -362 -96 -362 q -376 -313 -279 -362 q -531 -203 -474 -264 q -587 -104 -587 -143 q -556 -54 -587 -65 q -402 -190 -486 -140 q -244 -240 -318 -240 q -130 -210 -171 -240 q -89 -137 -89 -179 q -104 -101 -89 -115 q -149 -86 -119 -86 q -204 -106 -178 -86 q -240 -157 -231 -126 q -302 -126 -279 -153 q -325 -65 -325 -100 q -292 0 -325 -29 q -206 29 -260 29 q -51 -35 -122 29 q 21 -182 21 -100 z "},"ू":{"ha":0,"x_min":-396,"x_max":215,"o":"m -168 -364 q -323 -297 -250 -364 q -396 -149 -396 -231 q -338 -21 -396 -68 q -200 26 -281 26 q -42 -10 -119 26 q 91 -97 36 -46 q 181 -201 146 -147 q 215 -283 215 -254 q 201 -326 215 -312 q 174 -340 188 -339 q 100 -232 142 -282 q -10 -140 58 -182 q -144 -97 -78 -97 q -247 -127 -210 -97 q -283 -197 -283 -157 q -269 -233 -283 -219 q -226 -247 -254 -247 q -172 -228 -197 -247 q -136 -182 -147 -210 q -77 -212 -99 -186 q -56 -274 -56 -237 q -87 -337 -56 -310 q -168 -364 -118 -364 z "},"ृ":{"ha":0,"x_min":-437,"x_max":46,"o":"m -165 -344 q -213 -344 -165 -344 q -349 -272 -261 -344 q -437 -103 -437 -199 q -381 43 -437 -8 q -253 94 -325 94 q -181 69 -211 94 q -150 -8 -150 43 q -268 -56 -224 -15 q -312 -142 -312 -96 q -285 -211 -312 -187 q -208 -235 -258 -235 q -112 -195 -158 -235 q -51 -96 -65 -156 q 17 -128 -12 -100 q 46 -206 46 -157 q -11 -300 46 -256 q -165 -344 -68 -344 z "},"ॄ":{"ha":0,"x_min":-418,"x_max":58,"o":"m -25 -365 q 33 -396 8 -369 q 58 -466 58 -422 q 11 -546 58 -510 q -116 -582 -36 -582 q -275 -515 -196 -582 q -354 -358 -354 -449 q -312 -251 -354 -293 q -418 -67 -418 -178 q -367 50 -418 6 q -264 94 -317 94 q -181 69 -211 94 q -150 -8 -150 43 q -256 -47 -215 -14 q -297 -115 -297 -79 q -277 -169 -297 -150 q -226 -187 -257 -187 q -133 -146 -168 -187 q -95 -169 -111 -151 q -79 -217 -79 -187 q -105 -270 -79 -247 q -160 -305 -131 -293 q -216 -341 -190 -317 q -242 -399 -242 -365 q -219 -451 -242 -432 q -153 -472 -196 -472 q -74 -442 -111 -472 q -25 -365 -36 -411 z "},"ॅ":{"ha":0,"x_min":-478,"x_max":74,"o":"m -219 1165 q -95 1196 -153 1165 q -8 1288 -37 1226 q 49 1259 24 1285 q 74 1199 74 1233 q -2 1087 74 1128 q -165 1046 -78 1046 q -383 1108 -287 1046 q -478 1229 -478 1169 q -446 1279 -478 1264 q -219 1165 -361 1165 z "},"ॆ":{"ha":0,"x_min":-711,"x_max":-121,"o":"m -608 1199 q -608 1183 -608 1199 q -589 1151 -608 1167 q -535 1136 -569 1136 q -438 1163 -501 1136 q -336 1189 -375 1189 q -185 1116 -249 1189 q -121 953 -121 1043 q -161 847 -121 893 q -268 800 -201 800 q -336 826 -308 800 q -364 890 -364 853 q -358 919 -364 900 q -265 943 -306 919 q -224 999 -224 967 q -294 1061 -224 1061 q -394 1035 -331 1061 q -496 1008 -458 1008 q -648 1081 -585 1008 q -711 1244 -711 1154 q -671 1351 -711 1304 q -565 1397 -631 1397 q -497 1372 -525 1397 q -469 1307 -469 1346 q -474 1278 -469 1292 q -567 1255 -526 1278 q -608 1199 -608 1232 z "},"े":{"ha":0,"x_min":-617,"x_max":-157,"o":"m -450 1140 q -531 1086 -504 1140 q -594 1126 -571 1094 q -617 1198 -617 1157 q -586 1268 -617 1239 q -495 1297 -556 1297 q -367 1246 -435 1297 q -256 1126 -300 1194 q -185 999 -212 1058 q -157 915 -157 939 q -208 867 -157 867 q -450 1140 -335 1140 z "},"ै":{"ha":0,"x_min":-681,"x_max":-161,"o":"m -499 1296 q -499 1319 -499 1296 q -470 1369 -499 1342 q -391 1397 -442 1397 q -292 1351 -340 1397 q -217 1236 -243 1306 q -161 961 -161 1093 q -171 899 -161 922 q -214 867 -181 875 q -485 1057 -382 1057 q -545 1038 -519 1057 q -579 985 -571 1018 q -649 1015 -618 985 q -681 1090 -681 1044 q -644 1164 -681 1135 q -556 1193 -608 1193 q -387 1135 -472 1193 q -237 1000 -301 1078 q -394 1244 -283 1244 q -457 1219 -431 1244 q -499 1296 -499 1250 z "},"ॉ":{"ha":388,"x_min":-115,"x_max":457,"o":"m 197 1046 q -20 1108 75 1046 q -115 1229 -115 1169 q -83 1279 -115 1264 q 143 1165 1 1165 q 267 1196 210 1165 q 354 1288 325 1226 q 411 1259 386 1285 q 436 1199 436 1233 q 360 1087 436 1128 q 197 1046 285 1046 m 113 174 l 118 650 q 100 785 118 757 l 46 785 q -100 888 -100 785 q -94 919 -100 906 l 313 919 q 457 821 457 919 q 450 785 457 803 l 221 785 q 269 633 269 750 l 264 136 q 282 0 264 29 q 235 -8 263 -8 q 113 174 113 -8 z "},"ॊ":{"ha":388,"x_min":-312,"x_max":460,"o":"m 115 174 l 121 650 q 103 785 121 757 l 49 785 q -97 888 -97 785 q -92 919 -97 906 l 40 919 q 135 943 94 919 q 175 999 175 967 q 104 1061 175 1061 q 5 1035 68 1061 q -97 1008 -58 1008 q -249 1081 -185 1008 q -312 1244 -312 1154 q -272 1351 -312 1304 q -165 1397 -232 1397 q -97 1372 -125 1397 q -69 1307 -69 1346 q -75 1278 -69 1297 q -169 1255 -128 1278 q -210 1200 -210 1232 q -139 1136 -210 1136 q -40 1163 -103 1136 q 63 1189 24 1189 q 215 1117 151 1189 q 278 953 278 1044 q 275 919 278 942 l 315 919 q 460 821 460 919 q 453 785 460 803 l 224 785 q 272 633 272 750 l 267 136 q 285 0 267 29 q 238 -8 265 -8 q 115 174 115 -8 z "},"ो":{"ha":388,"x_min":-229,"x_max":457,"o":"m 113 174 l 118 650 q 100 785 118 757 l 46 785 q -100 888 -100 785 q -94 919 -100 906 l 153 919 q -62 1140 40 1140 q -143 1086 -117 1140 q -206 1126 -183 1094 q -229 1198 -229 1157 q -199 1268 -229 1239 q -108 1297 -168 1297 q 17 1248 -49 1297 q 127 1132 83 1199 q 199 1006 171 1065 q 231 919 228 947 l 313 919 q 457 821 457 919 q 450 785 457 803 l 221 785 q 269 633 269 750 l 264 136 q 282 0 264 29 q 235 -8 263 -8 q 113 174 113 -8 z "},"ौ":{"ha":388,"x_min":-276,"x_max":457,"o":"m 113 174 l 118 650 q 100 785 118 757 l 46 785 q -100 888 -100 785 q -94 919 -100 906 l 142 919 q -81 1057 10 1057 q -141 1038 -115 1057 q -175 985 -167 1018 q -245 1015 -214 985 q -276 1090 -276 1044 q -240 1164 -276 1135 q -151 1193 -204 1193 q 17 1135 -68 1193 q 167 1000 103 1078 q 10 1244 121 1244 q -53 1219 -26 1244 q -94 1296 -94 1250 q -66 1369 -94 1342 q 13 1397 -37 1397 q 113 1351 64 1397 q 189 1236 161 1306 q 243 961 243 1093 q 240 919 243 932 l 313 919 q 457 821 457 919 q 450 785 457 803 l 221 785 q 269 633 269 750 l 264 136 q 282 0 264 29 q 235 -8 263 -8 q 113 174 113 -8 z "},"्":{"ha":0,"x_min":-325,"x_max":78,"o":"m -311 -197 q -325 -142 -325 -175 q -297 -83 -325 -110 q -212 -57 -268 -57 q -83 -110 -156 -57 q 33 -226 -11 -164 q 78 -319 78 -289 q 51 -358 78 -350 q -229 -181 -90 -181 q -311 -197 -269 -181 z "},"ॐ":{"ha":1293,"x_min":56,"x_max":1224,"o":"m 786 1183 q 786 1163 786 1183 q 763 1119 786 1143 q 699 1094 740 1094 q 624 1129 658 1094 q 589 1205 589 1164 q 612 1269 589 1246 q 675 1292 635 1292 q 751 1257 715 1292 q 786 1183 786 1222 m 747 879 q 684 879 747 879 q 528 940 622 879 q 433 1063 433 1001 q 465 1113 433 1097 q 692 997 550 997 q 815 1028 757 997 q 903 1119 874 1060 q 960 1091 935 1117 q 985 1024 985 1065 q 944 947 985 983 q 747 879 871 879 m 938 779 q 1135 666 1047 779 q 1224 424 1224 553 q 1151 205 1224 294 q 975 115 1078 115 q 894 144 926 115 q 863 228 863 172 q 1031 312 968 228 q 1093 513 1093 396 q 1069 606 1093 563 q 1001 650 1044 650 q 931 617 957 650 q 885 535 904 583 q 845 440 867 488 q 783 360 824 393 q 686 326 743 326 q 635 336 661 326 q 650 249 650 290 q 592 109 650 164 q 445 54 535 54 q 282 91 356 54 q 161 179 208 128 q 85 280 114 231 q 56 357 56 329 q 104 413 56 401 q 224 255 150 319 q 389 190 297 190 q 487 223 447 190 q 526 314 526 256 q 510 376 526 350 q 478 411 493 403 q 377 390 432 390 q 279 417 322 390 q 236 488 236 444 q 264 552 236 531 q 340 574 292 574 q 429 551 388 574 q 503 665 503 603 q 474 726 503 706 q 397 747 444 747 q 226 686 301 747 q 178 767 178 718 q 226 844 178 817 q 338 872 274 872 q 533 794 451 872 q 615 607 615 717 q 554 461 615 519 q 624 438 589 438 q 687 473 658 438 q 735 558 715 508 q 776 658 754 608 q 840 744 799 708 q 938 779 881 779 z "},"क़":{"ha":1067,"x_min":-93,"x_max":1128,"o":"m 161 46 q 161 62 161 46 q 178 96 161 78 q 227 114 196 114 q 286 87 258 114 q 314 28 314 60 q 297 -22 314 -3 q 247 -40 279 -40 q 188 -13 215 -40 q 161 46 161 14 m 606 410 l 601 136 q 621 0 601 31 q 572 -8 599 -8 q 460 129 460 -8 q 471 240 460 182 q 321 182 419 182 q 135 272 222 182 q 47 475 47 361 q 101 611 47 553 q 238 669 154 669 q 322 638 289 669 q 354 564 354 607 q 351 547 354 561 q 328 549 340 549 q 306 546 317 549 q 206 499 244 539 q 168 410 168 460 q 201 330 168 360 q 278 300 233 300 q 454 425 379 300 q 457 652 457 550 q 438 785 457 754 l 53 785 q -93 888 -93 785 q -86 919 -93 908 l 983 919 q 1128 821 1128 919 q 1121 785 1128 803 l 561 785 q 600 675 600 751 q 594 600 600 633 q 728 656 650 656 q 922 565 833 656 q 1010 361 1010 475 q 956 226 1010 283 q 819 168 903 168 q 735 199 768 168 q 703 272 703 229 q 706 289 703 275 q 722 289 711 289 q 847 333 804 289 q 889 427 889 376 q 857 507 889 478 q 779 536 825 536 q 606 410 676 536 z "},"ख़":{"ha":1114,"x_min":-69,"x_max":1186,"o":"m 74 -4 q 74 12 74 -4 q 91 46 74 28 q 140 64 108 64 q 199 37 171 64 q 226 -22 226 10 q 209 -72 226 -53 q 160 -90 192 -90 q 101 -63 128 -90 q 74 -4 74 -36 m 854 643 q 829 785 854 758 l 349 785 q 443 551 443 678 q 387 404 443 464 q 232 339 331 344 q 349 218 271 261 q 519 175 428 175 q 753 258 657 175 q 850 461 850 342 q 826 541 850 507 q 759 575 803 575 q 693 544 715 575 q 671 472 671 513 q 687 397 671 431 q 728 347 703 364 q 682 331 708 331 q 576 381 624 331 q 528 508 528 431 q 578 633 528 585 q 709 682 629 682 q 854 624 789 682 l 854 643 m 999 633 l 993 136 q 1011 0 993 29 q 964 -8 992 -8 q 858 117 858 -8 q 864 188 858 154 q 734 87 817 126 q 553 47 651 47 q 301 131 422 47 q 132 357 181 214 q 56 415 86 378 q 26 491 26 453 q 46 551 26 529 q 100 574 65 574 q 197 458 171 574 q 278 510 249 471 q 308 608 308 550 q 249 785 308 711 l 75 785 q -69 888 -69 785 q -64 919 -69 910 l 1042 919 q 1186 821 1186 919 q 1179 785 1186 803 l 950 785 q 999 633 999 750 z "},"ग़":{"ha":826,"x_min":-97,"x_max":899,"o":"m 128 92 q 128 108 128 92 q 145 142 128 124 q 194 160 163 160 q 253 133 225 160 q 281 74 281 106 q 263 24 281 43 q 214 6 246 6 q 155 33 182 6 q 128 92 128 60 m 553 174 l 560 650 q 540 785 560 754 l 253 785 q 339 646 307 728 q 371 479 371 564 q 328 347 371 394 q 221 300 286 300 q 103 347 156 300 q 50 461 50 394 q 72 519 50 499 q 125 540 93 540 q 211 483 181 540 q 231 572 231 513 q 201 690 231 632 q 131 785 172 749 l 49 785 q -97 888 -97 785 q -92 919 -97 906 l 754 919 q 899 821 899 919 q 892 785 899 803 l 663 785 q 711 633 711 750 l 704 136 q 724 0 704 28 q 675 -8 701 -8 q 553 174 553 -8 z "},"ज़":{"ha":982,"x_min":-79,"x_max":1054,"o":"m 458 -14 q 458 2 458 -14 q 476 36 458 18 q 524 54 493 54 q 583 27 556 54 q 611 -31 611 0 q 594 -81 611 -62 q 544 -100 576 -100 q 485 -73 513 -100 q 458 -14 458 -46 m 711 174 l 715 486 l 476 486 q 557 301 557 401 q 511 185 557 228 q 390 142 465 142 q 240 194 314 142 q 119 317 165 246 q 47 454 74 388 q 19 557 19 521 q 72 615 19 613 q 197 371 125 460 q 343 282 269 282 q 411 308 388 282 q 435 372 435 333 q 382 488 435 432 q 261 590 261 494 q 267 622 261 608 l 717 622 l 717 642 q 699 785 717 756 l 65 785 q -79 888 -79 785 q -74 919 -79 910 l 910 919 q 1054 821 1054 919 q 1047 785 1054 803 l 819 785 q 868 633 868 750 l 863 136 q 881 0 863 29 q 833 -8 861 -8 q 711 174 711 -8 z "},"ड़":{"ha":722,"x_min":-85,"x_max":822,"o":"m 321 -158 q 321 -142 321 -158 q 338 -108 321 -126 q 387 -90 356 -90 q 446 -117 418 -90 q 474 -176 474 -144 q 456 -226 474 -207 q 407 -244 439 -244 q 348 -217 375 -244 q 321 -158 321 -190 m 522 299 l 351 289 q 177 361 254 289 q 100 532 100 433 q 149 647 100 606 q 287 688 199 688 q 436 687 375 688 q 497 732 497 686 q 465 785 497 761 l 61 785 q -85 888 -85 785 q -79 919 -85 906 l 676 919 q 822 821 822 919 q 814 785 822 806 l 567 785 q 619 674 619 729 q 583 585 619 618 q 471 551 546 551 l 343 553 q 206 485 206 553 q 227 442 206 457 q 283 428 249 428 l 457 438 q 626 366 556 438 q 696 206 696 294 q 633 65 696 118 q 464 13 569 13 q 173 92 304 13 q 42 239 42 171 q 74 282 42 269 q 212 183 128 219 q 386 147 296 147 q 532 174 476 147 q 588 244 588 200 q 571 283 588 268 q 522 299 554 299 z "},"ढ़":{"ha":697,"x_min":-101,"x_max":771,"o":"m 294 -112 q 294 -97 294 -112 q 312 -62 294 -81 q 360 -44 329 -44 q 419 -72 392 -44 q 447 -130 447 -99 q 430 -180 447 -161 q 381 -199 413 -199 q 322 -172 349 -199 q 294 -112 294 -144 m 626 919 q 771 821 771 919 q 764 785 771 803 l 497 785 q 547 688 547 740 q 508 601 547 636 q 411 544 468 567 q 298 496 354 521 q 202 426 242 471 q 163 311 163 381 q 224 193 163 242 q 365 144 285 144 q 494 187 444 144 q 543 283 543 229 q 527 328 543 311 q 488 344 511 344 q 446 326 465 344 q 423 286 426 307 q 419 253 419 265 q 421 225 419 242 q 381 219 410 219 q 322 249 351 219 q 292 329 292 278 q 333 417 292 381 q 433 453 374 453 q 593 388 522 453 q 664 231 664 322 q 594 86 664 140 q 414 32 524 32 q 157 133 281 32 q 33 368 33 233 q 73 505 33 447 q 169 593 113 563 q 281 647 225 624 q 377 692 338 669 q 417 740 417 715 q 393 785 417 764 l 43 785 q -101 888 -101 785 q -96 919 -101 910 l 626 919 z "},"फ़":{"ha":1085,"x_min":-89,"x_max":1150,"o":"m 107 126 q 107 142 107 126 q 124 176 107 158 q 173 194 142 194 q 232 167 204 194 q 260 109 260 140 q 242 59 260 78 q 193 40 225 40 q 134 67 161 40 q 107 126 107 94 m 469 439 l 471 650 q 453 785 471 754 l 182 785 q 229 633 229 750 l 228 494 q 333 365 228 365 q 469 439 407 365 m 1006 919 q 1150 821 1150 919 q 1143 785 1150 803 l 574 785 q 613 675 613 751 q 608 596 613 629 q 749 653 665 653 q 944 562 857 653 q 1032 356 1032 471 q 978 218 1032 276 q 839 160 924 160 q 754 191 789 160 q 719 267 719 222 q 721 285 719 276 q 752 283 736 283 q 782 286 768 283 q 876 333 840 294 q 911 423 911 372 q 878 503 911 474 q 800 533 846 533 q 619 404 696 533 q 615 151 615 271 q 635 0 615 31 q 586 -8 615 -8 q 494 38 522 -8 q 465 147 465 83 q 474 268 465 211 q 389 250 433 250 q 175 340 271 250 q 79 526 79 431 l 79 690 q 61 785 78 761 l 56 785 q -89 888 -89 785 q -83 919 -89 910 l 1006 919 z "},"य़":{"ha":832,"x_min":-61,"x_max":906,"o":"m 138 53 q 138 69 138 53 q 155 103 138 85 q 203 121 172 121 q 263 94 235 121 q 290 35 290 67 q 273 -15 290 4 q 224 -33 256 -33 q 165 -6 192 -33 q 138 53 138 21 m 385 646 q 365 567 385 603 q 317 510 344 532 q 260 469 289 488 q 212 433 232 450 q 192 401 192 417 q 230 350 192 372 q 328 328 268 328 q 457 357 389 328 q 561 442 525 386 q 564 660 564 567 q 540 785 564 754 l 340 785 q 385 646 385 718 m 715 633 l 708 136 q 728 0 708 31 q 679 -8 706 -8 q 568 139 568 -8 q 581 258 568 186 q 385 199 501 199 q 158 294 268 199 q 49 478 49 389 q 156 583 49 524 q 229 644 196 607 q 263 722 263 682 q 242 785 263 761 l 83 785 q -61 888 -61 785 q -56 919 -61 906 l 760 919 q 906 821 906 919 q 897 785 906 799 l 667 785 q 715 633 715 750 z "},"ॠ":{"ha":1082,"x_min":-97,"x_max":1154,"o":"m 1010 919 q 1154 821 1154 919 q 1147 785 1154 803 l 526 785 q 575 633 575 750 q 572 444 575 572 l 574 444 q 754 501 697 444 q 714 599 714 557 q 739 668 714 642 q 804 694 764 694 q 881 653 844 694 q 918 553 918 611 q 879 442 918 496 q 946 324 946 375 q 895 222 946 272 q 844 144 844 171 q 901 90 844 90 q 987 128 947 90 q 1039 217 1026 165 q 1117 126 1117 200 q 1067 35 1117 71 q 942 0 1017 0 q 797 53 867 0 q 728 181 728 106 q 755 249 728 217 q 809 308 782 281 q 836 353 836 335 q 826 389 836 372 q 626 328 742 328 q 571 332 596 328 q 568 115 568 201 q 586 0 568 29 q 539 -8 567 -8 q 419 146 419 -8 q 438 300 419 228 q 133 171 246 171 q 52 197 86 171 q 18 281 18 222 q 367 422 140 281 q 345 437 361 425 q 324 452 329 449 q 304 465 318 456 q 283 479 290 475 q 263 490 275 483 q 241 500 250 497 q 219 506 232 503 q 170 513 199 513 q 116 496 142 513 q 81 450 90 479 q 32 487 51 461 q 13 553 13 513 q 47 621 13 593 q 134 649 81 649 q 234 624 188 649 q 337 554 281 600 q 422 490 393 508 q 424 647 424 539 q 404 785 424 754 l 49 785 q -97 888 -97 785 q -92 919 -97 906 l 1010 919 z "},"ॡ":{"ha":1006,"x_min":-97,"x_max":1079,"o":"m 743 633 l 743 589 q 863 490 815 554 q 911 363 911 426 q 884 253 911 300 q 825 181 857 207 q 739 64 739 107 q 754 27 739 40 q 794 14 769 14 q 882 74 850 14 q 935 41 917 64 q 953 -12 953 18 q 930 -68 953 -42 q 878 -109 907 -94 q 827 -149 850 -124 q 804 -201 804 -174 q 820 -244 804 -228 q 872 -260 836 -260 q 942 -227 907 -260 q 990 -149 978 -194 q 1049 -177 1024 -151 q 1075 -246 1075 -203 q 1029 -326 1075 -289 q 906 -364 983 -364 q 760 -307 828 -364 q 692 -176 692 -250 q 736 -54 692 -101 q 653 17 686 -29 q 621 111 621 64 q 646 196 621 158 q 700 258 671 233 q 754 320 729 282 q 779 401 779 358 q 751 471 779 444 q 679 497 722 497 q 547 408 594 497 q 558 333 558 371 q 538 261 558 294 q 474 228 517 228 q 405 265 431 228 q 379 359 379 303 q 411 472 379 415 q 315 504 372 504 q 226 461 258 504 q 193 349 193 418 q 314 39 193 197 q 267 11 300 11 q 180 72 233 11 q 85 229 126 133 q 43 420 43 325 q 103 571 43 515 q 253 626 163 626 q 458 543 367 626 q 592 615 515 604 l 592 650 q 574 785 592 757 l 49 785 q -97 888 -97 785 q -92 919 -97 906 l 933 919 q 1079 821 1079 919 q 1071 785 1079 799 l 694 785 q 743 633 743 750 z "},"।":{"ha":750,"x_min":332,"x_max":513,"o":"m 501 744 q 494 136 501 744 q 513 -1 494 29 q 465 -8 492 -8 q 343 174 343 -8 q 347 412 343 232 q 351 783 351 592 q 332 918 351 888 q 381 926 351 926 q 501 744 501 926 z "},"॥":{"ha":1001,"x_min":332,"x_max":851,"o":"m 501 744 q 494 136 501 744 q 513 -1 494 29 q 465 -8 492 -8 q 343 174 343 -8 q 347 412 343 232 q 351 783 351 592 q 332 918 351 888 q 381 926 351 926 q 501 744 501 926 m 839 744 l 832 136 q 851 -1 832 29 q 803 -8 829 -8 q 681 174 681 -8 q 685 412 681 232 q 689 783 689 592 q 669 918 689 888 q 718 926 689 926 q 839 744 839 926 z "},"०":{"ha":703,"x_min":78,"x_max":631,"o":"m 342 762 q 405 762 342 762 q 549 672 467 763 q 631 450 631 582 q 562 236 631 318 q 370 154 493 154 q 163 244 247 154 q 78 463 78 333 q 148 677 78 593 q 342 762 218 761 m 332 251 q 442 322 396 251 q 488 501 488 392 q 381 664 488 664 q 272 596 318 664 q 225 418 225 528 q 332 251 225 251 z "},"१":{"ha":639,"x_min":85,"x_max":557,"o":"m 557 626 q 510 499 557 556 q 406 413 463 442 q 301 358 349 385 q 254 310 254 331 q 284 258 254 290 q 350 196 314 225 q 416 124 386 167 q 446 38 446 82 q 416 -30 446 -7 q 351 -53 386 -53 q 257 4 286 -53 q 293 74 293 33 q 260 155 293 114 q 189 227 228 196 q 117 298 150 258 q 85 372 85 338 q 122 435 85 406 q 211 489 158 465 q 316 538 264 513 q 405 604 368 564 q 442 690 442 644 q 415 769 442 735 q 340 803 389 803 q 260 767 290 803 q 229 675 229 732 q 278 572 229 618 q 247 565 267 565 q 140 618 185 565 q 94 744 94 671 q 149 872 94 818 q 297 925 204 925 q 473 837 389 925 q 557 626 557 749 z "},"२":{"ha":676,"x_min":58,"x_max":606,"o":"m 525 60 q 569 67 546 60 q 582 8 582 42 q 558 -52 582 -26 q 488 -78 535 -78 q 210 279 311 -78 q 102 347 146 299 q 58 456 58 394 q 81 516 58 490 q 139 542 103 542 q 261 414 224 542 q 430 478 363 421 q 497 613 497 536 q 451 735 497 689 q 325 781 406 781 q 174 721 244 781 q 138 757 154 732 q 122 814 122 782 q 171 900 122 868 q 282 932 219 932 q 508 817 411 932 q 606 558 606 703 q 517 356 606 438 q 301 268 428 275 q 383 115 333 169 q 525 60 432 60 z "},"३":{"ha":665,"x_min":68,"x_max":592,"o":"m 500 526 q 592 333 592 431 q 520 177 592 235 q 344 119 449 119 q 288 124 317 119 q 422 15 335 15 q 478 35 456 15 q 507 -37 507 3 q 480 -103 507 -76 q 399 -131 453 -131 q 299 -83 346 -131 q 232 22 253 -36 q 203 144 211 79 q 68 297 68 196 q 90 351 68 328 q 151 375 111 375 q 219 340 190 375 q 258 249 247 304 q 301 244 279 244 q 417 281 368 244 q 467 378 467 317 q 431 472 467 440 q 330 451 388 451 q 229 478 272 451 q 186 548 186 504 q 215 613 186 592 q 288 633 243 633 q 379 613 333 633 q 449 721 449 664 q 419 782 449 761 q 342 803 389 803 q 246 785 296 803 q 161 738 196 767 q 113 818 113 767 q 163 899 113 869 q 282 928 214 928 q 478 850 396 928 q 560 663 560 772 q 500 526 560 583 z "},"४":{"ha":714,"x_min":22,"x_max":651,"o":"m 256 187 q 272 171 256 187 q 335 156 288 156 q 415 188 382 156 q 449 269 449 221 q 354 443 449 356 q 224 268 224 338 q 256 187 224 218 m 542 892 q 622 859 592 892 q 651 784 651 826 q 634 705 651 742 q 581 631 617 668 q 429 501 525 574 q 597 253 597 365 q 533 110 597 167 q 383 54 469 54 q 178 136 263 54 q 93 311 93 218 q 233 542 93 424 q 153 604 175 586 q 92 660 131 622 q 22 788 22 726 q 53 880 22 850 q 128 910 85 910 q 201 881 171 910 q 231 808 231 853 q 197 789 213 804 q 181 744 181 774 q 211 681 181 715 q 303 597 242 646 q 464 728 429 692 q 525 856 524 794 q 519 890 525 874 l 542 892 z "},"५":{"ha":761,"x_min":44,"x_max":764,"o":"m 750 83 q 764 23 764 60 q 740 -40 764 -14 q 669 -65 717 -65 q 451 221 531 -65 q 390 215 425 215 q 148 306 251 215 q 44 532 44 397 q 165 793 44 667 q 385 919 285 919 q 467 890 442 919 q 493 833 493 860 q 278 688 378 797 q 179 463 179 579 q 217 365 179 404 q 315 326 254 326 q 418 344 375 326 q 406 423 406 378 q 435 499 406 468 q 508 529 465 529 q 584 491 550 529 q 618 390 618 453 q 532 250 618 300 q 594 124 554 169 q 706 78 635 78 q 750 83 732 78 z "},"६":{"ha":692,"x_min":50,"x_max":664,"o":"m 664 1 q 633 -85 664 -50 q 558 -121 603 -121 q 483 -97 513 -121 q 449 -33 454 -72 q 544 64 544 -15 q 528 133 544 96 q 399 108 472 108 q 172 199 268 108 q 76 392 76 290 q 129 531 76 471 q 50 706 50 607 q 126 863 50 806 q 296 921 201 921 q 451 887 390 921 q 511 792 511 853 q 490 742 511 761 q 349 789 425 789 q 225 753 274 789 q 176 656 176 718 q 197 585 176 617 q 314 615 256 615 q 409 590 372 615 q 446 525 446 564 q 411 466 446 486 q 336 446 376 446 q 258 457 296 446 q 201 349 201 413 q 240 251 201 285 q 338 218 278 218 q 456 249 399 218 q 442 308 442 276 q 467 364 442 340 q 531 388 492 388 q 601 351 569 388 q 632 265 632 314 q 589 174 632 217 q 664 1 664 82 z "},"७":{"ha":872,"x_min":7,"x_max":822,"o":"m 485 217 q 646 300 593 217 q 699 497 699 383 q 660 674 699 610 q 564 738 621 738 q 494 709 522 738 q 467 629 467 681 q 499 536 467 578 q 593 472 532 494 q 635 460 618 463 q 556 403 621 403 q 391 476 468 403 q 314 657 314 550 q 370 794 314 740 q 507 849 426 849 q 727 736 632 849 q 822 453 822 624 q 737 182 822 282 q 510 82 651 82 q 314 142 403 82 q 170 290 225 201 q 76 488 115 379 q 22 688 38 596 q 7 853 7 781 q 81 925 7 925 q 225 405 119 593 q 485 217 331 217 z "},"८":{"ha":671,"x_min":42,"x_max":621,"o":"m 621 239 q 556 113 621 169 q 365 56 492 56 q 140 145 238 56 q 42 358 42 235 q 139 593 42 482 q 406 900 260 726 l 449 951 q 525 857 525 929 q 463 726 525 800 q 385 637 439 699 q 296 533 331 575 q 174 300 174 392 q 210 209 174 243 q 309 175 247 175 q 435 216 371 175 q 544 346 499 257 q 601 303 581 332 q 621 239 621 274 z "},"९":{"ha":628,"x_min":22,"x_max":572,"o":"m 315 797 q 288 797 315 797 q 217 747 261 797 q 174 636 174 697 q 203 519 174 575 q 277 419 233 463 q 373 327 321 375 q 469 238 425 279 q 542 147 513 197 q 572 44 572 97 q 540 -42 572 -8 q 461 -75 507 -75 q 356 -4 392 -75 q 424 85 424 26 q 281 292 424 157 q 164 410 222 349 q 64 548 106 472 q 22 709 22 624 q 90 859 22 794 q 276 924 157 924 q 483 836 394 924 q 571 656 571 749 q 522 511 571 564 q 404 458 474 458 q 308 528 335 458 q 394 593 360 550 q 428 687 428 636 q 399 767 428 738 q 315 797 369 797 z "},"॰":{"ha":547,"x_min":71,"x_max":501,"o":"m 443 294 q 414 262 443 294 q 283 229 385 229 q 126 288 182 229 q 71 433 71 347 q 129 585 71 519 q 289 650 188 650 q 446 590 390 650 q 501 445 501 531 q 443 294 501 360 m 358 521 q 345 539 358 521 q 286 557 332 557 q 215 524 240 557 q 189 443 189 490 q 215 360 189 396 q 288 324 242 324 q 358 357 333 324 q 383 438 383 390 q 358 521 383 485 z "},"ॲ":{"ha":1061,"x_min":32,"x_max":1133,"o":"m 864 1046 q 647 1108 742 1046 q 551 1229 551 1169 q 583 1279 551 1264 q 810 1165 668 1165 q 934 1196 876 1165 q 1021 1288 992 1226 q 1078 1259 1053 1285 q 1103 1199 1103 1233 q 1027 1087 1103 1128 q 864 1046 951 1046 m 938 633 l 931 136 q 950 0 931 28 q 901 -8 928 -8 q 779 165 779 -8 q 792 364 779 268 q 713 357 757 357 q 611 381 669 357 q 625 304 625 344 q 567 165 625 219 q 421 110 510 110 q 258 147 332 110 q 138 235 185 183 q 61 335 90 286 q 32 413 32 385 q 79 468 32 457 q 199 310 125 375 q 364 246 272 246 q 462 278 422 246 q 501 369 501 311 q 485 432 501 406 q 454 467 468 458 q 351 446 406 446 q 254 473 297 446 q 211 543 211 500 q 240 608 211 586 q 312 629 268 629 q 403 607 356 629 q 479 721 479 657 q 449 782 479 761 q 372 803 419 803 q 201 742 276 803 q 153 823 153 774 q 201 900 153 872 q 313 928 249 928 q 508 850 426 928 q 590 663 590 772 q 526 518 590 576 q 664 475 592 475 q 783 513 736 475 q 786 673 786 593 q 765 785 786 753 q 633 888 633 792 q 639 919 633 906 l 988 919 q 1133 821 1133 919 q 1125 785 1133 799 l 888 785 q 938 633 938 749 z "},"ॽ":{"ha":808,"x_min":175,"x_max":675,"o":"m 419 281 l 417 110 q 432 1 417 28 q 392 -6 414 -6 q 296 150 296 -6 l 296 263 q 329 506 296 456 q 383 575 365 558 q 419 608 401 592 q 458 645 436 625 q 485 672 479 665 q 507 694 490 678 q 529 720 524 711 q 544 743 535 729 q 558 798 558 765 q 531 854 558 831 q 453 878 503 878 q 235 788 336 878 q 175 883 175 826 q 233 974 175 939 q 363 1008 290 1008 q 582 930 489 1008 q 675 736 675 851 q 672 710 675 724 l 667 686 q 658 662 665 675 q 647 641 650 649 q 633 619 644 633 q 617 599 621 604 q 599 578 614 593 q 583 560 585 563 q 564 540 581 557 l 546 522 q 497 472 508 485 q 472 444 486 460 q 456 424 458 429 q 444 406 453 418 q 433 385 435 393 q 427 365 432 378 q 422 342 422 353 l 419 281 z "},"​":{"ha":0,"x_min":0,"x_max":0,"o":""},"‌":{"ha":11,"x_min":-33,"x_max":53,"o":"m -26 -418 l -28 1017 q 31 1101 -28 1101 q 53 1096 43 1101 q 46 1039 46 1083 l 47 -396 q -11 -481 47 -481 q -33 -475 -24 -481 q -26 -418 -26 -462 z "},"‍":{"ha":0,"x_min":-207,"x_max":185,"o":"m 25 849 l 26 -396 q -32 -481 26 -481 q -54 -475 -44 -481 q -47 -377 -47 -462 q -48 197 -47 -292 q -49 847 -49 686 l -103 797 q -166 764 -136 764 q -207 799 -196 764 l -64 932 l -207 1067 q -163 1100 -193 1100 q -101 1068 -133 1100 l -11 983 l 79 1068 q 141 1100 111 1100 q 185 1067 171 1100 l 42 932 l 185 799 q 144 764 174 764 q 81 797 114 764 l 25 849 z "},"–":{"ha":1029,"x_min":83,"x_max":946,"o":"m 249 558 l 939 558 q 946 522 946 544 q 782 406 946 406 l 93 406 q 83 447 83 425 q 249 558 83 558 z "},"—":{"ha":1460,"x_min":83,"x_max":1376,"o":"m 249 558 l 1369 558 q 1376 522 1376 544 q 1213 406 1376 406 l 93 406 q 83 447 83 425 q 249 558 83 558 z "},"‘":{"ha":419,"x_min":83,"x_max":335,"o":"m 242 1076 q 266 988 242 1028 q 335 932 290 947 q 296 869 326 894 q 213 844 265 844 q 122 888 160 844 q 83 999 83 932 q 151 1191 83 1108 q 282 1274 219 1274 q 324 1238 315 1274 q 242 1076 242 1178 z "},"’":{"ha":419,"x_min":83,"x_max":335,"o":"m 178 1047 q 153 1138 178 1097 q 83 1193 129 1178 q 124 1255 93 1229 q 207 1281 154 1281 q 297 1237 260 1281 q 335 1126 335 1193 q 267 934 335 1017 q 138 851 199 851 q 96 888 103 851 q 178 1047 178 946 z "},"‚":{"ha":1000,"x_min":110,"x_max":368,"o":"m 113 -246 q 206 -62 206 -175 q 110 99 206 50 q 153 169 121 140 q 238 199 186 199 q 329 147 290 199 q 368 13 368 94 q 299 -194 368 -103 q 160 -285 231 -285 q 113 -246 122 -285 z "},"“":{"ha":732,"x_min":172,"x_max":560,"o":"m 467 1076 q 491 988 467 1028 q 560 932 515 947 q 520 869 551 894 q 448 844 489 844 q 375 863 407 844 q 308 844 346 844 q 210 888 249 844 q 172 999 172 932 q 240 1191 172 1108 q 371 1274 308 1274 q 413 1238 407 1274 q 336 1126 354 1194 q 417 1232 367 1190 q 503 1274 467 1274 q 549 1238 540 1274 q 467 1076 467 1179 z "},"”":{"ha":732,"x_min":83,"x_max":649,"o":"m 178 1040 q 153 1131 178 1090 q 83 1186 129 1171 q 124 1248 93 1222 q 206 1274 154 1274 q 297 1229 258 1274 q 335 1118 335 1185 q 267 926 335 1008 q 138 844 199 844 q 96 879 104 844 q 178 1040 178 940 m 490 1040 q 466 1130 490 1090 q 397 1186 442 1169 q 438 1248 407 1222 q 520 1274 468 1274 q 610 1229 572 1274 q 649 1118 649 1185 q 581 926 649 1008 q 451 844 513 844 q 408 879 417 844 q 490 1040 490 939 z "},"„":{"ha":1000,"x_min":110,"x_max":368,"o":"m 113 -246 q 206 -62 206 -175 q 110 99 206 50 q 153 169 121 140 q 238 199 186 199 q 329 147 290 199 q 368 13 368 94 q 299 -194 368 -103 q 160 -285 231 -285 q 113 -246 122 -285 z "},"†":{"ha":913,"x_min":36,"x_max":869,"o":"m 376 -126 l 372 513 q 381 744 372 678 q 44 738 258 738 q 36 778 36 758 q 201 889 36 889 q 379 885 233 889 q 371 1053 371 972 q 493 1229 371 1229 q 542 1221 522 1229 q 525 1067 525 1193 q 522 881 525 940 q 863 889 607 889 q 869 853 869 875 q 704 738 869 738 q 518 743 618 738 q 532 -144 532 622 q 407 -322 532 -322 q 357 -315 381 -322 q 376 -193 376 -285 q 376 -126 376 -171 z "},"‡":{"ha":903,"x_min":36,"x_max":872,"o":"m 542 1221 q 525 1067 525 1193 q 522 881 525 940 q 863 889 607 889 q 869 853 869 875 q 704 738 869 738 q 518 743 618 738 q 528 438 528 665 q 522 156 529 211 q 865 164 631 163 q 872 128 872 143 q 707 11 872 11 q 522 17 579 14 q 532 -146 532 -76 q 410 -322 532 -322 q 360 -314 382 -322 q 378 -167 378 -285 q 383 18 378 -50 q 49 11 263 11 q 39 53 39 31 q 204 164 39 164 q 381 160 313 161 q 374 456 374 239 q 381 744 374 674 q 44 738 263 738 q 36 778 36 758 q 201 889 36 889 q 379 885 233 889 q 371 1053 371 972 q 493 1229 371 1229 q 542 1221 522 1229 z "},"•":{"ha":678,"x_min":140,"x_max":531,"o":"m 361 765 q 401 765 361 765 q 485 718 440 765 q 531 591 531 671 q 463 443 531 511 q 313 375 394 375 q 186 422 232 375 q 140 548 140 469 q 211 696 140 626 q 361 765 282 765 z "},"…":{"ha":1356,"x_min":115,"x_max":1239,"o":"m 248 222 q 272 222 248 222 q 322 194 296 222 q 349 119 349 167 q 308 31 349 72 q 219 -11 267 -11 q 143 17 171 -11 q 115 92 115 44 q 158 181 115 140 q 248 222 200 222 m 693 222 q 717 222 693 222 q 767 194 740 222 q 794 119 794 167 q 753 31 794 72 q 664 -11 713 -11 q 588 17 615 -11 q 561 92 561 44 q 603 181 561 140 q 693 222 646 222 m 1138 222 q 1161 222 1138 222 q 1212 194 1185 222 q 1239 119 1239 167 q 1198 31 1239 72 q 1109 -11 1157 -11 q 1033 17 1061 -11 q 1006 92 1006 44 q 1048 181 1006 140 q 1138 222 1090 222 z "},"‰":{"ha":1786,"x_min":94,"x_max":1692,"o":"m 1692 285 q 1692 228 1692 285 q 1619 78 1692 171 q 1444 -14 1547 -14 q 1284 63 1340 -14 q 1228 254 1228 139 q 1296 463 1228 369 q 1469 556 1364 556 q 1633 478 1574 556 q 1692 285 1692 400 m 1544 263 q 1544 298 1544 263 q 1521 384 1544 333 q 1458 435 1497 435 q 1393 390 1418 435 q 1368 275 1368 344 q 1392 155 1368 206 q 1456 104 1417 104 q 1519 148 1494 104 q 1544 263 1544 192 m 558 756 q 558 698 558 756 q 486 549 558 640 q 310 457 414 457 q 151 533 207 457 q 94 725 94 610 q 163 933 94 840 q 335 1025 231 1025 q 499 948 440 1025 q 558 756 558 871 m 411 733 q 411 769 411 733 q 388 856 411 804 q 324 907 364 907 q 260 861 285 907 q 235 746 235 815 q 259 625 235 676 q 322 574 283 574 q 385 618 360 574 q 411 733 411 663 m 881 954 q 980 1025 933 1025 q 1053 982 1026 1025 q 990 914 1035 975 l 383 60 q 285 -15 331 -15 q 214 31 239 -15 q 276 99 240 46 l 881 954 m 1169 285 q 1169 228 1169 285 q 1097 78 1169 171 q 922 -14 1025 -14 q 762 63 818 -14 q 706 254 706 139 q 774 463 706 369 q 947 556 842 556 q 1110 478 1051 556 q 1169 285 1169 400 m 1022 263 q 1022 298 1022 263 q 999 384 1022 333 q 935 435 975 435 q 871 390 896 435 q 846 275 846 344 q 870 155 846 206 q 933 104 894 104 q 997 148 971 104 q 1022 263 1022 192 z "},"‹":{"ha":503,"x_min":72,"x_max":431,"o":"m 290 685 q 271 652 290 685 q 251 561 251 618 q 291 436 251 504 q 431 243 331 368 q 386 214 418 214 q 198 350 324 214 q 72 561 72 486 q 133 696 72 611 q 270 845 194 781 q 382 910 346 910 q 431 881 418 910 q 290 685 329 753 z "},"›":{"ha":503,"x_min":72,"x_max":431,"o":"m 431 561 q 305 350 431 486 q 117 214 179 214 q 88 224 100 214 q 72 243 75 235 q 211 435 172 367 q 250 561 250 504 q 211 686 250 618 q 72 881 172 754 q 88 900 75 890 q 117 910 100 910 q 233 845 157 910 q 369 696 308 781 q 431 561 431 611 z "},"⁄":{"ha":950,"x_min":56,"x_max":894,"o":"m 724 954 q 821 1025 772 1025 q 894 982 869 1025 q 869 963 881 976 q 832 914 839 925 l 226 60 q 127 -15 174 -15 q 56 31 81 -15 q 118 99 82 46 l 724 954 z "},"€":{"ha":1036,"x_min":61,"x_max":985,"o":"m 597 350 l 392 350 q 660 142 449 142 q 819 182 742 142 q 942 274 896 222 q 971 247 960 269 q 982 203 982 225 q 874 58 982 131 q 610 -14 767 -14 q 343 82 453 -14 q 201 350 233 178 l 68 350 q 61 379 61 360 q 178 454 61 454 l 190 454 q 189 491 189 467 q 192 560 189 515 l 68 560 q 61 588 61 569 q 178 664 61 664 l 208 664 q 367 929 249 833 q 658 1025 486 1025 q 890 976 796 1025 q 985 851 985 926 q 949 778 985 803 q 862 754 913 754 q 775 775 811 754 q 776 797 776 786 q 745 879 776 843 q 634 915 714 915 q 485 849 554 915 q 389 664 417 783 l 708 664 q 714 640 714 657 q 597 560 714 560 l 374 560 q 372 519 372 544 q 375 454 372 493 l 708 454 q 714 431 714 447 q 597 350 714 350 z "},"₹":{"ha":694,"x_min":38,"x_max":733,"o":"m 733 675 q 617 593 733 593 l 589 593 q 590 565 590 583 q 530 380 590 457 q 368 285 469 303 q 553 94 429 94 q 592 97 572 94 q 592 86 592 92 q 565 21 592 50 q 485 -8 538 -8 q 224 297 307 -8 q 117 422 117 336 q 140 478 117 456 q 208 501 164 501 q 287 465 251 501 q 342 376 322 429 q 458 553 458 415 q 456 593 458 565 l 43 593 q 38 624 38 604 q 154 703 38 703 l 421 703 q 343 811 390 767 l 43 811 q 38 840 38 822 q 154 919 38 919 l 729 919 q 733 893 733 907 q 617 811 733 811 l 497 811 q 564 703 539 764 l 729 703 q 733 675 733 686 z "},"™":{"ha":1413,"x_min":25,"x_max":1329,"o":"m 135 1021 l 438 1021 q 513 958 513 1021 q 492 908 513 932 q 404 925 460 925 l 331 925 l 331 486 q 356 436 331 450 q 279 404 333 404 q 204 488 204 404 l 204 925 l 99 925 q 25 986 25 925 q 44 1036 25 1014 q 135 1021 75 1021 m 1268 407 q 1182 481 1188 407 l 1154 908 l 983 447 q 942 416 971 415 q 905 424 914 417 q 892 449 896 432 l 722 897 l 694 485 q 631 404 689 404 q 558 432 586 404 q 582 489 581 451 l 619 938 q 619 961 619 943 q 604 999 619 979 q 712 1026 650 1026 q 800 1001 774 1026 q 846 917 826 976 l 954 629 l 1056 908 q 1113 1003 1081 979 q 1202 1026 1146 1026 q 1294 1008 1258 1026 q 1282 970 1282 990 q 1282 943 1282 950 l 1311 492 q 1329 421 1314 439 q 1268 407 1299 407 z "},"−":{"ha":940,"x_min":44,"x_max":896,"o":"m 210 644 l 890 644 q 896 610 896 635 q 732 493 896 493 l 54 493 q 44 533 44 513 q 210 644 44 644 z "},"◌":{"ha":1092,"x_min":167,"x_max":953,"o":"m 175 376 l 319 408 q 344 336 326 375 l 219 263 q 175 376 188 314 m 317 460 l 167 460 q 185 581 167 517 l 326 533 q 317 460 317 500 m 269 194 l 375 293 q 436 243 397 267 l 367 121 q 269 194 306 156 m 297 749 l 394 642 q 346 582 367 618 l 219 656 q 297 749 251 711 m 560 211 l 560 75 q 442 90 493 75 l 485 222 q 560 211 522 211 m 803 460 l 953 460 q 933 339 953 389 l 792 385 q 803 460 803 422 m 479 836 l 510 697 q 438 672 468 689 l 367 796 q 479 836 418 825 m 640 82 l 611 217 q 683 244 657 229 l 753 121 q 640 82 703 92 m 560 701 l 560 843 q 679 826 622 843 l 633 690 q 560 701 597 701 m 824 169 l 726 275 q 772 336 753 301 l 899 263 q 824 169 869 210 m 850 722 l 742 622 q 682 671 721 647 l 754 796 q 850 722 808 765 m 900 654 q 944 540 932 603 l 797 510 q 772 582 790 540 l 900 654 z "},"ﬁ":{"ha":876,"x_min":26,"x_max":807,"o":"m 767 579 l 767 121 q 807 40 767 61 q 701 -14 767 -14 q 588 125 588 -14 l 588 603 l 340 601 l 340 -144 q 293 -308 340 -254 q 171 -362 246 -362 q 26 -257 63 -362 q 133 -224 104 -257 q 161 -112 161 -190 l 161 604 q 40 669 40 614 q 65 724 40 704 q 158 718 118 718 l 161 718 l 161 790 q 253 1006 161 935 q 478 1076 346 1076 q 688 1033 611 1076 q 765 925 765 989 q 719 856 765 881 q 666 840 693 840 q 614 847 639 840 q 479 954 574 954 q 340 799 340 954 l 340 718 l 661 718 q 743 685 719 718 q 767 579 767 651 z "},"ﬂ":{"ha":932,"x_min":26,"x_max":807,"o":"m 767 913 l 767 121 q 807 40 767 61 q 701 -14 767 -14 q 588 125 588 -14 l 588 939 q 478 961 539 961 q 378 928 417 961 q 340 833 340 894 l 340 664 l 481 664 q 489 636 489 654 q 451 576 489 603 q 340 547 414 549 l 340 -144 q 293 -308 340 -254 q 171 -362 246 -362 q 26 -257 63 -362 q 133 -224 104 -257 q 161 -112 161 -190 l 161 549 q 40 614 40 556 q 65 667 40 649 q 158 664 118 664 l 161 664 l 161 835 q 240 1015 161 953 q 460 1076 318 1076 q 684 1030 601 1076 q 767 913 767 983 z "}," ":{"ha":385,"x_min":0,"x_max":0,"o":""}}}
